<?xml version="1.0" encoding="utf-8"?>
<!-- Generator: Adobe Illustrator 19.1.0, SVG Export Plug-In . SVG Version: 6.00 Build 0)  -->
<svg version="1.1" xmlns="http://www.w3.org/2000/svg" xmlns:xlink="http://www.w3.org/1999/xlink" x="0px" y="0px"
	 viewBox="0 0 640 1136" style="enable-background:new 0 0 640 1136;" xml:space="preserve">
<style type="text/css">
	.st0{fill:#87D0F0;stroke:#FFF0A4;stroke-miterlimit:10;}
	.st1{fill:#62B6F4;}
	.st2{fill:#FFFFFF;}
	.st3{fill:#996948;}
	.st4{fill:#EDC57E;}
	.st5{fill:#FFEFD9;}
	.st6{fill:#EDC57E;stroke:#EDC57E;stroke-width:2;stroke-miterlimit:10;}
	.st7{fill:#D2D860;}
	.st8{fill:#7F4817;}
	.st9{fill:#6FB533;}
	.st10{fill:none;stroke:#875815;stroke-width:7;stroke-miterlimit:10;}
	.st11{fill:none;stroke:#2F6D07;stroke-miterlimit:10;}
	.st12{fill:none;stroke:#2F6D07;stroke-width:2;stroke-miterlimit:10;}
	.st13{fill:#C6884F;}
</style>
<g id="Ebene_2">
	<rect x="-6.9" y="0.4" class="st0" width="646.9" height="1135.6"/>
</g>
<g id="Ebene_4">
</g>
<g id="Ebene_3">
	<path class="st1" d="M611.5,300H11.1c-99,0-180-81-180-180v0c0-99,81-180,180-180h600.4c99,0,180,81,180,180v0
		C791.5,219,710.5,300,611.5,300z"/>
	<path class="st1" d="M749.1,1206H-15.5c-99,0-180-81-180-180v0c0-99,81-180,180-180h764.5c99,0,180,81,180,180v0
		C929.1,1125,848.1,1206,749.1,1206z"/>
	<path class="st1" d="M463.5,733.5H180c-99,0-180-81-180-180v0c0-99,81-180,180-180h283.5c99,0,180,81,180,180v0
		C643.5,652.5,562.5,733.5,463.5,733.5z"/>
	<g>
		<path class="st2" d="M339,214H53.4c-9.6,0-17.5-7.9-17.5-17.5v-7.9c0-9.6,7.9-17.5,17.5-17.5H339c9.6,0,17.5,7.9,17.5,17.5v7.9
			C356.5,206.2,348.6,214,339,214z"/>
		<path class="st2" d="M123.8,266.1L123.8,266.1c-8.1,0-14.8-6.7-14.8-14.8v-63.9c0-8.1,6.7-14.8,14.8-14.8h0
			c8.1,0,14.8,6.7,14.8,14.8v63.9C138.6,259.5,131.9,266.1,123.8,266.1z"/>
		<path class="st2" d="M178.8,272.6H-59c-6.8,0-12.4-5.6-12.4-12.4v-5.6c0-6.8,5.6-12.4,12.4-12.4h237.8c6.8,0,12.4,5.6,12.4,12.4
			v5.6C191.2,267,185.6,272.6,178.8,272.6z"/>
	</g>
	<g>
		<path class="st2" d="M313.6,107.4h258.7c4.3,0,7.8-3.5,7.8-7.8v0c0-4.3-3.5-7.8-7.8-7.8H313.6c-4.3,0-7.8,3.5-7.8,7.8v0
			C305.8,103.9,309.3,107.4,313.6,107.4z"/>
		<path class="st2" d="M591.8,65.5H462.4c-5.9,0-10.7-4.8-10.7-10.7V40.1c0-5.9,4.8-10.7,10.7-10.7h129.4c5.9,0,10.7,4.8,10.7,10.7
			v14.7C602.5,60.7,597.7,65.5,591.8,65.5z"/>
		<path class="st2" d="M504.6,101.7h8.9c9.1,0,16.5-7.4,16.5-16.5v-19c0-9.1-7.4-16.5-16.5-16.5h-8.9c-9.1,0-16.5,7.4-16.5,16.5v19
			C488.1,94.2,495.5,101.7,504.6,101.7z"/>
	</g>
	<path class="st2" d="M390.6,917.6H-57.9c-6.6,0-12-5.4-12-12v-10.5c0-6.6,5.4-12,12-12h448.5c6.6,0,12,5.4,12,12v10.5
		C402.6,912.2,397.2,917.6,390.6,917.6z"/>
	<path class="st2" d="M302.2,931.1H154.9c-3.2,0-5.8-2.6-5.8-5.8v-4.9c0-3.2,2.6-5.8,5.8-5.8h147.3c3.2,0,5.8,2.6,5.8,5.8v4.9
		C308.1,928.5,305.5,931.1,302.2,931.1z"/>
	<path class="st2" d="M529.3,980.6h-423c-13.6,0-24.7-11.1-24.7-24.7v0c0-13.6,11.1-24.7,24.7-24.7h423c13.6,0,24.7,11.1,24.7,24.7
		v0C554.1,969.4,542.9,980.6,529.3,980.6z"/>
</g>
<g id="Ebene_5">
</g>
</svg>
