<?xml version="1.0" encoding="utf-8"?>
<!-- Generator: Adobe Illustrator 19.1.0, SVG Export Plug-In . SVG Version: 6.00 Build 0)  -->
<svg version="1.1" xmlns="http://www.w3.org/2000/svg" xmlns:xlink="http://www.w3.org/1999/xlink" x="0px" y="0px"
	 viewBox="0 0 640 1136" preserveAspectRatio="none" style="enable-background:new 0 0 640 1136;" xml:space="preserve">
<style type="text/css">
	.st0{fill:#87D0F0;stroke:#FFF0A4;stroke-miterlimit:10;}
	.st1{fill:#62B6F4;}
	.st2{fill:#FFFFFF;}
	.st3{fill:none;}
</style>
<g id="Ebene_2">
</g>
<g id="Ebene_4">
</g>
<g id="Ebene_3">
	<g>
		<path class="st0" d="M639.4,0.4H-1V1136h641V1.7C639.8,1.3,639.6,0.8,639.4,0.4z"/>
		<path class="st0" d="M0,0.4C212,0,423,0,635.2,0.4"/>
		<path class="st1" d="M641.4,4.1c-1.2-1.9-2.2-3.9-3-6.1H-1v301.6c4,0.3,8.1,0.4,12.2,0.4h600.4c10.2,0,20.2-0.9,29.9-2.5V4.1z"/>
		<rect x="-1" y="846" class="st1" width="642.5" height="292.5"/>
		<path class="st1" d="M641.4,526.4c-13.2-86.3-88.1-152.9-177.9-152.9H180c-99,0-180,81-180,180v0c0,99,81,180,180,180h283.5
			c89.8,0,164.8-66.7,177.9-152.9V526.4z"/>
		<path class="st2" d="M641.4,523.1H521.1c-6.6,0-12,5.4-12,12v0c0,6.6,5.4,12,12,12h120.3V523.1z"/>
		<path class="st2" d="M693.4,533.3v3.6c0.1-0.6,0.2-1.2,0.2-1.8v0C693.6,534.5,693.5,533.9,693.4,533.3z"/>
		<path class="st2" d="M328.9,371.7H150.6c-15.7,0-28.5-12.8-28.5-28.5v0c0-15.7,12.8-28.5,28.5-28.5h178.2
			c15.7,0,28.5,12.8,28.5,28.5v0C357.4,358.8,344.6,371.7,328.9,371.7z"/>
		<g>
			<path class="st2" d="M248.1,686H-1v29.1h249.2c6.3,0,11.5-5.2,11.5-11.5v-6.2C259.6,691.1,254.4,686,248.1,686z"/>
			<path class="st2" d="M124.8,705.4h-5.3c-13.8,0-25.1-11.3-25.1-25.1v-13.6c0-13.8,11.3-25.1,25.1-25.1h5.3
				c13.8,0,25.1,11.3,25.1,25.1v13.6C149.9,694.1,138.6,705.4,124.8,705.4z"/>
			<path class="st2" d="M285.3,671.4H41.6c-7.3,0-13.4-6-13.4-13.4v-7.2c0-7.3,6-13.4,13.4-13.4h243.7c7.3,0,13.4,6,13.4,13.4v7.2
				C298.7,665.4,292.6,671.4,285.3,671.4z"/>
		</g>
		<g>
			<path class="st2" d="M641.4,364.9H451c-5.1,0-9.2,4.1-9.2,9.2v10.5c0,5.1,4.1,9.2,9.2,9.2h190.5V364.9z"/>
			<path class="st2" d="M378.7,402.7h184.6c3.6,0,6.5,2.9,6.5,6.5l0,0c0,3.6-2.9,6.5-6.5,6.5H378.7c-3.6,0-6.5-2.9-6.5-6.5l0,0
				C372.2,405.7,375.1,402.7,378.7,402.7z"/>
			<path class="st2" d="M530.8,415.3h-22.1c-5.7,0-10.4-4.7-10.4-10.4v-14.3c0-5.7,4.7-10.4,10.4-10.4h22.1
				c5.7,0,10.4,4.7,10.4,10.4v14.3C541.2,410.6,536.5,415.3,530.8,415.3z"/>
		</g>
		<g>
			<path class="st2" d="M339,214H53.4c-9.6,0-17.5-7.9-17.5-17.5v-7.9c0-9.6,7.9-17.5,17.5-17.5H339c9.6,0,17.5,7.9,17.5,17.5v7.9
				C356.5,206.2,348.6,214,339,214z"/>
			<path class="st2" d="M123.8,266.1L123.8,266.1c-8.1,0-14.8-6.7-14.8-14.8v-63.9c0-8.1,6.7-14.8,14.8-14.8h0
				c8.1,0,14.8,6.7,14.8,14.8v63.9C138.6,259.5,131.9,266.1,123.8,266.1z"/>
			<path class="st2" d="M178.8,242.2H-1v30.4h179.8c6.8,0,12.4-5.6,12.4-12.4v-5.6C191.2,247.8,185.6,242.2,178.8,242.2z"/>
		</g>
		<path class="st2" d="M192.5,508.1H51.6c-4.9,0-9-4-9-9v0c0-4.9,4-9,9-9h140.9c4.9,0,9,4,9,9v0C201.5,504,197.5,508.1,192.5,508.1z
			"/>
		<g>
			<path class="st2" d="M618.9,750.4h-241c-6.8,0-12.3-5.5-12.3-12.3v-21.2c0-6.8,5.5-12.3,12.3-12.3h241c6.8,0,12.3,5.5,12.3,12.3
				v21.2C631.2,744.9,625.7,750.4,618.9,750.4z"/>
			<path class="st2" d="M297.4,764.7h272.3c5.7,0,10.3,4.6,10.3,10.3v0c0,5.7-4.6,10.3-10.3,10.3H297.4c-5.7,0-10.3-4.6-10.3-10.3v0
				C287.1,769.3,291.7,764.7,297.4,764.7z"/>
			<path class="st2" d="M428.7,781.2h-20.6c-7.7,0-13.9-6.3-13.9-13.9v-27.9c0-7.7,6.3-13.9,13.9-13.9h20.6
				c7.7,0,13.9,6.3,13.9,13.9v27.9C442.6,774.9,436.4,781.2,428.7,781.2z"/>
		</g>
		<g>
			<path class="st2" d="M313.6,107.4h258.7c4.3,0,7.8-3.5,7.8-7.8v0c0-4.3-3.5-7.8-7.8-7.8H313.6c-4.3,0-7.8,3.5-7.8,7.8v0
				C305.8,103.9,309.3,107.4,313.6,107.4z"/>
			<path class="st2" d="M591.8,65.5H462.4c-5.9,0-10.7-4.8-10.7-10.7V40.1c0-5.9,4.8-10.7,10.7-10.7h129.4c5.9,0,10.7,4.8,10.7,10.7
				v14.7C602.5,60.7,597.7,65.5,591.8,65.5z"/>
			<path class="st2" d="M504.6,101.7h8.9c9.1,0,16.5-7.4,16.5-16.5v-19c0-9.1-7.4-16.5-16.5-16.5h-8.9c-9.1,0-16.5,7.4-16.5,16.5v19
				C488.1,94.2,495.5,101.7,504.6,101.7z"/>
		</g>
		<path class="st2" d="M390.6,883.1H-1v34.5h391.6c6.6,0,12-5.4,12-12v-10.5C402.6,888.5,397.2,883.1,390.6,883.1z"/>
		<path class="st2" d="M302.2,931.1H154.9c-3.2,0-5.8-2.6-5.8-5.8v-4.9c0-3.2,2.6-5.8,5.8-5.8h147.3c3.2,0,5.8,2.6,5.8,5.8v4.9
			C308.1,928.5,305.5,931.1,302.2,931.1z"/>
		<path class="st2" d="M529.3,980.6h-423c-13.6,0-24.7-11.1-24.7-24.7v0c0-13.6,11.1-24.7,24.7-24.7h423c13.6,0,24.7,11.1,24.7,24.7
			v0C554.1,969.4,542.9,980.6,529.3,980.6z"/>
		<path class="st3" d="M21,29.5c6.4,0,6.4-10,0-10C14.5,19.5,14.5,29.5,21,29.5z"/>
		<path class="st3" d="M639.4,0.4L0.5,1137.5H640V1.7C639.8,1.3,639.6,0.9,639.4,0.4z"/>
	</g>
</g>
</svg>
