<?xml version="1.0" encoding="utf-8"?>
<!-- Generator: Adobe Illustrator 19.1.0, SVG Export Plug-In . SVG Version: 6.00 Build 0)  -->
<svg version="1.1" xmlns="http://www.w3.org/2000/svg" xmlns:xlink="http://www.w3.org/1999/xlink" x="0px" y="0px"
	 viewBox="0 0 225 367.5" style="enable-background:new 0 0 225 367.5;" xml:space="preserve">
<style type="text/css">
	.st0{fill:#A81E1E;}
	.st1{opacity:0.3;}
	.st2{fill:#A84914;}
	.st3{fill:none;}
	.st4{fill:#3D8E5A;}
	.st5{fill:#77D877;}
	.st6{fill:#D5F93D;stroke:#8CC63F;stroke-width:7;stroke-miterlimit:10;}
	.st7{fill:#AA000E;stroke:#FF8383;stroke-width:60;stroke-miterlimit:10;}
	.st8{fill:#AA000E;stroke:#770505;stroke-width:60;stroke-miterlimit:10;}
	.st9{fill:none;stroke:#EF6767;stroke-width:10;stroke-miterlimit:10;}
	.st10{fill:none;stroke:#721500;stroke-width:12;stroke-miterlimit:10;}
	.st11{fill:#DD5252;}
	.st12{fill:#4F0505;}
	.st13{fill:#721111;}
</style>
<g id="Ebene_2">
</g>
<g id="Ebene_3">
</g>
<g id="Ebene_1">
</g>
<g id="Ebene_4">
	<ellipse class="st0" cx="-324.9" cy="83.1" rx="1" ry="0.5"/>
</g>
<g id="Ebene_5">
	<g>
		<path class="st1" d="M225,116C225,54.7,174.7,5,112.5,5S0,54.7,0,116c0,30.3,12.4,57.8,32.4,77.9v173.6h0.1l23.6-26.6v15.2h0.1
			l54.2-51.2l56.7,51.2h2.6v-12l21.7,23.4h3.8V191.2C213.7,171.4,225,145,225,116z"/>
		<g>
			<g>
				<path class="st2" d="M41.5,285.9"/>
				<path class="st2" d="M190.6,122.7c0,24.5-15.7,46.1-36.7,58.9c-2.1,1.3-4.3,2.5-6.5,3.6c-26.9,14.8-63.8,10-88.2-7.6
					c-2-1.4-3.8-3-5.6-4.6c-7.9-7.1-21.4-44.4-21.4-50.2c0-39.2,35.5-71,79.2-71S190.6,83.5,190.6,122.7z"/>
				<path class="st2" d="M191.3,118.5c0,24.5-15.7,46.1-36.7,58.9c-2.1,1.3-4.3,2.5-6.5,3.6c-26.9,14.8-63.8,10-88.2-7.6
					c-2-1.4-3.8-3-5.6-4.6c-14.3-12.9-21.4-30.6-21.4-50.2c0-39.2,35.5-71,79.2-71S191.3,79.2,191.3,118.5z"/>
				<path class="st2" d="M169.9,120.6c0,28-27.2,50.8-58.4,50.8s-54.8-22.7-54.8-50.8S82,69.9,113.3,69.9S169.9,92.6,169.9,120.6z"
					/>
				<path class="st2" d="M171.7,118c0,29.7-28.2,53.8-60.7,53.8S53.9,147.7,53.9,118s26.4-53.8,58.9-53.8S171.7,88.3,171.7,118z"/>
			</g>
			<g>
				<path class="st3" d="M49.3,268.2"/>
				<g>
					<polygon class="st4" points="40.7,145.1 40.7,340.8 41,340.8 113.4,272.4 186.1,340.8 186.1,145.1 					"/>
					<g>
						<polygon class="st5" points="62.6,167.7 62.6,346.5 62.1,346.5 113.7,283.8 164.8,346.5 164.8,167.7 						"/>
					</g>
				</g>
				<g>
					<g>
						<rect x="97.5" y="158.9" class="st6" width="34.6" height="173.1"/>
					</g>
				</g>
				<path class="st7" d="M183.1,105.2c0,24.5-14.2,46.1-33.1,58.8c-1.9,1.3-3.8,2.5-5.8,3.6c-24.1,14.8-57.2,10-79-7.6
					c-1.8-1.4-3.4-3-5-4.6c-12.8-12.8-19-30.6-19-50.2c0-39.2,31.8-71,71-71S183.1,66,183.1,105.2z"/>
				<path class="st8" d="M183.7,101c0,24.5-14.2,46.1-33.1,58.8c-1.9,1.3-3.8,2.5-5.8,3.6c-24.1,14.8-57.2,10-79-7.6
					c-1.8-1.4-3.4-3-5-4.6c-12.8-12.8-18.4-30.6-18.4-50.2c0-39.2,31.2-71,70.4-71S183.7,61.8,183.7,101z"/>
				<path class="st9" d="M164.6,103.1c0,28-24.5,50.7-52.5,50.7s-48.9-22.7-48.9-50.7s22.7-50.7,50.7-50.7S164.6,75.1,164.6,103.1z"
					/>
				<path class="st10" d="M166.2,100.5c0,29.7-25.4,53.7-54.5,53.7s-50.9-24.1-50.9-53.7s23.6-53.7,52.7-53.7
					S166.2,70.8,166.2,100.5z"/>
			</g>
			<circle class="st0" cx="111.8" cy="102.7" r="55.3"/>
		</g>
		<g>
			<g>
				<path class="st11" d="M92.1,122.2c0.5,0,1.5,0.1,3.2,0.3c0.8,0.1,1.4,0.2,1.9,0.2c2.8,0,4.4-2.2,4.8-6.5
					c0.2-2.5,0.3-9.5,0.3-21.1c0-1.8-0.4-3-1.1-3.7c-0.7-0.7-2-1-3.9-1c-0.5,0-1.1,0-2,0.1c-0.7,0.1-1.2,0.1-1.7,0.1
					c-1.1,0-2-0.3-2.7-0.9c-0.7-0.6-1-1.4-1-2.4c0-1,0.5-2.1,1.6-3.1c1-1,2.5-1.9,4.3-2.7c9.2-3.9,19-5.9,29.4-5.9
					c2.8,0,4.9,0.3,6.2,1c1.3,0.7,1.9,1.7,1.9,3.2c0,0.8-0.2,1.5-0.6,2c-0.4,0.5-1.3,1-2.5,1.5c-2,0.9-3.2,2-3.5,3.2
					s-0.5,6.2-0.7,14.8c0.3,8.7,0.4,13.4,0.4,14c0,0.6,0.2,1.5,0.4,2.6c0.4,1.7,1.1,2.9,2.2,3.6c1.1,0.7,3,1,5.7,1.2
					c3.1,0.1,4.6,1.4,4.6,3.8c0,2.5-2.2,4.1-6.5,4.9c-5.8,1-12.1,1.6-18.6,1.6c-4.2,0-8.1-0.2-11.8-0.7c-4.7-0.7-8.3-1.4-10.8-2.4
					c-2.5-0.9-3.8-2.3-3.8-4.1c0-1,0.4-1.8,1.2-2.5C89.8,122.6,90.9,122.2,92.1,122.2z"/>
			</g>
			<g>
				<g>
					<path class="st12" d="M89.1,117.7c0.5,0,1.5,0.1,3.2,0.3c0.8,0.1,1.4,0.2,1.9,0.2c2.8,0,4.4-2.2,4.8-6.5
						c0.2-2.5,0.3-9.5,0.3-21.1c0-1.8-0.4-3-1.1-3.7c-0.7-0.7-2-1-3.9-1c-0.5,0-1.1,0-2,0.1c-0.7,0.1-1.2,0.1-1.7,0.1
						c-1.1,0-2-0.3-2.7-0.9c-0.7-0.6-1-1.4-1-2.4c0-1,0.5-2.1,1.6-3.1c1-1,2.5-1.9,4.3-2.7c9.2-3.9,19-5.9,29.4-5.9
						c2.8,0,4.9,0.3,6.2,1c1.3,0.7,1.9,1.7,1.9,3.2c0,0.8-0.2,1.5-0.6,2c-0.4,0.5-1.3,1-2.5,1.5c-2,0.9-3.2,2-3.5,3.2
						s-0.5,6.2-0.7,14.8c0.3,8.7,0.4,13.4,0.4,14c0,0.6,0.2,1.5,0.4,2.6c0.4,1.7,1.1,2.9,2.2,3.6c1.1,0.7,3,1,5.7,1.2
						c3.1,0.1,4.6,1.4,4.6,3.8c0,2.5-2.2,4.1-6.5,4.9c-6,1.1-12.2,1.6-18.6,1.6c-4.2,0-8.1-0.2-11.8-0.7c-4.7-0.7-8.3-1.4-10.8-2.4
						c-2.5-0.9-3.8-2.3-3.8-4.1c0-1,0.4-1.8,1.2-2.5C86.8,118.1,87.9,117.7,89.1,117.7z"/>
				</g>
				<g>
					<path class="st13" d="M90.5,120.7c0.5,0,1.5,0.1,3.2,0.3c0.8,0.1,1.4,0.2,1.9,0.2c3,0,4.1,0.5,4.8-6.5
						c0.2-2.5,0.3-9.5,0.3-21.1c0-1.8-0.4-3-1.1-3.7c-0.7-0.7-2-1-3.9-1c-0.5,0-1.1,0-2,0.1c-0.7,0.1-1.2,0.1-1.7,0.1
						c-1.1,0-2-0.3-2.7-0.9c-0.7-0.6-1-1.4-1-2.4c0-1,0.5-2.1,1.6-3.1c1-1,2.5-1.9,4.3-2.7c9.2-3.9,19-5.9,29.4-5.9
						c2.8,0,4.9,0.3,6.2,1c1.3,0.7,1.9,1.7,1.9,3.2c0,0.8-0.2,1.5-0.6,2c-0.4,0.5-1.3,1-2.5,1.5c-2,0.9-3.2,2-3.5,3.2
						s-0.5,6.2-0.7,14.8c0.3,8.7,0.4,13.4,0.4,14c0,0.6,0.2,1.5,0.4,2.6c0.4,1.7,1.1,2.9,2.2,3.6c1.1,0.7,3,1,5.7,1.2
						c3.1,0.1,4.6,1.4,4.6,3.8c0,2.5-2.2,4.1-6.5,4.9c-6,1.1-12.2,1.6-18.6,1.6c-4.2,0-8.1-0.2-11.8-0.7c-4.7-0.7-8.3-1.4-10.8-2.4
						c-2.5-0.9-3.8-2.3-3.8-4.1c0-1,0.4-1.8,1.2-2.5C88.3,121.1,89.3,120.7,90.5,120.7z"/>
				</g>
			</g>
		</g>
	</g>
</g>
</svg>
