<?xml version="1.0" encoding="utf-8"?>
<!-- Generator: Adobe Illustrator 19.1.0, SVG Export Plug-In . SVG Version: 6.00 Build 0)  -->
<svg version="1.1" id="Ebene_1" xmlns="http://www.w3.org/2000/svg" xmlns:xlink="http://www.w3.org/1999/xlink" x="0px" y="0px"
	 viewBox="-94.1 462.3 225 436.5" style="enable-background:new -94.1 462.3 225 436.5;" xml:space="preserve">
<style type="text/css">
	.st0{fill:#A81E1E;}
	.st1{opacity:0.3;}
	.st2{fill:#A84914;}
	.st3{fill:none;}
	.st4{fill:#FF8736;}
	.st5{fill:#B74A00;}
	.st6{fill:#FCEE9C;stroke:#FFC50B;stroke-width:7;stroke-miterlimit:10;}
	.st7{fill:#FBB03B;stroke:#FFE861;stroke-width:7;stroke-miterlimit:10;}
	.st8{fill:#AA000E;stroke:#FF8383;stroke-width:60;stroke-miterlimit:10;}
	.st9{fill:#AA000E;stroke:#770505;stroke-width:60;stroke-miterlimit:10;}
	.st10{fill:none;stroke:#EF6767;stroke-width:10;stroke-miterlimit:10;}
	.st11{fill:none;stroke:#721500;stroke-width:12;stroke-miterlimit:10;}
	.st12{fill:#630000;}
	.st13{font-family:'MaturaMTScriptCapitals';}
	.st14{font-size:90px;}
	.st15{fill:#DB7979;}
	.st16{fill:#700303;}
</style>
<g id="Ebene_2">
</g>
<g id="Ebene_3">
</g>
<g id="Ebene_1_1_">
</g>
<g id="Ebene_4">
	<ellipse class="st0" cx="-419" cy="545.5" rx="1" ry="0.5"/>
	<g>
		<g class="st1">
			<ellipse cx="18.4" cy="576.4" rx="112.5" ry="110.9"/>
			<polygon points="15,778.5 96.3,898.8 100.1,898.8 100.1,643 -62.7,643 -62.7,898.8 -62.6,898.8 			"/>
		</g>
		<g>
			<g>
				<path class="st2" d="M-52.6,748.3"/>
				<g>
					<polygon class="st2" points="-48.4,625 -48.4,854.5 -48,854.5 18.9,774.2 86.1,854.5 86.1,625 					"/>
					<g>
						<polygon class="st2" points="-31.2,647.7 -31.2,826.6 -31.6,826.6 19.2,763.9 69.6,826.6 69.6,647.7 						"/>
						<rect x="-3.5" y="618.1" class="st2" width="47.5" height="213.3"/>
					</g>
				</g>
				<g>
					<g>
						<rect x="1.1" y="638.8" class="st2" width="38.6" height="173.3"/>
					</g>
				</g>
				<path class="st2" d="M96.5,585.1c0,24.5-15.7,46.1-36.7,58.9c-2.1,1.3-4.3,2.5-6.5,3.6c-26.9,14.8-63.8,10-88.2-7.6
					c-2-1.4-3.8-3-5.6-4.6c-7.9-7.1-21.4-44.4-21.4-50.2c0-39.2,35.5-71,79.2-71S96.5,545.8,96.5,585.1z"/>
				<path class="st2" d="M97.1,580.9c0,24.5-15.7,46.1-36.7,58.9c-2.1,1.3-4.3,2.5-6.5,3.6c-26.9,14.8-63.8,10-88.2-7.6
					c-2-1.4-3.8-3-5.6-4.6c-14.3-12.9-21.4-30.6-21.4-50.2c0-39.2,35.5-71,79.2-71S97.1,541.6,97.1,580.9z"/>
				<path class="st2" d="M75.8,583c0,28-27.2,50.8-58.4,50.8s-54.8-22.7-54.8-50.8c0-28.1,25.4-50.8,56.6-50.8S75.8,555,75.8,583z"
					/>
				<path class="st2" d="M77.6,580.4c0,29.7-28.2,53.8-60.7,53.8s-57.1-24.1-57.1-53.8s26.4-53.8,58.9-53.8S77.6,550.7,77.6,580.4z"
					/>
			</g>
			<g>
				<path class="st3" d="M-44.8,730.6"/>
				<g>
					<polygon class="st4" points="-41,607.5 -41,836.7 -40.7,836.7 19.3,756.5 79.5,836.7 79.5,607.5 					"/>
					<g>
						<polygon class="st5" points="-25.6,630.1 -25.6,808.9 -26,808.9 19.6,746.2 64.7,808.9 64.7,630.1 						"/>
						<polygon class="st6" points="1.1,600.6 -0.7,813.7 41.8,813.7 43.6,600.6 						"/>
					</g>
				</g>
				<g>
					<g>
						<rect x="3.4" y="621.3" class="st7" width="34.6" height="173.1"/>
					</g>
				</g>
				<path class="st8" d="M89,567.6c0,24.5-14.2,46.1-33.1,58.8c-1.9,1.3-3.8,2.5-5.8,3.6c-24.1,14.8-57.2,10-79-7.6
					c-1.8-1.4-3.4-3-5-4.6c-12.8-12.8-19-30.6-19-50.2c0-39.2,31.8-71,71-71S89,528.4,89,567.6z"/>
				<path class="st9" d="M89.6,563.3c0,24.5-14.2,46.1-33.1,58.8c-1.9,1.3-3.8,2.5-5.8,3.6c-24.1,14.8-57.2,10-79-7.6
					c-1.8-1.4-3.4-3-5-4.6c-12.8-12.8-18.4-30.6-18.4-50.2c0-39.2,31.2-71,70.4-71S89.6,524.2,89.6,563.3z"/>
				<path class="st10" d="M70.5,565.5c0,28-24.5,50.7-52.5,50.7s-49-22.7-49-50.7s22.7-50.7,50.7-50.7S70.5,537.5,70.5,565.5z"/>
				<path class="st11" d="M72.1,562.9c0,29.7-25.4,53.7-54.5,53.7s-50.9-24.1-50.9-53.7c0-29.6,23.6-53.7,52.7-53.7
					S72.1,533.2,72.1,562.9z"/>
			</g>
			<circle class="st0" cx="17.7" cy="565.1" r="55.3"/>
		</g>
	</g>
	<g>
		<rect x="3.5" y="530" class="st3" width="80.3" height="91.1"/>
		<text transform="matrix(1 0 0 1 3.4699 587.0342)" class="st12 st13 st14">5</text>
		<rect x="-4.3" y="527.7" class="st3" width="81.3" height="91.1"/>
		<text transform="matrix(1 0 0 1 -4.2918 584.793)" class="st15 st13 st14">5</text>
		<rect x="-2.9" y="528.8" class="st3" width="81.3" height="91.1"/>
		<text transform="matrix(1 0 0 1 -2.8712 585.8329)" class="st16 st13 st14">5</text>
	</g>
</g>
<g id="Ebene_5">
</g>
</svg>
