<?xml version="1.0" encoding="utf-8"?>
<!-- Generator: Adobe Illustrator 19.1.0, SVG Export Plug-In . SVG Version: 6.00 Build 0)  -->
<svg version="1.1" id="Ebene_1" xmlns="http://www.w3.org/2000/svg" xmlns:xlink="http://www.w3.org/1999/xlink" x="0px" y="0px"
	 viewBox="-13.4 -10.9 664.5 1168.4" style="enable-background:new -13.4 -10.9 664.5 1168.4;" xml:space="preserve">
<style type="text/css">
	.st0{fill:#754321;}
	.st1{fill:#965B32;}
	.st2{opacity:0.3;enable-background:new    ;}
	.st3{fill:#EDC57E;}
	.st4{opacity:0.3;}
	.st5{fill:#FBB03B;}
	.st6{fill:none;}
	.st7{fill:#FFF7CA;}
	.st8{font-family:'HPSimplified-Bold';}
	.st9{font-size:44px;}
	.st10{fill:none;stroke:#F7931E;stroke-miterlimit:10;}
	.st11{opacity:0.3;fill:#111111;stroke:#42210B;stroke-miterlimit:10;enable-background:new    ;}
	.st12{fill:#FFF7CA;stroke:#42210B;stroke-miterlimit:10;}
	.st13{fill:#808080;}
	.st14{fill:#AFAFAF;}
</style>
<g id="Ebene_2">
</g>
<g id="Ebene_1_1_">
	<path class="st0" d="M608.6-9.9H31.1c-24,0-43.5,19.5-43.5,43.5V1115c0,24,19.5,43.5,43.5,43.5h577.5c24,0,43.5-19.5,43.5-43.5
		V33.6C652.1,9.6,632.6-9.9,608.6-9.9z"/>
	<path class="st1" d="M581.3,1109.1H60.9c-17.5,0-31.7-14.2-31.7-31.7V63.9c0-17.5,14.2-31.7,31.7-31.7h520.5
		c17.5,0,31.7,14.2,31.7,31.7v1013.4C613.1,1094.8,598.9,1109.1,581.3,1109.1z"/>
	<path class="st2" d="M613.5,960.2c0.3-7.8,0.7-15.6,1-23.4c-1.9-5.4-5.1-10.2-10.5-13.6c-0.3-0.2-0.6-0.4-0.8-0.6l0,0h-0.7
		c-1.7,0-2.9-0.5-3.8-1.4l0,0l-0.1-0.1c-0.9-0.8-1.4-2-1.4-3.2c0-0.6,0.1-1.1,0.4-1.7c-2.6-0.5-5.2-0.9-7.8-1.4l9.8-0.9
		c0.8-0.5,1.8-0.7,2.9-0.7h0.7c0.6,0,1.1,0.1,1.7,0.3c3-0.3,6.1-0.5,9.1-0.8c-0.8-15.2-0.2-30.4,1.8-45.5c-17.4-1.5-34.9-3-52.3-4.5
		c17.2-0.5,34.3-0.5,51.5,0.2c-4.4-10.6-4.8-22.5-1.2-33.3c-10.5-0.5-21-1.1-31.5-1.6c9.5-0.1,19-0.2,28.5-0.2
		c2.5-12.1,3.4-24.4,2.8-36.6c-22.2-1.6-44.5-3.2-66.7-4.7c17.4-0.3,34.8-1.4,52.1-3.5c14.7-1.7-2.1-57.9,30.1-60.7
		c-202.8,17.9-407.4,14.3-610.9,4.8c10.4,12,11.4,48.7,24.3,53.7c12,4.6,25.1,7.2,38.2,7.9l-41.6,0.9c-2.6,0.1-5.3,0.2-7.6,1.2
		c0.9,4,1.5,8.1,0.8,12c1.8,0.5,3.7,0.5,5.4-0.1c-5.2,2.7-6.4,9.2-6.8,14.7c-1.1,14.5-2.1,29-3.2,43.6c24.6-0.6,49.3,0.3,73.7,2.8
		c-18.5-0.4-37.1-0.8-55.6-1.2c-5.2-0.1-11.3,0.2-14.1,4.1c-1.6,2.2-1.5,5-1.4,7.6c0.5,10.6,1,21.1,1.5,31.7
		c0.2,4.1,0.3,8.4-1.5,12.2c-1,2-2.5,3.9-3.1,6.1c-1.8,7,7,12.7,15,13.7c8.1,1,16.7-0.3,24.2,2.5c-12.6,1-25.2,2-37.9,3
		c0.9,12.4,1.2,24.8,0.9,37.3c1.5-0.2,3.1-0.3,4.9-0.2c2.5,0.1,4,1.4,4.7,3c1,0,2.1,0,3.1,0c16.1-0.2,32.3-0.4,48.4-0.6
		c-17,1-34.1,2-51.1,2.9c-0.1,2.2-1.9,4.3-5.1,4.1c-2.7-0.1-4.4,0.6-5.6,1.9c-0.5,2.9-0.1,6.6-0.1,10.9v5.5c0.3,1,0.4,2,0.6,3.1
		c8.2-0.7,16.3-2,24.2-3.9c-11.4,5.1-15.8,5.6-21.7,14.6c-6.7,10.1-9.1,21.2-17.6,30.9c117.9-29.5,243.4-6,365.9-0.6
		c24.7,1.1,49.4,1.4,74.3,1.8c56.6,0.8,114.1,1.4,168.7-11.6c-10-5.5-14.2-14-14.5-23.8c-0.1-4.8,8.4-21.7,5.5-25
		c-5-5.6-15.3-6.9-25.1-7.4c6.9,0.3,13.8,0.2,20.7-0.5c0.9-0.1,1.9-0.2,2.5-0.9c0.4-0.5,0.5-1.1,0.5-1.8c0-1,0.1-1.9,0.1-2.9
		c-2.6-1.6-4.2-5.1-1.1-7.2c0.5-0.3,1-0.7,1.5-1l0.3-6.3c-0.4-1-0.5-2.2-0.3-3.1C613.1,961.7,613.3,961,613.5,960.2z"/>
	<g>
		<path class="st3" d="M605.4,946.8c0.3-7.5,0.6-15.1,1-22.6c-1.9-5.2-4.9-9.9-10.2-13.1c-0.3-0.2-0.6-0.4-0.8-0.6l0,0h-0.7
			c-1.6,0-2.8-0.5-3.7-1.3l0,0l-0.1-0.1c-0.9-0.8-1.3-1.9-1.4-3c0-0.5,0.1-1.1,0.4-1.6c-2.5-0.4-5.1-0.9-7.6-1.3l9.6-0.8
			c0.8-0.4,1.7-0.7,2.9-0.7h0.7c0.6,0,1.1,0.1,1.6,0.3c3-0.3,5.9-0.5,8.9-0.8c-0.7-14.7-0.2-29.4,1.7-44c-17-1.4-34-2.9-51-4.3
			c16.7-0.5,33.5-0.4,50.2,0.2c-4.3-10.3-4.7-21.7-1.1-32.2c-10.2-0.5-20.4-1-30.7-1.5c9.2-0.1,18.5-0.2,27.7-0.2
			c2.4-11.7,3.3-23.6,2.7-35.4c-21.7-1.5-43.3-3.1-65-4.6c17-0.3,33.9-1.4,50.8-3.4c14.3-1.7-2-56,29.3-58.7
			C422.8,734,223.4,730.5,25,721.4c10.2,11.6,11.1,47.1,23.7,51.9c11.7,4.5,24.5,6.9,37.2,7.7l-40.6,0.8c-2.5,0.1-5.2,0.2-7.4,1.1
			c0.9,3.8,1.5,7.8,0.8,11.6c1.7,0.5,3.6,0.5,5.3-0.1c-5.1,2.6-6.2,8.9-6.6,14.2c-1,14-2.1,28.1-3.1,42.1c24-0.6,48,0.3,71.8,2.7
			c-18.1-0.4-36.2-0.8-54.2-1.2c-5.1-0.1-11.1,0.2-13.7,3.9c-1.5,2.1-1.5,4.8-1.3,7.3c0.5,10.2,0.9,20.4,1.4,30.6
			c0.2,4,0.3,8.1-1.4,11.8c-1,2-2.5,3.8-3,5.9C32,918.5,40.6,924,48.5,925s16.3-0.3,23.6,2.4c-12.3,1-24.6,1.9-36.9,2.9
			c0.9,12,1.2,24,0.9,36c1.4-0.2,3-0.3,4.7-0.2c2.4,0.1,3.9,1.4,4.6,2.9c1,0,2,0,3,0c15.7-0.2,31.5-0.4,47.2-0.6
			c-16.6,0.9-33.2,1.9-49.8,2.8c-0.1,2.2-1.8,4.1-5,4c-2.6-0.1-4.3,0.6-5.5,1.8c-0.5,2.8-0.1,6.3-0.1,10.6v5.3c0.3,1,0.4,2,0.6,3
			c8-0.7,15.8-1.9,23.6-3.7c-11.1,4.9-15.4,5.4-21.2,14.1c-6.5,9.8-8.9,20.5-17.1,29.9c115-28.5,237.2-5.8,356.6-0.6
			c24.1,1,48.3,1.4,72.4,1.7c55.2,0.7,111.2,1.4,164.5-11.2c-9.7-5.4-13.9-13.5-14.1-23c-0.1-4.6,8.2-21,5.3-24.2
			c-4.9-5.4-14.9-6.7-24.5-7.1c6.7,0.3,13.5,0.2,20.2-0.5c0.9-0.1,1.9-0.2,2.4-0.8c0.4-0.5,0.5-1.1,0.5-1.7c0-0.9,0.1-1.9,0.1-2.8
			c-2.6-1.6-4.1-4.9-1.1-7c0.5-0.3,1-0.7,1.5-1l0.3-6.1c-0.4-1-0.5-2.1-0.3-3C605,948.2,605.2,947.5,605.4,946.8z"/>
	</g>
	<g>
		<g class="st4">
			<g>
				<path d="M231.9,698.2v-4.3c-10.6-3.6-17.1-11.1-15-19.1c4.2-15.7,10-36.8,14.3-51.4c-0.1-0.4-0.2-0.8-0.2-1.2v-17.4
					c-0.2,0-0.3,0-0.3,0c2.8,4.9-37.5,11.6-45.7,12.8c-8.3,1.2-17,1.1-25.5,1.4c-8.5,0.3-17.3,1-24.8,3.6s-13.5,7.3-13.4,12.6
					c0,5.3,7.8,10.5,16.2,9.8c-2.2-1.3-2.1-3.6-0.3-5.1s4.8-2.2,7.8-2.5c11-0.9,21.7,4.6,24.3,11.3s-1.9,13.9-9.6,18.8
					c-7.7,4.9-18.2,7.9-28.9,9.7s-21.7,2.6-32.6,4c-11.7,1.5-23.2,3.6-34.3,6.3c-11.6,2.8-23.6,6.9-28.4,13.9l1.2,0.2h275.7
					c1-1.1,2.1-2.2,3.3-3.3L231.9,698.2L231.9,698.2z"/>
				<path d="M352,629.6h-45.4C318.6,631.3,335.2,631.3,352,629.6z"/>
				<path d="M231.3,623.4c-4.3,14.6-10.1,35.7-14.3,51.4c-2.1,8,4.4,15.5,15,19.1v-69C231.6,624.4,231.4,623.9,231.3,623.4z"/>
				<path d="M579,687.4c-11.1-2.7-22.6-4.8-34.3-6.3c-10.9-1.4-21.9-2.2-32.6-4c-10.7-1.8-21.2-4.8-28.9-9.7
					c-7.7-4.9-12.2-12.1-9.6-18.8s13.3-12.1,24.3-11.3c3,0.2,6,1,7.8,2.5s1.9,3.8-0.3,5.1c8.5,0.7,16.2-4.5,16.2-9.8
					s-6-10.1-13.4-12.6c-7.5-2.6-16.2-3.3-24.8-3.6c-8.5-0.3-17.2-0.2-25.5-1.4c-7.1-1-38.1-6.1-44.7-10.7v15.3
					c0,0.6-0.1,1.2-0.3,1.7c25.8,25.7,20.6,74.3,20.6,74.3H315.8c-1.2,1.2-2.3,2.3-3.3,3.3h18.1h275.7l1.2-0.2
					C602.6,694.2,590.6,690.2,579,687.4z"/>
				<path d="M401.4,629.6H352c-16.9,1.7-33.5,1.7-45.4,0H243c-5,0-9.4-2-11.1-4.7v69v4.3h83.9h117.9c0,0,5.2-48.6-20.6-74.3
					C411.8,627.1,407.1,629.6,401.4,629.6z"/>
				<path d="M243.1,629.6h63.6H352h49.4C407.1,629.6,238,629.6,243.1,629.6z"/>
			</g>
			<path d="M433,701.5H203.4c-4.3,0-7.9-3.6-7.9-7.9v-56.1c0-4.3,3.6-7.9,7.9-7.9H433c4.3,0,7.9,3.6,7.9,7.9v56.1
				C440.9,697.9,437.3,701.5,433,701.5z"/>
		</g>
		<g>
			<g>
				<path class="st5" d="M352,630.7h-43.4C320,632.3,335.9,632.2,352,630.7z"/>
				<path class="st5" d="M569.2,683.1c-10.6-2.5-21.6-4.4-32.8-5.7c-10.4-1.2-21-2-31.2-3.6c-10.2-1.7-20.3-4.3-27.6-8.8
					s-11.6-11-9.2-17s12.7-11,23.2-10.2c2.9,0.2,5.8,0.9,7.5,2.2s1.8,3.5-0.3,4.6c8.1,0.6,15.5-4.1,15.5-8.9s-5.7-9.1-12.9-11.4
					c-7.2-2.3-15.5-3-23.7-3.2c-8.2-0.3-16.4-0.2-24.4-1.3c-6.8-0.9-36.5-5.6-42.7-9.7V624c0,0.5-0.1,1.1-0.3,1.6
					c-1.2,3-5.8,5.2-11.1,5.2H352c-16.1,1.5-32,1.6-43.4,0h-60.9c-4.8,0-9-1.8-10.7-4.3c-0.3-0.4-0.5-0.9-0.6-1.4
					c-0.1-0.4-0.2-0.7-0.2-1.1v-15.8c-0.2,0-0.3,0-0.3,0c2.7,4.5-35.9,10.5-43.8,11.6c-8,1.1-16.2,1-24.4,1.3s-16.5,0.9-23.7,3.2
					s-12.9,6.6-12.9,11.4c0,4.8,7.4,9.5,15.5,8.9c-2.1-1.1-2-3.3-0.3-4.6s4.6-2,7.5-2.2c10.5-0.8,20.8,4.2,23.2,10.2
					c2.5,6-1.8,12.6-9.2,17c-7.4,4.5-17.4,7.1-27.6,8.8c-10.2,1.7-20.8,2.4-31.2,3.6c-11.2,1.3-22.2,3.3-32.8,5.7
					c-11.1,2.6-22.5,6.2-27.2,12.6l1.1,0.2H314h17.3h263.9l1.1-0.2C591.8,689.4,580.3,685.7,569.2,683.1z"/>
				<path class="st5" d="M247.7,630.7h60.9H352h47.3C404.7,630.7,242.9,630.7,247.7,630.7z"/>
			</g>
			<path class="st6" d="M440.4,712.3H220.3c-4,0-7.4-3.3-7.4-7.4v-50.5c0-4,3.3-7.4,7.4-7.4h220.1c4,0,7.4,3.3,7.4,7.4v50.5
				C447.7,709,444.4,712.3,440.4,712.3z"/>
			<text transform="matrix(1 0 0 1 247.1786 678.6325)" class="st7 st8 st9">Trophies</text>
			<text transform="matrix(1 0 0 1 247.1786 678.6325)" class="st10 st8 st9">Trophies</text>
		</g>
	</g>
	<g>
		<g>
			<path class="st7" d="M185.6,690.5c15.5-19.5,30.9-39,46.4-58.6c1.2-1.5-0.9-3.6-2.1-2.1c-15.5,19.5-30.9,39-46.4,58.6
				C182.3,689.9,184.4,692,185.6,690.5L185.6,690.5z"/>
		</g>
	</g>
	<g>
		<g>
			<path class="st7" d="M158.6,692.1c18.6-19.7,35.8-40.7,51.6-62.7c1.1-1.6-1.5-3.1-2.6-1.5c-15.6,21.8-32.7,42.6-51.1,62.1
				C155.2,691.3,157.3,693.5,158.6,692.1L158.6,692.1z"/>
		</g>
	</g>
	<g>
		<g>
			<path class="st7" d="M136.5,692.6c4.8-5.7,9.6-11.5,14.4-17.2c1.2-1.5-0.9-3.6-2.1-2.1c-4.8,5.7-9.6,11.5-14.4,17.2
				C133.2,692,135.3,694.1,136.5,692.6L136.5,692.6z"/>
		</g>
	</g>
	<g>
		<g>
			<path class="st7" d="M128,689.2c3.4-1.7,6.4-3.9,9-6.7c1.3-1.4-0.8-3.6-2.1-2.1c-2.4,2.6-5.2,4.7-8.4,6.3
				C124.8,687.5,126.3,690.1,128,689.2L128,689.2z"/>
		</g>
	</g>
	<g>
		<g>
			<path class="st7" d="M433.6,695.5c9.5-9.8,18-20.3,25.6-31.7c1.1-1.6-1.5-3.1-2.6-1.5c-7.4,11.1-15.8,21.5-25.1,31.1
				C430.1,694.8,432.2,696.9,433.6,695.5L433.6,695.5z"/>
		</g>
	</g>
	<g>
		<g>
			<path class="st7" d="M467.2,693.2c4.5-5,9-10,13.5-15c1.3-1.4-0.8-3.6-2.1-2.1c-4.5,5-9,10-13.5,15
				C463.8,692.5,465.9,694.6,467.2,693.2L467.2,693.2z"/>
		</g>
	</g>
	<g>
		<g>
			<path class="st7" d="M502.8,694.8c3.3-2.5,5.7-5.8,6.9-9.8c0.6-1.9-2.3-2.6-2.9-0.8c-1,3.2-2.8,6-5.5,8
				C499.8,693.4,501.3,696,502.8,694.8L502.8,694.8z"/>
		</g>
	</g>
	<g>
		<g>
			<path class="st7" d="M451.2,628.3c-7.4,10.6-14.8,21.1-22.2,31.7c-1.1,1.6,1.5,3.1,2.6,1.5c7.4-10.6,14.8-21.1,22.2-31.7
				C454.9,628.2,452.3,626.7,451.2,628.3L451.2,628.3z"/>
		</g>
	</g>
	<g>
		<g>
			<path class="st7" d="M433.6,627c-3.7,7.4-8.1,14.3-13.3,20.7c-1.2,1.5,0.9,3.6,2.1,2.1c5.4-6.6,10-13.7,13.8-21.4
				C437,626.8,434.4,625.2,433.6,627L433.6,627z"/>
		</g>
	</g>
	<g>
		<g>
			<path class="st7" d="M145.1,641.1c1.9,0,1.9-3,0-3C143.2,638.1,143.2,641.1,145.1,641.1L145.1,641.1z"/>
		</g>
	</g>
	<g>
		<g>
			<polygon class="st11" points="547.9,592.6 118.3,588.1 122.3,164.1 551.9,168.6 			"/>
		</g>
		<rect x="104.7" y="143.1" class="st12" width="429" height="429"/>
	</g>
</g>
<g id="Ebene_3">
</g>
<g>
	<ellipse class="st4" cx="546.7" cy="752.6" rx="7.2" ry="8.2"/>
	<g>
		<path class="st13" d="M551.2,747.4c0.4,0.8,0.6,1.6,0.6,2.6c0,3-2.4,5.4-5.4,5.4c-0.4,0-0.7,0-1-0.1l4.9-8.8l0.1-0.1l-0.3,0
			c0,0,0,0,0,0c-0.2,0-0.3,0-0.5-0.1c-0.1-0.1-0.3-0.1-0.4-0.2c0,0,0,0,0,0c0,0-0.3-0.3-0.4-0.3c-0.1-0.1-0.1-0.2-0.1-0.2
			c0,0-0.1-0.1-0.1-0.2c0,0-0.1-0.1-0.1-0.2c-0.1-0.1-0.1-0.2-0.1-0.3c0,0-0.1,0-0.1,0l0,0l-5.2,9.2c-0.4-0.3-0.7-0.6-0.9-1
			c0.2,0.4,0.5,0.8,0.9,1.2l0,0c0.1,0.1,0.2,0.2,0.3,0.3c0.1,0,0.1,0.1,0.2,0.2c0.1,0.1,0.2,0.1,0.3,0.2c0.1,0.1,0.2,0.1,0.3,0.2
			c0.4,0.2,0.9,0.3,1.3,0.5c0.1,0,0.1,0.1,0.2,0.1c0.5,0.1,0.9,0.2,1.4,0.2c2.8-0.1,5.2-2.4,5.2-5.2
			C552.2,749.4,551.8,748.3,551.2,747.4z"/>
		<path class="st14" d="M550.5,746.3L550.5,746.3l-0.1,0.1l-4.9,8.8c0.3,0.1,0.7,0.1,1,0.1c3,0,5.4-2.4,5.4-5.4
			c0-0.9-0.2-1.8-0.6-2.6C551,747,550.7,746.6,550.5,746.3z"/>
		<path class="st14" d="M543,754.1l5.2-9.2c-0.5-0.2-1.1-0.3-1.7-0.3c-3,0-5.4,2.4-5.4,5.4c0,1.2,0.4,2.2,1,3.1
			C542.3,753.4,542.6,753.8,543,754.1z"/>
	</g>
</g>
<g>
	<ellipse class="st4" cx="90.9" cy="752.6" rx="7.2" ry="8.2"/>
	<g>
		<path class="st13" d="M95.5,747.4c0.4,0.8,0.6,1.6,0.6,2.6c0,3-2.4,5.4-5.4,5.4c-0.4,0-0.7,0-1-0.1l4.9-8.8l0.1-0.1l-0.3,0
			c0,0,0,0,0,0c-0.2,0-0.3,0-0.5-0.1c-0.1-0.1-0.3-0.1-0.4-0.2c0,0,0,0,0,0c0,0-0.3-0.3-0.4-0.3c-0.1-0.1-0.1-0.2-0.1-0.2
			c0,0-0.1-0.1-0.1-0.2c0,0-0.1-0.1-0.1-0.2c-0.1-0.1-0.1-0.2-0.1-0.3c0,0-0.1,0-0.1,0l0,0l-5.2,9.2c-0.4-0.3-0.7-0.6-0.9-1
			c0.2,0.4,0.5,0.8,0.9,1.2l0,0c0.1,0.1,0.2,0.2,0.3,0.3c0.1,0,0.1,0.1,0.2,0.2c0.1,0.1,0.2,0.1,0.3,0.2c0.1,0.1,0.2,0.1,0.3,0.2
			c0.4,0.2,0.9,0.3,1.3,0.5c0.1,0,0.1,0.1,0.2,0.1c0.5,0.1,0.9,0.2,1.4,0.2c2.8-0.1,5.2-2.4,5.2-5.2
			C96.5,749.4,96.1,748.3,95.5,747.4z"/>
		<path class="st14" d="M94.7,746.3L94.7,746.3l-0.1,0.1l-4.9,8.8c0.3,0.1,0.7,0.1,1,0.1c3,0,5.4-2.4,5.4-5.4c0-0.9-0.2-1.8-0.6-2.6
			C95.3,747,95,746.6,94.7,746.3z"/>
		<path class="st14" d="M87.3,754.1l5.2-9.2c-0.5-0.2-1.1-0.3-1.7-0.3c-3,0-5.4,2.4-5.4,5.4c0,1.2,0.4,2.2,1,3.1
			C86.6,753.4,86.9,753.8,87.3,754.1z"/>
	</g>
</g>
</svg>
