<?xml version="1.0" encoding="utf-8"?>
<!-- Generator: Adobe Illustrator 19.1.0, SVG Export Plug-In . SVG Version: 6.00 Build 0)  -->
<svg version="1.1" id="Ebene_1" xmlns="http://www.w3.org/2000/svg" xmlns:xlink="http://www.w3.org/1999/xlink" x="0px" y="0px"
	 viewBox="-23.9 -26.2 687 1195.8" style="enable-background:new -23.9 -26.2 687 1195.8;" xml:space="preserve">
<style type="text/css">
	.st0{fill:#754321;}
	.st1{fill:#965B32;stroke:#C69C6D;stroke-width:5;stroke-miterlimit:10;}
	.st2{fill:none;stroke:#5B2A10;stroke-width:12;stroke-miterlimit:10;}
	.st3{fill:#5B2A10;}
	.st4{fill:#828282;}
	.st5{fill:#CCCCCC;}
	.st6{fill:#FFFFFF;}
	.st7{fill:#B7B7B7;}
	.st8{opacity:0.3;}
	.st9{fill:#E2BD86;}
	.st10{fill:#A66748;}
	.st11{opacity:0.3;enable-background:new    ;}
	.st12{fill:#808080;}
	.st13{fill:#AFAFAF;}
</style>
<g id="Ebene_2">
</g>
<g id="Ebene_3">
</g>
<g id="Ebene_4_1_">
	<g>
		<g>
			<path class="st0" d="M-17.1-24.9v1181.6h488.2c2.7-2.4,5.6-3.7,8.4-3.7c3,0,6,1.3,8.7,3.7h166.6V-24.9H-17.1z"/>
			<rect x="68.3" y="229.4" class="st1" width="516.8" height="495"/>
		</g>
		<path class="st2" d="M-15.3,140.2c9.3,0.1,18.8-3.9,26.1-8.9c13.6-11,17.8-28,16.8-45c-2.1-24-13.6-47-5.2-71
			c4.2-12,19.9-12,30.4-8c17.8,8,35.7,15,55.6,11c19.9-5,33.6-22,37.6-41.4"/>
		<path class="st2" d="M657.9,142.1c-15-2.8-27.6-9.8-35-21.8c-5.2-10-7.3-21-6.3-32c2.1-25,17.8-50,4.2-74c-5.2-9-17.8-10-27.3-7
			c-24.1,8-49.3,20-74.5,11c-17.8-7-30.4-22-34.6-40"/>
		<g>
			<g>
				<path class="st3" d="M484.4-17.7c-0.4,1.6,0.1,2.8,1.6,3.7c0.6,0.4,1.8,0.2,2.2-0.5c1-2.2,2-4.5,2.8-6.8c-1-0.1-2.1-0.3-3-0.4
					c0.2,2.2,0.4,4.5,0.6,6.7c0.2,1.9,2.9,1.9,3.1,0c0.2-1.6,0.3-3.2,0.5-4.8c0.2-1.7-2.7-2.1-3-0.4c-0.2,1.2-0.5,2.4-0.7,3.6
					c-0.4,1.9,2.5,2.7,3,0.8c0.5-2.2,1.4-4.3,2.4-6.4c0.9-1.7-1.8-3.2-2.7-1.5c-1.3,2.3-2.1,4.6-2.7,7.1c1,0.3,2,0.5,3,0.8
					c0.2-1.2,0.5-2.4,0.7-3.6c-1-0.1-2.1-0.3-3-0.4c-0.2,1.6-0.3,3.2-0.5,4.8c1,0,2.1,0,3.1,0c-0.2-2.2-0.4-4.5-0.6-6.7
					c-0.2-1.7-2.5-2.1-3-0.4c-0.7,2.1-1.6,4.1-2.5,6.1c0.7-0.2,1.5-0.4,2.2-0.5c0-0.1-0.1-0.2-0.1-0.3
					C487.8-18.8,484.8-19.6,484.4-17.7L484.4-17.7z"/>
			</g>
		</g>
		<g>
			<g>
				<path class="st3" d="M564.3,25.3c0.3-2.1,13.9-2.3,16.1-2.4c4.8-0.2,9.8-0.1,14.6,0.5c8.7,1.1,23.7,4.3,24.9,14.6
					c0.2,1.9,3.4,1.9,3.1,0c-1.4-12.1-17-16.2-27.6-17.6c-7.8-1-15.6-0.7-23.4,0.2c-3.7,0.4-10.3,0.1-10.8,4.7
					C560.9,27.2,564,27.2,564.3,25.3L564.3,25.3z"/>
			</g>
		</g>
		<g>
			<g>
				<path class="st3" d="M537.7,21.1c-0.1,0.1-0.2,0.2-0.3,0.4c-0.5,0.5-0.6,1.2-0.2,1.8c2.3,4.2,13,3.7,17.1,3.7
					c8.3,0,16.4-1.5,24.6-2.4c13.2-1.5,35.7-2.2,42.1,12c0.8,1.8,3.5,0.2,2.7-1.5c-5.1-11.3-21.3-14.2-32.8-14.3
					c-7.9,0-15.6,1.3-23.4,2.2c-4.4,0.5-8.8,1-13.2,1c-1.9,0-3.8,0-5.6-0.2c-1.4-0.1-8-0.4-8.8-2c-0.1,0.6-0.2,1.2-0.2,1.8
					c0.1-0.1,0.2-0.2,0.3-0.4C541.3,21.8,539.1,19.7,537.7,21.1L537.7,21.1z"/>
			</g>
		</g>
		<g>
			<g>
				<path class="st3" d="M574.9,16.6c-1.3,1.7-1.7,3-1.7,5.1c0,1,1,1.6,2,1.4c4.6-0.9,9.2-1.7,13.9-2.4c1.7-0.3,1.4-2.5,0-2.9
					c-3.7-1.2-7.2-1.6-11.1-1.4c-2,0.1-2,3.1,0,3c5.9-0.2,11.7,0.1,17.5,0.7c0-1,0-2,0-3c-6.1,0-12.3,0-18.4,0c0,1,0,2,0,3
					c6.9-0.2,13.8-0.5,20.7-0.7c2-0.1,2-3,0-3c-5,0-10-0.1-15-0.1c-1.7,0-2.2,2.7-0.4,2.9c6,1,12,1.9,18,2.9
					c5.9,0.9,11.8,1.6,17,4.5c0.4-0.9,0.8-1.8,1.3-2.7c-9.3-1.4-18.3-4-26.8-7.9c-0.4,0.9-0.8,1.8-1.3,2.7
					c10.3,1.4,19.9,4.7,28.8,10c0.4-0.9,0.8-1.8,1.3-2.7c-2.7-0.6-5.5-1.1-8.2-1.7c-1.2-0.3-2.6,1.1-1.8,2.2c2,2.5,4.3,3.7,7.7,3.6
					c0.9,0,1.9-0.9,1.5-1.9c-4.1-11.4-21.1-14.9-31.9-17.2c-0.3,1-0.5,1.9-0.8,2.9c10.5,2,20.7,5.1,30.3,9.6
					c0.4-0.9,0.8-1.8,1.3-2.7c-8.4-1.6-16.7-3.6-24.9-6c-0.3,1-0.5,1.9-0.8,2.9c7.5,1.6,14.9,2.5,22.5,2.6c1.8,0,2.2-2.6,0.4-2.9
					c-4.3-0.9-8.6-1.8-13-2.7c-2-0.4-2.7,2.3-0.8,2.9c4.3,1.4,8.4,1.7,12.8,1.1c1.4-0.2,1.5-2.2,0.4-2.7c-3.7-1.8-7.2-2.7-11.3-3.1
					c-1.8-0.1-2.1,2.6-0.4,2.9c4,0.9,7.9,1.2,12.1,0.9c1.6-0.1,2.1-1.9,0.8-2.8c-4.7-3.3-10.4-3.8-16.1-3
					c-4.8,0.7-13.5,1.6-16.5,5.9c-0.5,0.8,0,2,0.9,2.2c5.4,1.3,10.4,1.1,15.6-0.5c2-0.6,1.2-3.2-0.8-2.9c-4,0.6-7.5,0.2-11.2-1.3
					c0,0.9,0,1.7,0,2.6c4.6-2.4,9.1-3.3,14.5-2.9c1.6,0.1,2.1-2.1,0.8-2.8c-1.8-1-3.4-1.6-5.5-2.1c-0.3,1-0.5,1.9-0.8,2.9
					c3.6,0.8,6.9,1.9,10.3,3.4c1.8,0.8,3.4-1.6,1.6-2.6c-1.2-0.7-2.4-1.3-3.6-2c-0.5,0.9-1,1.7-1.6,2.6c6.2,3,10.8,7.4,13.9,13.4
					c0.6,1.2,2.6,0.9,2.8-0.4c2.1-8.6-5.1-15.6-14.3-13.6c-1.5,0.3-1.6,2.7,0,2.9c1.2,0.1,13.3,1.2,13.1,2.5c-0.3,1.9,2.7,2.7,3,0.8
					c1.2-6.3-11.3-5.7-15.3-6.2c0,1,0,1.9,0,2.9c6.5-1.5,11.9,3.6,10.4,9.9c0.9-0.1,1.9-0.2,2.8-0.4c-3.3-6.4-8.3-11.3-15-14.5
					c-1.8-0.9-3.4,1.6-1.6,2.6c1.2,0.7,2.4,1.3,3.6,2c0.5-0.9,1-1.7,1.6-2.6c-3.6-1.6-7.1-2.8-11-3.7c-2-0.4-2.8,2.4-0.8,2.9
					c1.7,0.3,3.3,0.9,4.6,1.8c0.3-0.9,0.5-1.9,0.8-2.8c-5.8-0.4-11,0.7-16.1,3.3c-0.9,0.5-1.2,2.1,0,2.6c4.5,1.8,8.8,2.3,13.6,1.6
					c-0.3-1-0.5-1.9-0.8-2.9c-4.7,1.5-9.1,1.6-14,0.5c0.3,0.7,0.6,1.5,0.9,2.2c2.1-3,10.8-4,14.4-4.5c4.9-0.7,9.7-0.3,13.8,2.6
					c0.3-0.9,0.5-1.9,0.8-2.8c-3.8,0.2-7.5,0-11.2-0.8c-0.1,1-0.3,2-0.4,2.9c3.6,0.3,6.5,1.1,9.8,2.6c0.1-0.9,0.2-1.8,0.4-2.7
					c-3.9,0.5-7.5,0.1-11.1-1.1c-0.3,1-0.5,1.9-0.8,2.9c4.3,0.9,8.6,1.8,13,2.7c0.1-1,0.3-2,0.4-2.9c-7.3-0.1-14.5-0.9-21.6-2.5
					c-2-0.4-2.8,2.3-0.8,2.9c8.2,2.4,16.5,4.4,24.9,6c1.7,0.3,2.9-2,1.3-2.7c-9.9-4.5-20.3-7.8-31.1-9.9c-2-0.4-2.8,2.5-0.8,2.9
					c9.4,2,26.1,5.1,29.7,15.1c0.5-0.6,1-1.3,1.5-1.9c-1.7-0.7-3.3-1.4-4.9-2.1c-0.6,0.7-1.2,1.5-1.8,2.2c2.7,0.6,5.5,1.1,8.2,1.7
					c1.8,0.4,2.7-1.8,1.3-2.7c-9-5.4-18.9-8.9-29.5-10.3c-1.6-0.2-2.9,1.9-1.3,2.7c8.8,4,18,6.7,27.5,8.2c1.7,0.3,2.8-1.8,1.3-2.7
					c-4.8-2.7-10.2-3.6-15.7-4.5c-6.6-1.1-13.3-2.2-19.9-3.2c-0.1,1-0.3,2-0.4,2.9c5,0,10,0.1,15,0.1c0-1,0-2,0-3
					c-6.9,0.2-13.8,0.5-20.7,0.7c-2,0.1-2,3,0,3c6.1,0,12.3,0,18.4,0c2.1,0,2-2.8,0-3c-5.8-0.6-11.7-0.8-17.5-0.7c0,1,0,2,0,3
					c3.6-0.2,6.9,0.2,10.3,1.3c0-1,0-1.9,0-2.9c-4.6,0.7-9.2,1.5-13.9,2.4c0.6,0.5,1.4,1,2,1.4c0.4-1.2,0.8-2.4,1.3-3.6
					C578.7,16.6,576,15.1,574.9,16.6L574.9,16.6z"/>
			</g>
		</g>
		<g>
			<g>
				<path class="st3" d="M659.5,133.1c-5.8-2.8-11.4-5.7-17.2-8.5c-1.7-0.8-3,1.1-1.9,2.4c4.5,5.1,11.3,6.5,18,7.7
					c2,0.4,2.8-2.5,0.8-2.9c-6.1-1.1-12.4-2.2-16.5-6.9c-0.6,0.8-1.3,1.6-1.9,2.4c5.8,2.8,11.4,5.7,17.2,8.5
					C659.7,136.5,661.3,133.9,659.5,133.1L659.5,133.1z"/>
			</g>
		</g>
		<g>
			<g>
				<path class="st3" d="M658.9,131.8c-4.6-0.9-9.2-1.8-13.9-2.8c-2-0.4-2.7,2.2-0.8,2.9c4.4,1.7,8.8,2.5,13.6,2.5
					c1.7,0,2.2-2.7,0.4-2.9c-2.9-0.4-5.9-0.9-8.8-1.3c-2-0.3-2.8,2.3-0.8,2.9c2.8,0.9,5.6,1.4,8.5,1.8c-0.1-1-0.3-2-0.4-2.9
					c-2.4,0.4-4.9,0.7-7.3,1.1c-1.4,0.2-1.6,2.2-0.4,2.7c2.8,1.3,5.7,2.3,8.8,2.9c1.8,0.3,2.7-1.8,1.3-2.7c-6.5-4.1-18.6-3.6-21-12
					c-0.8,0.5-1.8,1-2.6,1.5c6.7,5.4,14.5,9.1,23.1,10.9c2,0.4,2.8-2.5,0.8-2.9c-8.1-1.7-15.3-5.1-21.7-10.2c-1.2-0.9-3-0.1-2.6,1.5
					c2.8,9.9,14.9,9.1,22.5,13.8c0.4-0.9,0.8-1.8,1.3-2.7c-2.8-0.6-5.5-1.4-8.1-2.6c-0.1,0.9-0.2,1.8-0.4,2.7
					c2.4-0.4,4.9-0.7,7.3-1.1c1.9-0.3,1.2-2.8-0.4-2.9c-2.6-0.3-5.1-0.9-7.7-1.7c-0.3,1-0.5,1.9-0.8,2.9c2.9,0.4,5.9,0.9,8.8,1.3
					c0.1-1,0.3-2,0.4-2.9c-4.5,0-8.6-0.8-12.8-2.4c-0.3,1-0.5,1.9-0.8,2.9c4.6,0.9,9.2,1.8,13.9,2.8
					C660,135,660.9,132.1,658.9,131.8L658.9,131.8z"/>
			</g>
		</g>
		<g>
			<g>
				<path class="st3" d="M627.6,123.4c6.2,6.6,13.9,11.4,22.6,14.3c1.8,0.6,2.5-1.8,1.3-2.7c-7.8-5.5-15.4-10.9-23.2-16.4
					c-1.5-1-3.3,1.2-1.9,2.4c8.8,7.2,19.2,11.5,30.8,12.7c1.7,0.2,2-2.1,0.8-2.8c-8.3-5.3-17-9.7-26.1-13.5
					c-1.9-0.8-3.3,1.5-1.6,2.6c8.3,5.6,18,8.4,27.7,11c0.3-1,0.5-1.9,0.8-2.9c-8.4-2.1-16.6-4.4-24.8-6.9c-1.3-0.4-2.6,1.1-1.8,2.2
					c6.3,8.1,16.9,7.7,26,11c1.9,0.7,2.7-2.2,0.8-2.9c-8-3-18.6-2.5-24.1-9.7c-0.6,0.7-1.2,1.5-1.8,2.2c8.2,2.6,16.5,4.9,24.8,6.9
					c2,0.5,2.8-2.4,0.8-2.9c-9.4-2.6-18.9-5.3-27-10.7c-0.5,0.9-1,1.7-1.6,2.6c9.1,3.7,17.8,8.2,26.1,13.5c0.3-0.9,0.5-1.9,0.8-2.8
					c-10.7-1.1-20.5-5.2-28.6-11.8c-0.6,0.8-1.3,1.6-1.9,2.4c7.8,5.5,15.4,10.9,23.2,16.4c0.4-0.9,0.8-1.8,1.3-2.7
					c-8.3-2.7-15.3-7.3-21.2-13.5C628.5,119.9,626.3,122,627.6,123.4L627.6,123.4z"/>
			</g>
		</g>
		<g>
			<g>
				<path class="st3" d="M598.7,16.2c2.5,0.9,5.2,1.4,8,1.4c2,0,2-2.9,0-3c-3.3-0.1-6.3-1.2-8.9-3.1c-0.6,0.8-1.3,1.6-1.9,2.4
					c2.6,1.2,5.2,2.2,8,3c0.1-1,0.3-2,0.4-2.9c-0.5,0.1-0.9,0.1-1.5-0.1c0.2,0.7,0.4,1.4,0.5,2.1c0.2-0.5,0.6-0.8,1.2-1
					c1.9-0.7,1-3.6-0.8-2.9c-1.4,0.5-2.3,1.2-3,2.4c-0.4,0.6-0.2,1.7,0.5,2.1c1,0.4,1.9,0.7,3,0.5c1.7-0.2,2.2-2.4,0.4-2.9
					c-2.5-0.7-4.9-1.6-7.2-2.7c-1.5-0.7-3.4,1.2-1.9,2.4c3.3,2.5,6.9,3.9,11.1,4c0-1,0-2,0-3c-2.5,0-4.8-0.4-7.1-1.2
					C597.6,12.6,596.8,15.5,598.7,16.2L598.7,16.2z"/>
			</g>
		</g>
		<g>
			<g>
				<path class="st4" d="M-18,134c0-52.9,0-105.8,0-158.7c0-1.9-3.1-1.9-3.1,0c0,52.9,0,105.8,0,158.7C-21.2,135.9-18,135.9-18,134
					L-18,134z"/>
			</g>
		</g>
		<g>
			<g>
				<path class="st4" d="M-19.6-23.2c53.4,0,106.9,0,160.3,0c2,0,2-3,0-3c-53.4,0-106.9,0-160.3,0C-21.6-26.2-21.6-23.2-19.6-23.2
					L-19.6-23.2z"/>
			</g>
		</g>
		<g>
			<g>
				<path class="st4" d="M-20.3,135.4c1.4,2,3.5,3.5,5.9,4c2,0.4,2.8-2.5,0.8-2.9c-1.7-0.4-3-1.2-4-2.6
					C-18.7,132.3-21.4,133.8-20.3,135.4L-20.3,135.4z"/>
			</g>
		</g>
		<g>
			<g>
				<path class="st4" d="M659.8,137.1c2-1.6,3.1-4,3.1-6.5c0-1.9-3.1-1.9-3.1,0c0,1.8-0.8,3.2-2.2,4.4
					C656,136.2,658.3,138.4,659.8,137.1L659.8,137.1z"/>
			</g>
		</g>
		<g>
			<g>
				<path class="st4" d="M663.1,134c0-52.4,0-104.9,0-157.3c0-1.9-3.1-1.9-3.1,0c0,52.4,0,104.9,0,157.3
					C659.9,135.9,663.1,135.9,663.1,134L663.1,134z"/>
			</g>
		</g>
		<g>
			<g>
				<path class="st4" d="M491.4-22.5c56.3,0,112.4,0,168.7,0c2,0,2-3,0-3c-56.3,0-112.4,0-168.7,0C489.3-25.5,489.3-22.5,491.4-22.5
					L491.4-22.5z"/>
			</g>
		</g>
		<g>
			<g id="XMLID_11_">
				<g>
					<path class="st5" d="M19.7,117.6c-4,7.1-20.5,19.1-31,18.4c-3-0.2-5.7-1.4-7.2-4.2V80.1l39.7,34.7
						C20.7,115.7,20.2,116.7,19.7,117.6z"/>
					<polygon class="st6" points="21.1,114.8 -18.6,80.1 -18.6,49 25.1,87.3 25.1,87.3 					"/>
					<path class="st5" d="M21.1,114.8l4-27.5C25.7,96.9,24.9,106.4,21.1,114.8z"/>
					<path class="st5" d="M25.1,87.3L-18.6,49V31l40.7,35.7c0.3,1.7,0.6,3.4,0.9,5.1C24.1,76.9,24.8,82.1,25.1,87.3z"/>
					<polygon class="st7" points="22.2,66.7 -18.6,31 -18.6,26.4 21.2,61.2 					"/>
					<path class="st5" d="M21.2,61.2l-39.8-34.8v-51.1h61.3l45.9,40.2c-7.1-0.9-14.2-2.9-20.9-5.5c-6.2-2.3-12.2-5.2-18.6-6.6
						c-6.4-1.3-13.4-1-19,2.8c-6,4.1-9.3,11.6-10.8,19.2C17.1,37.2,18.9,49.3,21.2,61.2z"/>
					<path class="st7" d="M99.8,16.1c-1.2,0-2.4,0.1-3.6,0l0,0L49.7-24.7h3.6L99.8,16.1z"/>
					<polygon class="st6" points="96.2,16.1 88.6,15.5 88.6,15.5 42.8,-24.7 49.7,-24.7 					"/>
					<path class="st5" d="M88.6,15.5l7.6,0.6C93.7,16.1,91.2,15.9,88.6,15.5z"/>
					<polygon class="st7" points="99.8,16.1 99.8,16.1 53.3,-24.7 63.8,-24.7 108.9,14.9 					"/>
					<path class="st5" d="M99.8,16.1l9.1-1.1C106,15.6,102.9,15.9,99.8,16.1z"/>
					<path class="st5" d="M108.9,14.9L108.9,14.9L63.8-24.7h8.1l43.3,37.9C113.1,13.9,111,14.5,108.9,14.9z"/>
					<polygon class="st7" points="115.1,13.2 115.1,13.2 71.8,-24.7 107.2,-24.7 134.6,-0.7 					"/>
					<path class="st5" d="M115.1,13.2l19.5-14c-4.8,6-11.1,10.8-18.1,13.5C116,12.9,115.5,13.1,115.1,13.2z"/>
					<path class="st5" d="M134.6-0.7l-27.3-23.9h33.2c1.2,0.5,2.1,1.1,2.6,2c2.9,5.1-4.7,17-7.5,20.7C135.3-1.6,134.9-1.2,134.6-0.7
						z"/>
				</g>
			</g>
		</g>
		<g>
			<g id="XMLID_10_">
				<g>
					<path class="st5" d="M510.9,14.1c-7.6-3.8-20.1-19.4-19.4-29.5c0.2-3.8,2.4-6.7,7.3-8h52.4l-37.4,38.8
						C512.8,15,511.9,14.6,510.9,14.1z"/>
					<polygon class="st6" points="513.9,15.4 551.2,-23.4 583.8,-23.4 542.7,19.2 					"/>
					<path class="st5" d="M513.9,15.4l28.9,3.8C532.7,19.8,522.7,19.1,513.9,15.4z"/>
					<path class="st5" d="M542.7,19.2l41.1-42.6h18.9l-38.3,39.8c-1.8,0.3-3.6,0.6-5.4,0.9C553.7,18.2,548.2,18.9,542.7,19.2z"/>
					<polygon class="st6" points="564.3,16.5 602.7,-23.4 607.5,-23.4 570,15.5 					"/>
					<path class="st7" d="M570,15.5l37.4-38.8H660v59.5l-41.9,43.5c0.9-6.8,3-13.5,5.8-19.9c2.5-5.9,5.6-11.6,6.9-17.8
						c1.4-6.1,1-12.8-2.9-18.1c-4.3-5.7-12.3-8.9-20.2-10.2C595.2,11.5,582.6,13.3,570,15.5z"/>
					<path class="st5" d="M617.6,90.2c0-1.1-0.1-2.3,0-3.4l42.5-44.1v3.4L617.6,90.2z"/>
					<polygon class="st6" points="617.6,86.8 618.1,79.6 660,36.1 660,42.7 					"/>
					<path class="st5" d="M618.1,79.6l-0.6,7.2C617.6,84.4,617.8,82,618.1,79.6z"/>
					<path class="st5" d="M617.6,90.2l1.2,8.7C618.1,96.1,617.7,93.2,617.6,90.2z"/>
					<polygon class="st6" points="618.8,99 617.6,90.2 660,46.2 660,56.1 					"/>
					<path class="st5" d="M618.8,99L660,56.2v7.7l-39.4,40.9C619.9,102.9,619.3,101,618.8,99z"/>
					<path class="st5" d="M620.6,104.8l14.7,18.5c-6.3-4.6-11.3-10.6-14.2-17.2C621,105.7,620.7,105.3,620.6,104.8z"/>
					<polygon class="st6" points="635.3,123.4 620.6,104.8 660,63.9 660,97.7 					"/>
					<path class="st5" d="M635.3,123.4l24.8-25.7v32c-0.4,0.7-0.9,1.3-1.7,1.7c-5.4,2.8-17.8-4.4-21.7-7.1
						C636.2,124,635.8,123.7,635.3,123.4z"/>
				</g>
			</g>
		</g>
		<g id="XMLID_8_" class="st8">
			<g>
				<path d="M107.7,556c-5.5-25.8-2.5-53.1,8.3-77.3c1-2.3,2.2-4.7,1.9-7.2c-0.2-2.4-1.7-4.5-2.9-6.6c-4.9-8.5-6.3-18.8-3.7-28.2
					c17.1,1.9,34.4,2.3,51.6,1.3c-13.3-3.1-26.6-6.3-39.9-9.4c-2.7-0.6-5.7-1.4-7.6-3.4c-1.6-1.7-2.2-4-2.7-6.3
					c-2.2-9.3-4.4-18.7-6.6-28c-0.6-2.5-1.2-5.1-0.7-7.6c0.7-4.1,4-7.3,6-11c5.4-9.8-0.1-23.4-10.9-27.4c5.9-3,11.7-6,17.5-9
					l0.3,0.5c9.9-4,21-4.2,31.7-4.2c116.9,0.8,233.9,7.3,351.1,11.4c22.4,0.8,42.8,1.1,63.2-7.9c-7.9,5.5-7.5,12.5-14.2,19.2
					c5.7,4.3,3.5,7.9,9.1,12.2c-4.7,19.4-6,39.6-3.8,59.4c-7.7-0.3-15.3,0.1-23,1.2c8.3,1.5,16.7,3,25,4.6
					c-4.8,29.2-3.9,59.2,2.9,88c-6.8,0.2-13.8,0.4-20.6,0.6c5.4,2.7,11.1,4.5,17.1,5.4c0.5,23.6,1.2,47.3,1.7,71
					c-13.1-0.6-26.2,0.3-39.1,2.7c13.9,4.1,28.8,5.5,43.2,4c-0.7,3.4-1.5,6.8-2.2,10.2c-107.2-18.3-217.2-21.6-325.4-9.9
					c-48.6,5.3-88.8,13.3-138.2,5.1c2.5-6.4,3.5-13.4,2.7-20.2c12,0.5,23.9-0.1,35.7-1.7c-11.1,0.7-22.5-1.1-32.9-5.2
					c0-6.4,0-12.9,0-19.3c8.4-0.4,16.8-2,24.6-4.8C120.6,558.6,114,557.8,107.7,556z"/>
			</g>
		</g>
		<g id="XMLID_7_">
			<g>
				<path class="st9" d="M98,601.5c2.5-6.4,3.5-13.4,2.7-20.2c12,0.5,23.9-0.1,35.7-1.7c-11.1,0.7-22.5-1.1-32.9-5.2
					c0-6.4,0-12.9,0-19.3c8.4-0.4,16.8-2,24.6-4.8c-6.6,0.3-13.2-0.5-19.5-2.3c-5.5-25.8-2.5-53.1,8.3-77.3c1-2.3,2.2-4.7,1.9-7.2
					c-0.2-2.4-1.7-4.5-2.9-6.6c-4.9-8.5-6.3-18.8-3.7-28.2c17.1,1.9,34.4,2.3,51.6,1.3c-13.3-3.1-26.6-6.3-39.9-9.4
					c-2.7-0.6-5.7-1.4-7.6-3.4c-1.6-1.7-2.2-4-2.7-6.3c-2.2-9.3-4.4-18.7-6.6-28c-0.6-2.5-1.2-5.1-0.7-7.6c0.7-4.1,4-7.3,6-11
					c5.4-9.8-0.1-23.4-10.9-27.4c5.9-3,11.7-6,17.5-9l0.3,0.5c9.9-4,21-4.2,31.7-4.2c116.9,0.8,233.9,7.3,351.1,11.4
					c22.4,0.8,42.8,1.1,63.2-7.9c-7.9,5.5-7.5,12.5-14.2,19.2c5.7,4.3,3.5,7.9,9.1,12.2c-4.7,19.4-6,39.6-3.8,59.4
					c-7.7-0.3-15.3,0.1-23,1.2c8.3,1.5,16.7,3,25,4.6c-4.8,29.2-3.9,59.2,2.9,88c-6.8,0.2-13.8,0.4-20.6,0.6
					c5.4,2.7,11.1,4.5,17.1,5.4c0.5,23.6,1.2,47.3,1.7,71c-13.1-0.6-26.2,0.3-39.1,2.7c13.9,4.1,28.8,5.5,43.2,4
					c-0.7,3.4-1.5,6.8-2.2,10.2c-107.2-18.3-217.2-21.6-325.4-9.9C190.2,601.4,143.6,609.1,98,601.5z"/>
			</g>
		</g>
		<g>
			<g>
				<g>
					<g>
						<g>
							<path class="st10" d="M116,137.7c-0.2,0.1-0.1,0.3,0.5,0.2l0.4-0.3L116,137.7z"/>
							<path class="st10" d="M120.1,138.3c0.7-0.2,1.6-0.4,1-0.7c-0.7,0.3-0.8,0.2-1.7,0.6c-0.6,0-1-0.1-0.9-0.2
								c-0.2,0.1-0.9-0.1-1.3,0.1C118.1,138.4,119.1,138.4,120.1,138.3C120.5,138.2,120.2,138.2,120.1,138.3z"/>
							<path class="st10" d="M180,138.8h-0.4C179.8,138.8,179.9,138.8,180,138.8z"/>
							<path class="st10" d="M217,139c-0.3,0-0.4,0-0.4,0.1C216.9,139.1,217.1,139,217,139z"/>
							<path class="st10" d="M223.4,139.4c-0.1,0-0.2,0-0.4,0C223.2,139.4,223.3,139.4,223.4,139.4z"/>
							<path class="st10" d="M180,138.8l0.9,0.1C181,138.8,180.5,138.8,180,138.8z"/>
							<path class="st10" d="M128.4,137.5c-0.2,0-0.4,0-0.5,0.1C128,137.6,128.2,137.6,128.4,137.5L128.4,137.5z"/>
							<path class="st10" d="M163.7,139.1h-0.3c-0.1,0-0.2,0.1-0.2,0.1L163.7,139.1z"/>
							<path class="st10" d="M151.1,139.1c0.3,0,0.4-0.3,0.5-0.4c-0.2,0.1-0.4,0.2-0.6,0.2C151,139,151,139.1,151.1,139.1z"/>
							<path class="st10" d="M131.3,138.6H131C131,138.7,131.2,138.7,131.3,138.6z"/>
							<path class="st10" d="M172.6,139.2l0.1,0.1C172.7,139.2,172.7,139.2,172.6,139.2z"/>
							<path class="st10" d="M523.5,137C523.5,137.1,523.5,137.1,523.5,137C523.6,137.1,523.6,137,523.5,137z"/>
							<path class="st10" d="M538.1,138.4h-0.2c0,0.1,0,0.1,0,0.2L538.1,138.4z"/>
							<path class="st10" d="M235,139.7L235,139.7C234.7,139.8,234.8,139.8,235,139.7z"/>
							<path class="st10" d="M341.4,139.5c-1.2-0.3,2-0.3,0.1-0.6C341.7,139,339.9,139.4,341.4,139.5z"/>
							<path class="st10" d="M128.7,137.5c0.2,0,0.3,0,0.5,0C129.1,137.5,128.9,137.5,128.7,137.5z"/>
							<path class="st10" d="M341.6,138.9L341.6,138.9h-0.2C341.5,138.9,341.5,138.9,341.6,138.9z"/>
							<path class="st10" d="M261.7,139.6c-0.1,0-0.2-0.1-0.3-0.1C261.5,139.5,261.5,139.5,261.7,139.6z"/>
							<path class="st10" d="M241.8,139.2h0.5C242.1,139.2,241.9,139.2,241.8,139.2z"/>
							<path class="st10" d="M272.1,139.2c0.3,0,0.3,0.1,0.7,0h-0.1C272.5,139.2,272.4,139.2,272.1,139.2z"/>
							<path class="st10" d="M282.8,139.2c-0.1,0-0.1,0-0.2-0.1c-0.1,0-0.2,0-0.3,0L282.8,139.2z"/>
							<path class="st10" d="M490.9,137.2c0.2,0.1,0.4,0.2,0.5,0.3C491.2,137.2,492.8,137.2,490.9,137.2z"/>
							<path class="st10" d="M128.4,137.7c0.1-0.1,0.1-0.1,0.3-0.1c-0.1,0-0.2,0-0.3,0C128.3,137.6,128.3,137.6,128.4,137.7z"/>
							<path class="st10" d="M272.5,136.9h1.7C273.7,137,273.1,136.9,272.5,136.9z"/>
							<path class="st10" d="M413.8,137.2h0.4C414,137.2,413.9,137.2,413.8,137.2z"/>
							<path class="st10" d="M279.2,136.9c0.3,0.1,0.6,0.2,0.9,0.2c0.1,0,0.1,0,0.2-0.1L279.2,136.9z"/>
							<path class="st10" d="M491.4,137.4L491.4,137.4L491.4,137.4z"/>
							<path class="st10" d="M507.6,412.8c-1.6,0-0.7,0.4-1.2,0.6c-1.9,0.1-0.9-0.3-1.6-0.5c-1.3,0.1-2.1,0.4-3,0.4
								c-0.1-0.1-0.2-0.1,0-0.2c-1.3,0.3-3.8,0-5.2,0.4c-0.1,0-0.2-0.1-0.2-0.1c0.2,0.2,0.3,0.4,0.2,0.5c-0.7,0-1.4,0.2-1.7,0
								c0.4,0,0.5-0.1,0.7-0.2l-0.7,0.1c-0.7-0.3,1-0.1,1-0.4c-1.5,0.1-3.3,0.4-4.4,0.3c-0.2-0.3,2.6-0.1,1.2-0.4l1.8,0.1
								c-1.4-0.5,1,0-0.2-0.5c-2.3-0.1-2.6,0.2-4.9,0.1c-0.5,0.2,0.2,0.3-0.3,0.5c-3.3,0.3-2.6-0.9-5-0.4c-0.6,0.2-0.8,0.7-2.6,0.4
								l0.6-0.4c-2.2,0-1.3,0.6-3.7,0.3c0.4-0.2,1.8-0.1,1.5-0.2c-1.6-0.3-1,0.2-2.2,0.2l-0.2-0.3c-2.4,0.1-5,0.3-7.7,0.4
								c0.1-0.1,0.6-0.2,0-0.3c-3.4,0.2-7.1,0-10.4-0.2l-1.3,0.3c-0.3,0-0.5-0.1-0.2-0.2c-1.3-0.1-0.1,0.2-0.6,0.3
								c-0.7,0-0.9-0.2-0.5-0.3c-2.2,0.2-6.3,0.5-8.7,0.2l0.4-0.1c-1.8-0.1-2.1,0.6-3.8,0.3l0.3-0.1c-4-0.1-8.3,0.1-11.3-0.3
								c-0.5,0.4-3.9-0.2-4.2,0.4c-2.3-0.3-1.6-0.4-4.8-0.6c-0.8,0-1.3,0.4-2.3,0.4V413l-1.5,0.3l-0.7-0.4l-0.9,0.1
								c0.4,0,0.8,0.1,0.7,0.2c-1.6,0.1-3.8-0.2-3.8-0.4l-3.7,0.3c0.1-0.1,0.7-0.2,1.2-0.2c-2,0.3-0.3-0.3-2.1,0
								c0.2,0.1-0.1,0.2-0.2,0.2c-0.8-0.2-2.9-0.2-4.4-0.1l0.3-0.2c-2.7-0.1-5.7,0.1-8.7,0.1c1,0.1,0.8,0.5,0,0.5l-0.3-0.3
								c-0.5,0.2,0.9,0.1-0.2,0.4c-1.2,0-0.7-0.4-0.1-0.5l-1.4,0.1c-0.1-0.1,0.2-0.1,0.3-0.3c-0.5,0.2-2.4-0.3-3.1,0l-0.1-0.1
								c-3,0-4.4,0.1-6.8,0.1c0,0.3-1,0.2-1.8,0.4c-1.8-0.1-3.8-0.3-6-0.3c-1.6,0.1-0.4,0.2-1.2,0.4c-0.1-0.3-2.3-0.2-1.2-0.4
								c-2.6,0-3.4,0.1-6.6,0.3c0.3,0.1,0.7,0.2,0.5,0.2c-0.6,0-1.4-0.1-1.3-0.2h0.2c-3.7,0.4-8.6-0.7-11.5-0.2h0.2l-3,0.3
								c-1.4,0,0.8-0.2-0.2-0.4c-3.4,0.4-5.2-0.1-8,0.2c-2.1-0.8-7.5,0.1-10.4-0.4l0.2,0.2c-0.7,0.2-0.8-0.1-1.5-0.1
								c0.1,0.1,0.8,0.2,0.3,0.3c-6.3,0.2-12.9-0.3-19.3-0.4c-2.3,0-1.4,0.9-4.3,0.5l0.8-0.3c-4.7,0.4-9.7,0-14.3,0.3
								c0.3-0.1,0.3-0.2,0.7-0.2c-0.9-0.2-3.6,0-3.7,0.2c-0.7,0-0.2-0.2-0.6-0.3c-0.9-0.1-2.4,0.3-2.9,0.1c-0.1,0,0.3-0.1,0.4-0.1
								c-0.6,0.1-2.9,0-2.4,0.2c-1.8-0.1-3.4,0.1-4.7,0c-0.9,0.3-2.9-0.1-3.3,0.3c0.1-0.5-3-0.4-4.1-0.2c0.4-0.1-0.9-0.1-0.5-0.3
								c-1.3,0-2.4,0.1-2.2,0.3c-2.3-0.5-4.6,0.4-6-0.3c-3.7,0.2-7.1,0.4-10.5,0.5c0.1-0.5,3.7,0,3.6-0.5c-3.1,0.2-5,0.6-8.2,0.5
								c-0.8-0.1,0.4-0.2,0.7-0.3c-3.1,0.2-6.1,0-8.9,0.2c0,0,0.3-0.1,0.6-0.1c-0.5,0-1.3-0.1-1.3,0.1l0.5-0.1
								c0.8,0.3-2.2,0.6-2.3,0.8c0.9-0.6-2.8-0.1-1.3-0.9c-0.3,0-0.8,0.1-0.7,0.3c-0.5,0-0.7-0.1-0.2-0.3c-2,0.1-1.3,0.3-3,0.3
								c0-0.1,0.4-0.1,0.5-0.3c-0.9,0.2-1.8,0.4-3.4,0.3c0.1-0.1-0.1-0.1,0.4-0.1c-2.6,0-4.5,0.5-7.3,0.3c0.8-0.4-0.9-0.1-1.2-0.5
								l-1.6,0.1l0.6,0.2c-1.4,0-2.5,0.3-3.7,0.1l1-0.2l-2.5,0.1l1.5,0.1c-1.4,0.2,0.1,0.5-1.7,0.4c0.3,0-1.4,0-2.1-0.2l0,0
								c-0.6,0.1-1.4,0.2-2.3,0.2c-0.2-0.1,0.2-0.4,0-0.5c-0.6,0.3-3.1,0.1-4,0.4c0.3-0.1,0.3-0.3,0.2-0.3l-0.5,0.3
								c-0.6-0.1-0.7-0.1-0.6-0.3c-1.9,0,0.6,0.5-1.7,0.3c0.2,0,0.1-0.1,0.4-0.1c-2.2-0.1-4.3,0.2-6.4,0c-0.6-0.4,1.8-0.1,1.2-0.4
								c-2.9,0.1-6.2,0.5-9,0.4h0.5c-0.4,0.5-2.1-0.3-3.6,0c0.3,0,0.4-0.3,0.4-0.2c-2-0.1-4,0.1-7,0.3l0.4-0.1
								c-1.2-0.1-3-0.1-4.3-0.1c-0.4,0.1-1,0.1-0.6,0.3c-3.9-0.8-7.3,0.4-10.8-0.2c0.4,0,0.9-0.1,0.6-0.1l-2.9,0.1
								c0.2,0.2,0.4,0.1,1,0.3c-0.4,0.1-1.2,0.2-1.9,0.2c1.4-0.2,0-0.4-0.6-0.5c0.1,0.1-0.1,0.1,0,0.2c-1.6-0.4-0.2,0.5-2.3,0.2
								l0.1-0.1c-0.7,0.1-1.5,0.2-2.3,0.2c-0.3-0.3,0.8-0.1,0.8-0.3c-1.2,0-2.3,0.5-3.4,0.2c0.5-0.1,1.3-0.1,1.7-0.1
								c-1.2-0.3-1.3-0.2-2.2-0.3h0.1l-2-0.1l0.5,0.1c-1.5,0.7-3,0.1-5,0.6c1.9-0.4,0.3-0.3,0.4-0.6c-0.5-0.1-1.3-0.2-1-0.3
								c-0.9,0.2-1.6-0.2-2.9,0.2c-0.1-0.1-1,0-0.8-0.3c-1.3,0.1,0.3,0.2,0.2,0.3c-1.9,0.3-4.4-0.4-7.1,0.1
								c-2.3,0.2-2.7,0.5-4.9,0.7c-0.7-0.2,0.6-0.4,0.6-0.4c-1.2-0.1-2.1-0.1-3.1,0c0.2-0.1,0-0.2-0.3-0.3c-0.9,0-0.6,0.4-1.8,0.2
								c0.2-0.1,0.4-0.3,0.9-0.4c-1,0.1-2.1,0.3-3.1,0.4c-0.3-0.2,0.6-0.3,1-0.4c-1.3,0.1-3.1,0.2-3.6,0.4l0.8,0.1
								c-0.4,0-0.2-0.2,0.1-0.3c1-0.2,1.5,0.1,1.6,0.2l-0.7,0.1c0.8,0.6,3.1-0.1,4.7-0.1l-0.6,0.4l1.6-0.3c0.3,0.1,0.5,0.3-0.2,0.4
								c1.2,0.2,0.9-0.1,2,0.1c0.1,0,0.1,0.1,0,0.1l1-0.1c-0.2,0.1,0.2,0.3-0.5,0.2c2,0.2,3.1-0.3,3.9,0h-0.2
								c2.7-0.1,0.3-0.3,2.3-0.7l1.4,0.8l0.3-0.3c0.3,0,0.8,0,0.7,0.2c1-0.2-0.2-0.1,0.4-0.3c1.4,0.3,3.8-0.1,4.1,0.4
								c0.5-0.2-1.3-0.2,0.1-0.3c0.4,0.5,1.7-0.1,2.9,0.2c-0.4,0.3-1.6,0.1-0.3,0.4c0.7-0.5,2.4,0.1,3.5,0c0-0.4,2.3-0.2,4-0.3
								c-0.1,0.1,3.3,0.2,4.9,0.3v0.1c0.3-0.4,2-0.3,3.3-0.4c0,0.2-0.3,0.3-0.9,0.4h1.2c0.3-0.1,0.6-0.2,1.4-0.2l-0.3,0.3
								c1.6,0,3-0.3,5-0.1c0.1-0.3-1.6-0.7,0.5-0.9c0.1,0.1,0.1,0.4-0.4,0.4c0.2,0,0.6-0.1,1-0.1l-0.8,0.2c0.9,0.1,0.4-0.2,1.2-0.2
								c0,0.2,0.5,0.1,0.4,0.3c-0.2,0-0.6-0.1-0.9,0c0.8,0,1.8,0.2,2.1,0.3c-0.1-0.1,0-0.3,0.6-0.3c1.6,0,0.5,0.2,1.5,0.3
								c0.4-0.1,1.4,0,1.4-0.3c0.4,0,0.5,0.1,0.7,0.2c0.8-0.1,3.7,0,2.8-0.4h-0.2h0.1l0,0l0,0c2.6-0.3,5.5,0.2,8,0v0.1
								c1.6-0.1,3.5-0.1,4.5-0.3c0.4,0,1,0.2,0.8,0.3c1.2-0.1,1.3-0.2,3,0c-1.2,0.2,0.4,0.2-1.3,0.1c1.6,0.1,1.9,0.2,3.6,0
								c-0.5,0.3,1.2,0.3,1.9,0.2l-1-0.2c0.8,0,1.6,0,2.3,0l-0.4,0.3c3.1,0.4,5.7-0.7,8.1,0c0.8-0.2-1.7-0.2-0.9-0.4
								c1.5,0,2.9,0.5,3.4,0.5c2,0.2,1.9-0.5,3.9-0.4c-0.3-0.1-0.5-0.4,1-0.5c1.5,0,1.8,0.5,0.8,0.6c-0.3,0-0.5,0-0.5-0.1
								c-0.4,0-1,0.1-0.5,0.2l0.2-0.1c0.7,0.1,2.7,0.1,2.2,0.3c1-0.1,0.4-0.2-0.3-0.3c1.9,0.2,4.2-0.1,4.5-0.1
								c2.8,0.1,1.3-0.2,3.1-0.3c1,0.2-0.4,0.4,1.5,0.3c1.2,0.1,0.2,0.3-0.2,0.4c1.8-0.2,3.3,0.2,4.2,0.2l-0.9,0.1
								c0.5-0.1,0.9-0.1,1.5-0.1l-0.5-0.2c0.5,0,0.9,0,0.9,0.1c0.5-0.2-0.4-0.4,0.6-0.6c0.7,0.1,2.2-0.1,2.4,0.2
								c-2.2-0.1,0.2,0.3-1.7,0.4c0.4,0,0.8,0,1.4,0c0.1,0-0.1,0.1-0.2,0.1c2.2,0.3,0.9-0.4,3.3-0.3c-0.3,0.2,0.5,0.3,0.8,0.3
								c-0.9,0-0.4-0.3,0.4-0.4c1.5,0.1,1.6-0.1,2.3-0.1l-0.8-0.1c0.3-0.2,1-0.2,2-0.2c0.1,0.1-0.9,0.1-0.5,0.2
								c1.2-0.3,2.5,0.3,4.1,0.1c0.7,0.1,0.1,0.3,0.7,0.4c1.8-0.2,1.9,0.2,3.7,0.1c-0.5-0.2-0.6-0.2,0.6-0.4l-3,0.2l1.9-0.3
								c-0.9,0-1.9,0.2-2.4,0.1c0.9-0.2,0.8-0.1,0.4-0.3c1.3,0.4,2.4-0.2,3.9,0v0.6c2.1,0.3,3.8-0.3,6.6-0.2l-0.9-0.1
								c0.4-0.2,1.7,0,2.6-0.1c-0.1,0.2,0.5,0.3,0.8,0.4c0-0.1,2,0,2.3-0.4l1.3,0.3c2.2,0.1,2.5-0.6,4.7-0.5
								c-0.6,0.2,0.3,0.4-1.2,0.5c0.7,0,1.4,0,1.4-0.1c0.4,0.1,2-0.3,2.6-0.1c0.3-0.1,0.4-0.3,1.3-0.3c0.1,0,0,0.1,0,0.1
								c0-0.1,1.3-0.1,0.5-0.4c2.2,0.6,6.2,0,8.2,0.5c1.6-0.1,3.5-0.1,4.9-0.1c-0.1,0.1,0,0.1-0.3,0.1c2,0.2,1.3-0.6,3.5-0.4
								c1.2,0.3-1.2,0.2-0.5,0.3c0.3,0.6,2.7-0.1,4.2,0.3h-0.3c1.2,0.2,2.8-0.2,4.7-0.2c0,0-0.1,0.1,0,0.1c1.3-0.3,3.8-0.4,5.6-0.5
								c-0.5,0.3-0.8,0.1-0.5,0.4c0.8,0-0.2-0.4,1.4-0.5c0.5,0.1,1.7,0.3,1.9,0.5h-1.6c0.7,0.4,2,0,2.8,0l-0.1,0.2
								c2.3-0.1,2.4-0.4,4.9-0.4l-0.2-0.1c1.4-0.4,1.2,0.2,2.5-0.1l0.4,0.4c0.9-0.1,3.1-0.4,4.8-0.5c-0.9,0.3-2.8,0.4-4,0.6
								c0.9,0,3,0,3.6-0.2c-0.3,0-0.8,0.1-1.2,0.1c1.2-0.3,2.5-0.5,4.4-0.5c-0.3,0.8,4.7,0.2,6,0.8c3.1-0.3,6.3,0.1,10,0.1
								c-1.4-0.6,1,0,0.8-0.6c0.8,0,1.2,0,1.3,0l2.6,0.4c0.6,0.2-0.8,0.1-0.7,0.3c1.9,0,0.8,0.3,2,0.4c-0.2-0.2,0.6-0.3,1.8-0.2
								l-1.5-0.3c2.6-0.3,2.3,0.5,4.9,0.2l-0.8,0.2c1.4-0.1,5,0,6.4-0.5c0.2,0.1,0.5,0.2,0,0.3c3.3,0.1,7.2-0.5,9.8-0.2l-0.2,0.1
								c0.6,0,1-0.3,1.8-0.1c0,0.1-0.2,0.1,0,0.2c0.3-0.1,1.6-0.3,2.4-0.2l-0.7,0.2c3.1,0.2,4.9-0.4,7.6-0.5c0,0.4,2.5,0.6,3.8,0.7
								v0.1c3.7,0.1,6.3-0.4,9.8-0.5c2.1,0.5,7.2,0.2,10.7,0.5c-0.5-0.1,0.1-0.3,0.7-0.4c0.8,0.1,2.2-0.3,2.1,0.1H409
								c0.6,0.4,2.3,0.3,3.6,0.3l0.2-0.5c3.4,0.8,8.8-0.3,10.7,0.4c0.8-0.1,1.8-0.1,2.6-0.3v0.3c2.3,0.1,3.4,0.1,6.2,0l-0.5,0.2
								c1.6,0,2-0.8,3.5-0.8l0.4,0.4c2.7,0,5.6,0.4,8.3,0c0,0.1-0.1,0.2-0.5,0.2c1.3,0,5,0.3,4.5-0.3c0,0.4,2.8,0,4.3-0.1l-0.2,0.3
								c1.3-0.4,1.3-0.5,3-0.6c0.4,0,0.3,0.2-0.2,0.2c1.4,0.1,1-0.3,2.7-0.1l-0.6,0.2c1.5,0,1.3-0.1,2.1-0.3
								c0.9-0.1,2.7,0.1,2.9,0.3c0.2-0.2,0.9-0.4,1.8-0.3c0.1,0.1-0.2,0.2-0.3,0.2c2.4,0.2,3.6-0.3,5.1-0.1c0,0.1,0.1,0.1,0.3,0.2
								c-1.9,0-3.4,0-3.3,0c0,0.3,1.6,0.3,0.3,0.7c1.3-0.2,3.4-0.6,4.8-0.5c0.1,0,0.1,0,0.2,0.1h-0.1c0.3,0,0.6,0,0.9,0
								c0.5,0,0.7,0.1,1.3,0.1c0.2,0.2,1.8,0.1,2.5,0.1c-0.1-0.3,0.9-0.2,0-0.5c0.1,0-0.1,0-0.6,0c-0.1,0-0.2,0-0.3,0l0,0
								c-0.5,0-1.2,0-1.9,0c0.6-0.1,1.3-0.3,2.1-0.1c0.4-0.2,0.8-0.4,1-0.5c1,0.4,3,0.6,3.4,0.8c2.3-0.2,5.5-0.1,6.9-0.6
								c0.6-0.1,0.7,0.2,1,0.2c-0.4,0.1-0.8,0-1,0.1c1.4-0.1,3.9-0.1,4.2-0.4c1.7,0.2-0.9,0.3,1.4,0.3l-0.3,0.1
								c4.5,0.6,7.3-0.9,12.3-0.2c-0.3,0-0.5-0.1-0.6-0.1c5.7,0.3,11.8-0.3,17.3,0.2c1.6,0.1,1.8-0.1,2.7-0.3l0.3,0.3l1.7-0.3
								c2.3-0.3,4.1,0.7,7,0.3l-0.4-0.2c1,0,3.4-0.1,3.3,0.1c0.1,0,0.3-0.2,0.7-0.1v0.2l2.6-0.3c2,0.1-0.3,0.6,2.6,0.7
								c1.2-0.1,3.1-0.5,2.7-0.6c-0.4,0-1.2-0.1-1.2-0.3l1-0.1c0.2-0.5,0.9-0.9-1.6-1.3l-1.8,0.3l-0.5-0.2h1.5
								c-0.8-0.2-1.4,0-1.9,0.1c-0.1-0.1-0.4-0.2-0.7-0.2l-1.7,0.4c-0.2-0.2,0.7-0.4-0.4-0.5c-0.8,0.2,0.7,0.4-0.5,0.5
								c-0.8-0.2-0.6-0.4-1.6-0.2c-0.1-0.1,0.1-0.2,0.4-0.2c-0.8,0.1-2.3,0.1-2.7,0.3c-0.8-0.3-2.9,0.1-2.8-0.4
								c-0.3,0.1-1.6,0.3-2.3,0.4c1.5-0.5-2.9,0-2.6-0.6c-1,0.5-3.9,0.2-5.8,0.5c0.1,0,0.3-0.1,0.5-0.1c-1,0-1.4-0.2-2.1-0.3
								c-0.1,0.4-1.8,0.5-2.7,0.7c-1.4-0.4,0.8-0.5,0.4-0.8c0.1,0.3-2.3,0.3-1.8,0.6c-1-0.2-0.8-0.1-1.4-0.4
								c-0.2,0.5-0.9,0.1-1.8,0.4c-1.5-0.2-0.4-0.5-2-0.3C506.1,412.9,507.6,412.8,507.6,412.8z M464.6,137.6L464.6,137.6
								c0.3,0,0.6,0,0.7,0C465.2,137.6,465,137.6,464.6,137.6z M461.5,137.6c0.4,0,0.8,0,1.4,0c0.1,0.1,0,0.2-0.3,0.2
								C462.6,137.8,461.9,137.7,461.5,137.6z M468.2,139.6c-0.5,0-0.6,0-0.7-0.1c0.2,0,0.5,0,0.8,0c0,0,0,0,0.1,0
								C468.3,139.5,468.3,139.5,468.2,139.6z"/>
							<path class="st10" d="M469.1,139.2c0.1,0,0.1,0,0.2,0C469.2,139.1,469.1,139.1,469.1,139.2c-0.1-0.1-0.2,0-0.3,0
								C468.9,139.2,469,139.2,469.1,139.2z"/>
							<path class="st10" d="M179.6,138.8L179.6,138.8L179.6,138.8L179.6,138.8z"/>
							<polygon class="st10" points="417.4,137.1 417.4,137.1 417.6,137.1 							"/>
							<path class="st10" d="M161.9,137.8c0,0-0.1-0.1-0.2-0.1C161.7,137.8,161.8,137.8,161.9,137.8z"/>
							<path class="st10" d="M154.4,137.8l-1-0.1C153.7,137.7,154,137.7,154.4,137.8z"/>
							<path class="st10" d="M148.5,137.6c-0.1,0-0.1,0.1-0.1,0.1l0,0L148.5,137.6z"/>
							<path class="st10" d="M241.4,137.3c0.1,0,0.1,0,0.2,0C242.1,137.2,241.8,137.2,241.4,137.3z"/>
							<path class="st10" d="M213.8,137.9c0.3-0.1,0.6-0.1,0.8-0.1C214.2,137.8,213.8,137.8,213.8,137.9z"/>
							<path class="st10" d="M272.3,136.9L272.3,136.9c0.1,0,0.1,0,0.2,0H272.3z"/>
							<path class="st10" d="M216,137.8c-0.5-0.1-0.9,0-1.3,0C215.1,137.8,215.6,137.9,216,137.8z"/>
							<path class="st10" d="M123.2,137.5h-0.3l0,0H123.2z"/>
							<path class="st10" d="M122.9,137.5h-0.3C122.8,137.6,122.9,137.5,122.9,137.5z"/>
							<path class="st10" d="M121.9,137.6l0.6-0.1C122.3,137.5,122,137.5,121.9,137.6z"/>
							<path class="st10" d="M131,137.6l0.1-0.1C131,137.5,131,137.6,131,137.6z"/>
							<path class="st10" d="M133.3,137.6c-0.5,0-1.4-0.2-2.2-0.2l-0.1,0.1C131.4,137.4,132.7,137.8,133.3,137.6z"/>
							<path class="st10" d="M143.1,138.8l-2-0.1c0.3,0.1,0.8,0.3-0.1,0.3C143.5,139.4,140.5,138.8,143.1,138.8z"/>
							<path class="st10" d="M149.2,139c-1,0.1,0,0.2,0,0.2C149.8,139.1,150,139.1,149.2,139z"/>
							<path class="st10" d="M193.3,139l-0.1,0.3C194.1,139.2,193.2,139.2,193.3,139z"/>
							<polygon class="st10" points="201.8,137.7 201,137.5 200.6,137.8 							"/>
							<polygon class="st10" points="206.8,139.5 206.4,139.5 207.8,139.4 							"/>
							<path class="st10" d="M280.9,139.4l-0.2-0.3C280,139.2,279.9,139.5,280.9,139.4z"/>
							<path class="st10" d="M312.9,139.1c0.3,0.2,1.3,0.3,1.8,0.1C314,139.2,313.2,139.1,312.9,139.1z"/>
							<polygon class="st10" points="408.9,139.6 408.2,139.7 409.4,139.6 							"/>
						</g>
					</g>
				</g>
			</g>
		</g>
		<g>
			<ellipse class="st11" cx="142" cy="347.8" rx="7.6" ry="8.2"/>
			<g>
				<path class="st12" d="M146.7,342.6c0.4,0.8,0.6,1.6,0.6,2.6c0,3-2.5,5.4-5.7,5.4c-0.4,0-0.7,0-1-0.1l5.1-8.8l0.1-0.1h-0.3l0,0
					c-0.2,0-0.3,0-0.5-0.1c-0.1-0.1-0.3-0.1-0.4-0.2l0,0c0,0-0.3-0.3-0.4-0.3c-0.1-0.1-0.1-0.2-0.1-0.2s-0.1-0.1-0.1-0.2
					c0,0-0.1-0.1-0.1-0.2c-0.1-0.1-0.1-0.2-0.1-0.3h-0.1l0,0l-5.5,9.2c-0.4-0.3-0.7-0.6-0.9-1c0.2,0.4,0.5,0.8,0.9,1.2l0,0
					c0.1,0.1,0.2,0.2,0.3,0.3c0.1,0,0.1,0.1,0.2,0.2c0.1,0.1,0.2,0.1,0.3,0.2c0.1,0.1,0.2,0.1,0.3,0.2c0.4,0.2,0.9,0.3,1.4,0.5
					c0.1,0,0.1,0.1,0.2,0.1c0.5,0.1,0.9,0.2,1.5,0.2c2.9-0.1,5.5-2.4,5.5-5.2C147.7,344.7,147.3,343.5,146.7,342.6z"/>
				<path class="st13" d="M146,341.6L146,341.6l-0.1,0.1l-5.1,8.8c0.3,0.1,0.7,0.1,1,0.1c3.1,0,5.7-2.4,5.7-5.4
					c0-0.9-0.2-1.8-0.6-2.6C146.5,342.3,146.2,341.9,146,341.6z"/>
				<path class="st13" d="M138.1,349.3l5.5-9.2c-0.5-0.2-1.2-0.3-1.8-0.3c-3.1,0-5.7,2.4-5.7,5.4c0,1.2,0.4,2.2,1,3.1
					C137.4,348.7,137.8,349,138.1,349.3z"/>
			</g>
		</g>
	</g>
</g>
<g id="Ebene_4">
	<g>
		<path class="st2" d="M-19.4,995.3c5.1,1.9,11.4,1.9,16.7,4.9c1,1,3.1,2,5.2,3c18.9,12,22,34,18.9,54c-4.2,23-14.7,47-2.1,68
			c10.5,7,23.1,6,34.6,2c22-10,47.2-17,70.3-7c15.7,7,27.3,22,30.6,37.9"/>
		<g>
			<g>
				<path class="st3" d="M12.7,1107.6c7.5,11.3,19.6,18.5,33.5,20.2c2,0.2,2-2.8,0-3c-12.7-1.5-23.9-8.4-30.8-18.7
					C14.4,1104.5,11.6,1106,12.7,1107.6L12.7,1107.6z"/>
			</g>
		</g>
		<g>
			<g>
				<path class="st3" d="M18.3,1118.9c3.6,3.1,7.3,5.8,11.4,8.2c1.5,0.8,3.4-1.3,1.9-2.4c-3.4-2.6-6.8-5.2-10.2-7.8
					c-0.6,0.8-1.3,1.6-1.9,2.4c2.9,2,5.9,3.9,8.8,5.9c0.5-0.9,1-1.7,1.6-2.6c-8.7-4.7-12.6-13.6-16.2-22.1c-0.6-1.6-2.8-1.3-3,0.4
					c-1.2,8.2,7.9,16,14.3,20.2c7.9,5.2,17.3,7.8,26.9,7.6c2,0,2-3,0-3c-10.1-0.1-19.5-2.5-28.5-7.1c-0.4,0.9-0.8,1.8-1.3,2.7
					c14.4,2.3,29,3.4,43.6,3.1c2,0,2-3,0-3c-14.4,0.3-28.6-0.7-42.7-3c-1.7-0.3-2.9,1.9-1.3,2.7c9.3,4.8,19.4,7.3,30,7.5
					c0-1,0-2,0-3c-8,0.2-15.7-1.6-22.7-5.6c-6.3-3.6-16.5-11.5-15.3-19.3c-1,0.1-2.1,0.3-3,0.4c3.8,9.2,8.1,18.8,17.5,23.9
					c1.8,1,3.3-1.5,1.6-2.6c-2.9-2-5.9-3.9-8.8-5.9c-1.5-1-3.3,1.3-1.9,2.4c3.4,2.6,6.8,5.2,10.2,7.8c0.6-0.8,1.3-1.6,1.9-2.4
					c-4-2.2-7.5-4.7-10.8-7.7C19,1115.5,16.8,1117.6,18.3,1118.9L18.3,1118.9z"/>
			</g>
		</g>
		<g>
			<g>
				<path class="st3" d="M10,1096.5c-2,10.7,5.1,20.2,15.2,24.5c12.8,5.4,28.6,3.7,41.7,0.4c2-0.5,1.2-3.4-0.8-2.9
					c-10.8,2.7-22.9,4.1-33.9,1.6c-10.8-2.5-21.2-11.1-19.1-22.7C13.4,1095.4,10.4,1094.6,10,1096.5L10,1096.5z"/>
			</g>
		</g>
		<path class="st2" d="M651.2,1005.3c-5,0.9-10.3-3.1-15.5-0.1c-14.7,8-29.4,23-25.2,40c2.1,16,5.2,30,7.3,46c2.1,12,3.1,24-3.1,35
			c-7.3,10-21,9-31.5,5c-17.8-7-36.7-16-56.7-14c-22,3-40.9,19-46.4,40.2"/>
		<g>
			<g>
				<path class="st3" d="M570,1123.2c10,3.7,21,1.3,30.7-2.4c7.3-2.8,14.3-7.2,16.5-14.8c0.5-1.9-2.5-2.7-3-0.8
					c-2.2,7.5-9.8,11.3-17,13.7c-8.5,2.9-17.6,4.6-26.2,1.4C569,1119.6,568.1,1122.5,570,1123.2L570,1123.2z"/>
			</g>
		</g>
		<g>
			<g>
				<path class="st3" d="M589.4,1128.3c5.1,0.6,10,0,14.8-2c1.5-0.6,1.5-3-0.4-2.9c-5.1,0-10.4,0.1-15.5,0.1c0,1,0,2,0,3
					c5.8-0.4,11.5-0.7,17.3-1.1c2-0.1,2-2.8,0-3c-6.8-0.6-13.4-0.1-20.1,1.5c-1.8,0.4-1.3,2.8,0.4,2.9c7.1,0.6,14.2,0,21.1-1.9
					c1.7-0.4,1.4-3.1-0.4-2.9c-7.6,0.8-15,2.1-22.3,4.1c-1.7,0.4-1.4,3.2,0.4,2.9c10.6-1.3,21-3.3,31.2-6.3c1.7-0.5,1.4-2.9-0.4-2.9
					c-6.9-0.4-13.4,1-19.5,4c-1.6,0.8-0.5,3.3,1.3,2.7c6-2.1,11.4-4.9,16.6-8.5c1.6-1.1,0.2-3.6-1.6-2.6c-3.8,2.2-7.7,4.4-11.4,6.5
					c0.5,0.9,1,1.7,1.6,2.6c3.9-2.3,7.8-4.6,11.7-6.9c1.5-0.9,0.5-3.4-1.3-2.7c-4.7,1.8-9.1,4.1-13.2,7c-1.6,1.1-0.1,3.7,1.6,2.6
					c3.5-2.4,7-4.7,10.5-7.1c1.5-1,0.5-3-1.3-2.7c-3.5,0.5-6.2,2-8.5,4.5c-0.9,1-0.1,3.1,1.6,2.5c4.3-1.6,8.2-3.7,11.8-6.5
					c1.6-1.2-0.6-3.3-2.2-2.1c-6.4,4.8-13.9,7.6-21.9,8.3c0.1,1,0.3,2,0.4,2.9c8.5-1.1,19.2-0.8,25.9-6.4c1.6-1.3-0.7-3.4-2.2-2.1
					c-6.1,5-17.1,4.6-24.6,5.6c-1.8,0.2-1.4,3.1,0.4,2.9c9-0.8,17-3.8,24.1-9.2c-0.7-0.7-1.5-1.4-2.2-2.1c-3.3,2.4-6.6,4.3-10.4,5.7
					c0.5,0.8,1,1.7,1.6,2.5c2-2.2,4.1-3.3,7.1-3.8c-0.4-0.9-0.8-1.8-1.3-2.7c-3.5,2.4-7,4.7-10.5,7.1c0.5,0.9,1,1.7,1.6,2.6
					c3.9-2.7,8-4.9,12.5-6.7c-0.4-0.9-0.8-1.8-1.3-2.7c-3.9,2.3-7.8,4.6-11.7,6.9c-1.7,1-0.1,3.6,1.6,2.6c3.8-2.2,7.7-4.4,11.4-6.5
					c-0.5-0.9-1-1.7-1.6-2.6c-4.9,3.4-10.2,6.2-15.9,8.2c0.4,0.9,0.8,1.8,1.3,2.7c5.7-2.8,11.7-3.9,18-3.6c-0.1-1-0.3-2-0.4-2.9
					c-10,2.9-20.1,5-30.3,6.2c0.1,1,0.3,2,0.4,2.9c7-1.9,14.2-3.3,21.4-4c-0.1-1-0.3-2-0.4-2.9c-6.7,1.8-13.3,2.3-20.3,1.8
					c0.1,1,0.3,2,0.4,2.9c6.4-1.5,12.7-1.9,19.2-1.3c0-1,0-2,0-3c-5.8,0.4-11.5,0.7-17.3,1.1c-2,0.1-2,3,0,3
					c5.1,0,10.4-0.1,15.5-0.1c-0.1-1-0.3-2-0.4-2.9c-4.6,1.8-9,2.4-14,1.9C587.4,1125,587.4,1128,589.4,1128.3L589.4,1128.3z"/>
			</g>
		</g>
		<g>
			<g>
				<path class="st3" d="M604.1,1122.4c30.4-24.8-15.1-66.4,10.7-92.5c1.4-1.4-0.8-3.5-2.2-2.1c-11.3,11.4-9.8,27.8-6.1,41.9
					c4.1,16.3,11.2,37.7-4.5,50.6C600.3,1121.5,602.7,1123.6,604.1,1122.4L604.1,1122.4z"/>
			</g>
		</g>
		<g>
			<g>
				<path class="st3" d="M612.8,1026.6c-6.7,2-7.6,11.9-7.7,17.5c-0.2,9.8,3.1,19.4,6.7,28.4c0.7,1.8,3.8,1,3-0.8
					c-2.4-6.2-4.7-12.6-5.9-19.2c-0.6-3.3-0.8-6.8-0.6-10.2c0.2-3.4,1-11.6,5.2-12.9C615.6,1028.9,614.7,1026,612.8,1026.6
					L612.8,1026.6z"/>
			</g>
		</g>
		<g>
			<g>
				<path class="st3" d="M651,1006.1c-9.1,2.9-18.1,6.5-25.8,12.1c-4.5,3.2-9.6,7.8-7,13.5c0.5,1.2,2.5,0.8,2.8-0.4
					c3.7-13.4,18.3-18.4,30.9-21.9c2-0.5,1.2-3.4-0.8-2.9c-13.8,3.7-29.1,9.4-33.1,24c0.9-0.1,1.9-0.2,2.8-0.4
					c-2.3-5.1,6.9-10.2,10.5-12.4c6.4-3.9,13.3-6.5,20.6-8.8C653.7,1008.4,652.8,1005.5,651,1006.1L651,1006.1z"/>
			</g>
		</g>
		<g>
			<g>
				<path class="st3" d="M650.7,1005.7c-12.3,0.9-24.9,4.1-32.9,13.6c0.8,0.6,1.7,1.2,2.5,1.8c6.8-9.6,19.7-11.2,30.8-13.2
					c2-0.4,1.2-3.3-0.8-2.9c-12.1,2.2-25.3,4.1-32.7,14.5c-0.9,1.4,1.4,3.2,2.5,1.8c7.6-8.9,19.1-11.9,30.7-12.7
					C652.8,1008.6,652.8,1005.6,650.7,1005.7L650.7,1005.7z"/>
			</g>
		</g>
		<g>
			<g>
				<path class="st3" d="M651.2,1007.5c-12.2,2-24,5.9-31.7,15.5c-1.2,1.4,1.3,2.9,2.5,1.8c8.3-7.4,18.3-12.4,29.3-15
					c2-0.5,1.2-3.4-0.8-2.9c-11.5,2.7-21.9,8-30.7,15.7c0.8,0.6,1.7,1.2,2.5,1.8c7.1-9,18.6-12.3,29.8-14.2
					C654,1010,653.2,1007.1,651.2,1007.5L651.2,1007.5z"/>
			</g>
		</g>
		<g>
			<g>
				<path class="st3" d="M650.7,1004.8c-15,3-27.8,11.1-39.4,20.5c-0.9,0.8-0.3,2.2,0.7,2.5c5.9,2,9.9-5.3,13.9-8.2
					c7.6-5.4,16.5-8.2,25.6-9.7c2-0.3,1.2-3.2-0.8-2.9c-7,1.1-14,3.1-20.3,6.3c-2.8,1.4-5.5,3.1-7.9,5c-2.2,1.7-6.3,7.7-9.6,6.6
					c0.2,0.8,0.4,1.7,0.7,2.5c11-9.1,23.4-16.8,37.9-19.7C653.6,1007.3,652.7,1004.4,650.7,1004.8L650.7,1004.8z"/>
			</g>
		</g>
		<g>
			<g>
				<path class="st3" d="M651.4,1008.2c-11.1,3.1-22.9,4.9-32.5,11.4c-1.7,1.1-0.2,3.3,1.6,2.6c10.5-4.2,20.4-9.6,31.1-13.4
					c1.9-0.7,1-3.6-0.8-2.9c-10.9,3.9-21.1,9.4-31.8,13.7c0.5,0.9,1,1.7,1.6,2.6c9.3-6.4,20.9-8.1,31.7-11.1
					C654.1,1010.5,653.4,1007.6,651.4,1008.2L651.4,1008.2z"/>
			</g>
		</g>
		<g>
			<g>
				<path class="st3" d="M611.9,1028.1c-0.7,0.9-0.7,0.9-0.9,2.1c-0.2,1.3,1.5,2.7,2.6,1.5c8.3-8.9,18.9-15,31-17.9
					c-0.3-1-0.5-1.9-0.8-2.9c-9.3,3-18.9,6.3-25.3,13.9c-1.3,1.5,0.7,3.5,2.2,2.1c8.8-8.3,19.6-14,31.7-16.8c2-0.5,1.2-3.4-0.8-2.9
					c-12.6,3-23.8,8.9-33.1,17.6c0.7,0.7,1.5,1.4,2.2,2.1c6.1-7.2,15-10.2,23.9-13.1c1.9-0.6,1.2-3.4-0.8-2.9
					c-12.6,3.1-23.7,9.5-32.3,18.7c0.8,0.5,1.8,1,2.6,1.5c0.2-0.4,0.4-0.9,0.6-1.3C615.8,1028.1,613,1026.6,611.9,1028.1
					L611.9,1028.1z"/>
			</g>
		</g>
		<g>
			<g>
				<path class="st3" d="M566.7,1121.1c-0.1-0.1-0.2-0.2-0.4-0.3c-0.5,0.8-1,1.7-1.6,2.5c4.7,1.4,9.4,2.8,14.1,4.3
					c1.7,0.5,2.8-1.9,1.3-2.7c-4.7-2.3-9.4-4.1-14.7-5.2c-0.1,1-0.3,2-0.4,2.9c5.2-0.2,10.3,0.4,15.3,1.8c2,0.6,2.7-2.2,0.8-2.9
					c-4.9-1.8-9.8-3.6-14.7-5.4c-0.3,1-0.5,1.9-0.8,2.9c5.2,1.3,10.2,3.1,15,5.4c0.4-0.9,0.8-1.8,1.3-2.7
					c-8.6-1.7-17.1-3.6-25.6-5.7c0.4,0.5,0.7,1,1.2,1.4c0-0.8,0.1-1.7,0.1-2.5c-0.6,0.5-1.4,1-2,1.4c18.1,5.2,38.5,10.3,55.6-0.3
					c1.7-1,0.1-3.6-1.6-2.6c-16.4,10.1-35.9,5-53.2,0c-1-0.3-2,0.5-2,1.4c0,0.8-0.1,1.7-0.1,2.5c0,0.6,0.5,1.3,1.2,1.4
					c8.5,2.1,17,4,25.6,5.7c1.7,0.3,2.9-1.9,1.3-2.7c-5-2.4-10.3-4.3-15.7-5.7c-2-0.5-2.7,2.2-0.8,2.9c4.9,1.8,9.8,3.6,14.7,5.4
					c0.3-1,0.5-1.9,0.8-2.9c-5.4-1.5-10.6-2.1-16.2-1.9c-1.7,0.1-2.2,2.5-0.4,2.9c4.9,1.1,9.4,2.7,13.9,4.9c0.4-0.9,0.8-1.8,1.3-2.7
					c-4.7-1.4-9.4-2.8-14.1-4.3c-1.5-0.4-2.7,1.5-1.6,2.5c0.1,0.1,0.2,0.2,0.4,0.3C566,1124.5,568.2,1122.4,566.7,1121.1
					L566.7,1121.1z"/>
			</g>
		</g>
		<g>
			<g>
				<path class="st3" d="M548.8,1118.4c7.1-3.9,13.3-1.4,20.3,1.1c5.9,2.2,11.8,4.4,17.6,6.6c1.9,0.7,2.7-2.2,0.8-2.9
					c-7.7-2.9-15.2-6-23-8.6c-6.1-2.1-11.8-2-17.4,1.1C545.5,1116.7,547.1,1119.3,548.8,1118.4L548.8,1118.4z"/>
			</g>
		</g>
		<g>
			<g>
				<path class="st4" d="M-23.9,1001.5c0,54.9,0,109.8,0,164.7c0,1.9,3.1,1.9,3.1,0c0-54.9,0-109.8,0-164.7
					C-20.8,999.6-23.9,999.6-23.9,1001.5L-23.9,1001.5z"/>
			</g>
		</g>
		<g>
			<g>
				<path class="st4" d="M-22.4,1169c54.8,0,109.6,0,164.5,0c2,0,2-3,0-3c-54.8,0-109.6,0-164.5,0C-24.4,1166-24.4,1169-22.4,1169
					L-22.4,1169z"/>
			</g>
		</g>
		<g>
			<g>
				<path class="st4" d="M140.5,1169.5c4.7-0.9,8.1-4.8,8.4-9.3c0.1-1.9-3-1.9-3.1,0c-0.2,3.2-2.8,5.8-6.1,6.4
					C137.6,1166.9,138.5,1169.8,140.5,1169.5L140.5,1169.5z"/>
			</g>
		</g>
		<g>
			<g>
				<path class="st4" d="M486.5,1157.7c-2.3,0.2-3,2.5-2,4.3c0.5,0.9,1.4,1.4,2.3,1.7c0.8,0.3,1.9,0.3,2.5,1c0.5,0.6,1.7,0.5,2.2,0
					c0.6-0.6,0.5-1.5,0-2.1c-0.9-1.1-2.3-1.3-3.7-1.7c-0.4-0.1-0.6-0.1-0.7-0.5c0,0.1-0.1-0.3,0-0.3c0,0-0.4,0.5-0.7,0.5
					C488.6,1160.6,488.6,1157.6,486.5,1157.7L486.5,1157.7z"/>
			</g>
		</g>
		<g>
			<g>
				<path class="st4" d="M489.4,1166.4c55,0,110.1,0,165.2,0c2,0,2-3,0-3c-55,0-110.1,0-165.2,0
					C487.3,1163.4,487.3,1166.4,489.4,1166.4L489.4,1166.4z"/>
			</g>
		</g>
		<g>
			<g>
				<path class="st4" d="M656.1,1163.5c0-51.8,0-103.6,0-155.3c0-1.9-3.1-1.9-3.1,0c0,51.8,0,103.6,0,155.3
					C652.9,1165.5,656.1,1165.5,656.1,1163.5L656.1,1163.5z"/>
			</g>
		</g>
		<g>
			<g id="XMLID_1_">
				<g>
					<path class="st5" d="M128.1,1127.4c7.6,4.1,20.1,20.9,19.4,31.7c-0.2,3.4-1.7,6.1-5,7.8h-54l36.6-40.9
						C126.1,1126.4,127.1,1126.9,128.1,1127.4z"/>
					<polygon class="st6" points="125.1,1126 88.5,1166.9 56,1166.9 96.3,1121.9 					"/>
					<path class="st5" d="M125.1,1126l-28.9-4.1C106.3,1121.3,116.3,1122.1,125.1,1126z"/>
					<path class="st5" d="M96.3,1121.9L56,1166.8H37.1l37.6-41.9c1.8-0.3,3.6-0.7,5.4-1C85.4,1123,90.8,1122.3,96.3,1121.9z"/>
					<polygon class="st6" points="74.6,1124.9 37.1,1166.9 32.2,1166.9 68.9,1126 					"/>
					<path class="st5" d="M68.9,1126l-36.6,40.9h-53.9v-62.4l42.4-47.4c-0.9,7.3-3,14.5-5.8,21.4c-2.5,6.3-5.6,12.5-6.9,19.1
						s-1,13.8,2.9,19.4c4.3,6.1,12.3,9.6,20.2,11C43.7,1130.2,56.4,1128.3,68.9,1126z"/>
					<path class="st5" d="M21.4,1045.7c0,1.2,0.1,2.4,0,3.6l-43,48v-3.6L21.4,1045.7z"/>
					<polygon class="st6" points="21.4,1049.3 20.8,1057.1 -21.6,1104.4 -21.6,1097.4 					"/>
					<path class="st5" d="M20.8,1057.1l0.6-7.7C21.4,1051.9,21.2,1054.5,20.8,1057.1z"/>
					<path class="st5" d="M21.4,1045.7l-1.2-9.4C20.9,1039.4,21.2,1042.5,21.4,1045.7z"/>
					<polygon class="st7" points="20.1,1036.3 21.4,1045.7 -21.6,1093.7 -21.6,1082.9 					"/>
					<path class="st5" d="M20.1,1036.3l-41.8,46.6v-8.3l40-44.6C19.1,1032.1,19.7,1034.2,20.1,1036.3z"/>
					<path class="st5" d="M18.4,1030l-14.7-19.9c6.3,4.9,11.3,11.4,14.2,18.5C18,1029,18.2,1029.5,18.4,1030z"/>
					<polygon class="st6" points="3.7,1010.1 18.4,1030 -21.6,1074.6 -21.6,1038.3 					"/>
					<path class="st5" d="M3.7,1010.1l-25.3,28.2v-33.8c0.5-1.4,1.3-2.5,2.2-3c5.4-3,17.8,4.8,21.7,7.6
						C2.8,1009.4,3.2,1009.8,3.7,1010.1z"/>
				</g>
			</g>
		</g>
		<g>
			<g id="XMLID_4_">
				<g>
					<path class="st5" d="M504.4,1126.7c-7.5,3.8-20.1,19.4-19.4,29.5c0.1,1.8,0.6,3.4,1.7,4.7c0.9,0.4,1.8,0.8,2.6,1.3h53.4
						l-35.5-36.8C506.3,1125.8,505.3,1126.2,504.4,1126.7z"/>
					<polygon class="st6" points="507.2,1125.4 542.7,1162.2 575.3,1162.2 536.2,1121.6 					"/>
					<path class="st5" d="M507.2,1125.4l28.9-3.8C526.1,1121,516,1121.8,507.2,1125.4z"/>
					<path class="st5" d="M536.2,1121.6l39.2,40.6h18.9l-36.4-37.8c-1.8-0.3-3.6-0.6-5.4-0.9
						C547.1,1122.6,541.7,1121.9,536.2,1121.6z"/>
					<polygon class="st6" points="557.7,1124.4 594.1,1162.2 599,1162.2 563.5,1125.4 					"/>
					<path class="st7" d="M563.5,1125.4l35.5,36.8h54.9c0-0.4,0-0.9,0-1.3v-55.8l-42.2-43.9c0.9,6.8,3,13.5,5.8,19.9
						c2.5,5.9,5.6,11.6,6.9,17.8c1.4,6.1,1,12.8-2.9,18.1c-4.3,5.7-12.3,8.9-20.2,10.2C588.7,1129.3,576.1,1127.5,563.5,1125.4z"/>
					<path class="st5" d="M611.1,1050.6c0,1.1-0.1,2.3,0,3.4l42.8,44.5v-3.4L611.1,1050.6z"/>
					<polygon class="st6" points="610.9,1054 611.6,1061.2 653.8,1105.1 653.8,1098.5 					"/>
					<path class="st5" d="M611.6,1061.2l-0.6-7.2C611.1,1056.4,611.3,1058.8,611.6,1061.2z"/>
					<path class="st5" d="M611.1,1050.6l1.2-8.7C611.6,1044.7,611.2,1047.6,611.1,1050.6z"/>
					<polygon class="st6" points="612.2,1041.9 611.1,1050.6 653.8,1095 653.8,1085.1 					"/>
					<path class="st5" d="M612.2,1041.9l41.6,43.2v-7.7l-39.7-41.4C613.3,1037.9,612.7,1039.9,612.2,1041.9z"/>
					<path class="st5" d="M614.1,1036l14.7-18.5c-6.3,4.6-11.3,10.6-14.2,17.2C614.4,1035.1,614.2,1035.6,614.1,1036z"/>
					<polygon class="st6" points="628.7,1017.5 614.1,1036 653.8,1077.3 653.8,1043.5 					"/>
					<path class="st5" d="M628.7,1017.5l25.1,26.1v-31.7c-0.5-1-1.2-1.9-2-2.3c-5.4-2.8-17.8,4.4-21.7,7.1
						C629.6,1016.8,629.2,1017.2,628.7,1017.5z"/>
				</g>
			</g>
		</g>
	</g>
</g>
<g>
	<ellipse class="st11" cx="533.3" cy="356" rx="7.6" ry="8.2"/>
	<g>
		<path class="st12" d="M538,350.8c0.4,0.8,0.6,1.6,0.6,2.6c0,3-2.5,5.4-5.7,5.4c-0.4,0-0.7,0-1-0.1l5.1-8.8l0.1-0.1h-0.3l0,0
			c-0.2,0-0.3,0-0.5-0.1c-0.1-0.1-0.3-0.1-0.4-0.2l0,0c0,0-0.3-0.3-0.4-0.3c-0.1-0.1-0.1-0.2-0.1-0.2s-0.1-0.1-0.1-0.2
			c0,0-0.1-0.1-0.1-0.2c-0.1-0.1-0.1-0.2-0.1-0.3H535l0,0l-5.5,9.2c-0.4-0.3-0.7-0.6-0.9-1c0.2,0.4,0.5,0.8,0.9,1.2l0,0
			c0.1,0.1,0.2,0.2,0.3,0.3c0.1,0,0.1,0.1,0.2,0.2c0.1,0.1,0.2,0.1,0.3,0.2s0.2,0.1,0.3,0.2c0.4,0.2,0.9,0.3,1.4,0.5
			c0.1,0,0.1,0.1,0.2,0.1c0.5,0.1,0.9,0.2,1.5,0.2c2.9-0.1,5.5-2.4,5.5-5.2C539.1,352.9,538.6,351.7,538,350.8z"/>
		<path class="st13" d="M537.3,349.8L537.3,349.8l-0.1,0.1l-5.1,8.8c0.3,0.1,0.7,0.1,1,0.1c3.1,0,5.7-2.4,5.7-5.4
			c0-0.9-0.2-1.8-0.6-2.6C537.8,350.5,537.5,350.1,537.3,349.8z"/>
		<path class="st13" d="M529.4,357.5l5.5-9.2c-0.5-0.2-1.2-0.3-1.8-0.3c-3.1,0-5.7,2.4-5.7,5.4c0,1.2,0.4,2.2,1,3.1
			C528.7,356.9,529.1,357.2,529.4,357.5z"/>
	</g>
</g>
<g>
	<ellipse class="st11" cx="538.1" cy="579.6" rx="7.6" ry="8.2"/>
	<g>
		<path class="st12" d="M542.8,574.4c0.4,0.8,0.6,1.6,0.6,2.6c0,3-2.5,5.4-5.7,5.4c-0.4,0-0.7,0-1-0.1l5.1-8.8l0.1-0.1h-0.3l0,0
			c-0.2,0-0.3,0-0.5-0.1c-0.1-0.1-0.3-0.1-0.4-0.2l0,0c0,0-0.3-0.3-0.4-0.3c-0.1-0.1-0.1-0.2-0.1-0.2s-0.1-0.1-0.1-0.2
			c0,0-0.1-0.1-0.1-0.2c-0.1-0.1-0.1-0.2-0.1-0.3h-0.1l0,0l-5.5,9.2c-0.4-0.3-0.7-0.6-0.9-1c0.2,0.4,0.5,0.8,0.9,1.2l0,0
			c0.1,0.1,0.2,0.2,0.3,0.3c0.1,0,0.1,0.1,0.2,0.2c0.1,0.1,0.2,0.1,0.3,0.2c0.1,0.1,0.2,0.1,0.3,0.2c0.4,0.2,0.9,0.3,1.4,0.5
			c0.1,0,0.1,0.1,0.2,0.1c0.5,0.1,0.9,0.2,1.5,0.2c2.9-0.1,5.5-2.4,5.5-5.2C543.9,576.5,543.5,575.3,542.8,574.4z"/>
		<path class="st13" d="M542.1,573.4L542.1,573.4l-0.1,0.1l-5.1,8.8c0.3,0.1,0.7,0.1,1,0.1c3.1,0,5.7-2.4,5.7-5.4
			c0-0.9-0.2-1.8-0.6-2.6C542.6,574.1,542.3,573.7,542.1,573.4z"/>
		<path class="st13" d="M534.2,581.1l5.5-9.2c-0.5-0.2-1.2-0.3-1.8-0.3c-3.1,0-5.7,2.4-5.7,5.4c0,1.2,0.4,2.2,1,3.1
			C533.5,580.5,533.9,580.8,534.2,581.1z"/>
	</g>
</g>
<g>
	<ellipse class="st11" cx="141" cy="585.8" rx="7.6" ry="8.2"/>
	<g>
		<path class="st12" d="M145.8,580.6c0.4,0.8,0.6,1.6,0.6,2.6c0,3-2.5,5.4-5.7,5.4c-0.4,0-0.7,0-1-0.1l5.1-8.8l0.1-0.1h-0.3l0,0
			c-0.2,0-0.3,0-0.5-0.1c-0.1-0.1-0.3-0.1-0.4-0.2l0,0c0,0-0.3-0.3-0.4-0.3c-0.1-0.1-0.1-0.2-0.1-0.2s-0.1-0.1-0.1-0.2
			c0,0-0.1-0.1-0.1-0.2c-0.1-0.1-0.1-0.2-0.1-0.3h-0.1l0,0l-5.5,9.2c-0.4-0.3-0.7-0.6-0.9-1c0.2,0.4,0.5,0.8,0.9,1.2l0,0
			c0.1,0.1,0.2,0.2,0.3,0.3c0.1,0,0.1,0.1,0.2,0.2c0.1,0.1,0.2,0.1,0.3,0.2c0.1,0.1,0.2,0.1,0.3,0.2c0.4,0.2,0.9,0.3,1.4,0.5
			c0.1,0,0.1,0.1,0.2,0.1c0.5,0.1,0.9,0.2,1.5,0.2c2.9-0.1,5.5-2.4,5.5-5.2C146.8,582.7,146.4,581.5,145.8,580.6z"/>
		<path class="st13" d="M145,579.6L145,579.6l-0.1,0.1l-5.1,8.8c0.3,0.1,0.7,0.1,1,0.1c3.1,0,5.7-2.4,5.7-5.4c0-0.9-0.2-1.8-0.6-2.6
			C145.5,580.3,145.2,579.9,145,579.6z"/>
		<path class="st13" d="M137.1,587.3l5.5-9.2c-0.5-0.2-1.2-0.3-1.8-0.3c-3.1,0-5.7,2.4-5.7,5.4c0,1.2,0.4,2.2,1,3.1
			C136.4,586.7,136.8,587,137.1,587.3z"/>
	</g>
</g>
</svg>
