<?xml version="1.0" encoding="utf-8"?>
<!-- Generator: Adobe Illustrator 19.1.0, SVG Export Plug-In . SVG Version: 6.00 Build 0)  -->
<svg version="1.1" xmlns="http://www.w3.org/2000/svg" xmlns:xlink="http://www.w3.org/1999/xlink" x="0px" y="0px"
	 viewBox="0 0 642.5 1075.9" style="enable-background:new 0 0 642.5 1075.9;" xml:space="preserve">
<style type="text/css">
	.st0{fill:#62B6F4;}
	.st1{fill:#95D3F9;}
	.st2{fill:#D2D860;}
	.st3{fill:#6FB533;}
	.st4{fill:#568E21;}
	.st5{fill:#C6884F;}
	.st6{fill:#965B32;}
	.st7{fill:#893F0E;}
	.st8{fill:#893F0E;stroke:#965B32;stroke-width:16;stroke-miterlimit:10;}
	.st9{fill:#C6884F;stroke:#965B32;stroke-width:16;stroke-miterlimit:10;}
	.st10{fill:#B77446;}
	.st11{fill:#6D4203;}
	.st12{fill:#8C6239;}
	.st13{fill:#E2BD86;}
	.st14{fill:none;}
	.st15{fill:#FFFFFF;}
	.st16{fill:#662F02;}
	.st17{opacity:0.3;}
	.st18{fill:#808080;}
	.st19{fill:#AFAFAF;}
</style>
<g id="Ebene_2">
	<rect class="st0" width="642.5" height="1075.9"/>
	<path class="st1" d="M324.7,520.8c-140,0-262.1,76.4-327.2,189.8v369.1h645.5v-384C575.9,590.6,458.4,520.8,324.7,520.8z"/>
</g>
<g id="Ebene_3">
	<path class="st2" d="M624.4,986c-162.4-0.5-169.4,32.2-309.4,25.3c-152.8-7.5-186.3-48.5-274.3-36.2c-14.9,2.1-29.3,5.4-43.2,9.8
		v86.3h645.5v-85C636.9,986.1,630.8,986,624.4,986z"/>
	<path class="st3" d="M642.9,996.4c-86,13.2-105.2,45.3-206.3,41.1c-51.7-2.1-87.8-12.2-117.2-22.5l2.6,64.7h320.9V996.4z"/>
	<path class="st3" d="M181.1,988c-98.9-0.5-130.5,22.7-183.6,32.7v59.1H451v-55.5C345.8,1033.2,317.4,988.7,181.1,988z"/>
	<path class="st3" d="M-229.5,654.3"/>
	<path class="st4" d="M586.5,1035.8c-97.2,15.5-115.9-31.3-231.3-32c-111.3-0.7-116,42.7-212,33.6c-77-7.3-109.8-38.6-145.8-48.2
		v86.7h645.5v-54.9C627.3,1026.7,608.9,1032.2,586.5,1035.8z"/>
	<path class="st5" d="M321.7,1068.3c-125.8,0-240.2,0.9-325.9,2.4c0.6,3.7,0.8,7.5,0.8,11.3h647.2c0.2-3.8,0.4-7.5,0.8-11.3
		C559.3,1069.2,446,1068.3,321.7,1068.3z"/>
</g>
<g id="Ebene_4">
	<rect x="183" y="939.9" class="st6" width="422.5" height="18"/>
	<rect x="185" y="73.9" class="st6" width="422.5" height="18"/>
	<rect x="45" y="58.4" class="st7" width="18" height="1023.6"/>
	<line class="st7" x1="-406.6" y1="84.9" x2="-829" y2="84.9"/>
	<path class="st8" d="M-538.5-8.6"/>
	<path class="st8" d="M-538.5,897.3"/>
	<rect x="50.5" y="58.4" class="st6" width="18" height="1017.5"/>
	<rect x="41" y="76.9" class="st6" width="422.5" height="18"/>
	<rect x="40" y="937.4" class="st6" width="422.5" height="18"/>
	<path class="st9" d="M539.3,969.3H114.6c-19.4,0-35.1-15.7-35.1-35.1V98.5c0-19.4,15.7-35.1,35.1-35.1h424.7
		c19.4,0,35.1,15.7,35.1,35.1v835.7C574.4,953.6,558.7,969.3,539.3,969.3z"/>
	<g>
		<g>
			<path class="st6" d="M66.7,938.4c-1.2-5.1-5.4-9.2-10.7-9.9c-2.1-0.3-5-0.3-6.5,1.5c-1.3,1.5-1.2,3.8,0.4,5
				c1.5,1.2,3.6-0.9,2.1-2.1c0.5-1.2,1.3-1.7,2.4-1.6c0.7,0,1.3,0.1,2,0.3c1.2,0.3,2.3,0.8,3.3,1.5c2.2,1.5,3.5,3.6,4.1,6.1
				C64.2,941.1,67.1,940.3,66.7,938.4L66.7,938.4z"/>
		</g>
	</g>
	<g>
		<g>
			<path class="st10" d="M71.2,96.3c-1.4-6.3-4.5-12-9.2-16.3c-3.4-3.2-9.2-7.6-13.9-4.5c-1.6,1.1-0.1,3.7,1.5,2.6
				c4.2-2.7,10.9,4.3,13.1,7.1c2.8,3.5,4.6,7.5,5.6,11.9C68.7,99,71.6,98.2,71.2,96.3L71.2,96.3z"/>
		</g>
	</g>
	<g>
		<g>
			<path class="st10" d="M50.5,98.5C47,88.8,53.7,79.1,64,79.3c1.9,0,1.9-3,0-3c-12.2-0.1-20.6,11.5-16.4,23
				C48.2,101.1,51.1,100.3,50.5,98.5L50.5,98.5z"/>
		</g>
	</g>
	<g>
		<g>
			<path class="st10" d="M64.4,955.9c5.4-1.8,5.8-8.3,2.6-12.3c-4.7-6.1-12.7-5.5-19.5-4.4c-1.9,0.3-1.1,3.2,0.8,2.9
				c4.1-0.7,8.7-1.4,12.7,0.5c3.2,1.5,8.6,8.5,2.6,10.4C61.8,953.6,62.5,956.5,64.4,955.9L64.4,955.9z"/>
		</g>
	</g>
	<g>
		<g>
			<path class="st10" d="M49.6,955.3c2.1-8.7,9.5-15.3,18.4-16.2c1.9-0.2,1.9-3.2,0-3c-10.3,1.1-18.8,8.3-21.3,18.4
				C46.2,956.4,49.1,957.2,49.6,955.3L49.6,955.3z"/>
		</g>
	</g>
	<g>
		<path class="st11" d="M203.2,188c-0.4,0-0.7-0.1-0.9-0.3c-0.2-0.2-0.4-0.5-0.6-0.8c-0.4-0.7-0.9-1.4-1.5-2.2
			c-0.6-0.8-1.1-1.5-1.7-2.3c-0.6-0.8-1.2-1.5-1.8-2.1c-0.6-0.6-1.1-1.2-1.5-1.7c-2,0.5-4,0.8-6.2,0.8c-2.6,0-5-0.4-7.1-1.1
			c-2.2-0.7-4-2.1-5.5-4c-1.5-1.9-2.7-4.5-3.6-7.8c-0.8-3.3-1.3-7.5-1.3-12.7c0-5.1,0.4-9.4,1.3-12.7c0.8-3.3,2-5.9,3.6-7.8
			c1.5-1.9,3.4-3.3,5.5-4c2.2-0.7,4.5-1.1,7.1-1.1c2.6,0,5,0.4,7.2,1.1c2.2,0.7,4,2.1,5.5,4c1.5,1.9,2.7,4.5,3.6,7.8
			c0.8,3.3,1.3,7.5,1.3,12.7c0,3.3-0.2,6.2-0.5,8.7s-0.9,4.7-1.5,6.6s-1.5,3.4-2.4,4.7c-1,1.3-2,2.3-3.2,3.1
			c1.3,1.5,2.8,3.3,4.4,5.3c1.6,2,2.8,3.9,3.9,5.8H203.2z M175.9,153.8c0,3.9,0.2,7.2,0.6,9.9c0.4,2.7,1.1,5,2.1,6.7
			c1,1.8,2.4,3,4,3.9c1.7,0.8,3.8,1.2,6.3,1.2c2.5,0,4.6-0.4,6.3-1.2c1.7-0.8,3-2.1,4.1-3.9c1-1.8,1.8-4,2.2-6.7s0.6-6,0.6-9.9
			c0-3.9-0.2-7.2-0.6-10c-0.4-2.8-1.2-5-2.2-6.7c-1-1.7-2.4-3-4.1-3.8c-1.7-0.8-3.8-1.2-6.3-1.2c-2.5,0-4.7,0.4-6.3,1.2
			c-1.7,0.8-3,2.1-4,3.8s-1.7,4-2.1,6.7C176.1,146.6,175.9,149.9,175.9,153.8z"/>
		<path class="st11" d="M239,174.7c-0.5,0.5-1.2,1.1-1.9,1.7c-0.7,0.6-1.6,1.1-2.6,1.6c-1,0.5-2.1,0.9-3.4,1.2
			c-1.2,0.3-2.6,0.4-4.1,0.4c-3.5,0-6.3-1-8.4-3c-2.1-2-3.1-5.2-3.1-9.6v-24.5h3c0.7,0,1.1,0.4,1.1,1.1v23.3c0,3.3,0.8,5.7,2.3,7.1
			c1.5,1.4,3.5,2.1,6,2.1c1.3,0,2.5-0.2,3.6-0.5c1.1-0.3,2.2-0.7,3.1-1.2s1.8-1.1,2.5-1.7c0.7-0.6,1.3-1.2,1.8-1.7v-28.5h3
			c0.7,0,1.1,0.4,1.1,1.1v35.1h-2.7c-0.7,0-1.1-0.4-1.1-1.1L239,174.7z"/>
		<path class="st11" d="M267.4,179.3c-2.7,0-5-0.3-7-1c-2-0.6-3.6-1.7-4.9-3.2c-1.3-1.5-2.2-3.4-2.8-5.8c-0.6-2.4-0.9-5.3-0.9-8.7
			c0-3.5,0.3-6.5,0.9-8.9c0.6-2.4,1.5-4.4,2.8-5.9c1.2-1.5,2.7-2.6,4.5-3.3c1.8-0.7,3.9-1,6.2-1c2.6,0,4.8,0.4,6.5,1.2
			c1.7,0.8,3,1.9,4,3.2c0.9,1.4,1.6,3,1.9,4.9s0.5,3.9,0.5,6c0,1,0,1.9-0.1,2.9c-0.1,1-0.2,1.7-0.4,2.3h-22.9
			c0.1,2.4,0.4,4.5,0.8,6.3c0.4,1.7,1,3.1,1.9,4.2c0.9,1.1,2.1,1.9,3.6,2.4c1.5,0.5,3.5,0.8,5.9,0.8c2.4,0,4.2-0.1,5.7-0.4
			c1.4-0.3,2.4-0.4,3-0.4c0.4,0,0.7,0.1,0.9,0.4c0.2,0.2,0.3,0.5,0.3,0.7v1.9c-1.1,0.4-2.5,0.7-4.4,0.9
			C271.5,179.1,269.5,179.3,267.4,179.3z M266.2,145.1c-2,0-3.7,0.3-5,1c-1.3,0.7-2.4,1.6-3.2,2.8c-0.8,1.2-1.4,2.7-1.7,4.3
			c-0.3,1.7-0.5,3.5-0.6,5.4h19.4c0-0.3,0.1-0.7,0.1-1c0-0.3,0-0.6,0-0.9c0-1.9-0.1-3.6-0.4-5.1c-0.2-1.5-0.7-2.7-1.4-3.7
			c-0.7-1-1.6-1.7-2.7-2.2C269.6,145.4,268.1,145.1,266.2,145.1z"/>
		<path class="st11" d="M287.3,178.1c-0.6-0.2-0.9-0.7-0.9-1.4v-2c1.2,0.2,2.8,0.5,4.6,0.7c1.8,0.2,3.7,0.4,5.8,0.4s3.7-0.1,4.9-0.4
			c1.3-0.3,2.3-0.7,3-1.3c0.7-0.6,1.2-1.3,1.5-2.1c0.3-0.8,0.4-1.8,0.4-2.9c0-1.3-0.2-2.3-0.6-3.1c-0.4-0.8-1-1.4-1.8-1.9
			c-0.8-0.5-1.8-1-3.1-1.3c-1.2-0.4-2.7-0.8-4.4-1.2c-1.4-0.4-2.8-0.8-4.1-1.2c-1.3-0.4-2.4-1-3.4-1.7c-1-0.7-1.7-1.6-2.3-2.8
			c-0.6-1.1-0.8-2.6-0.8-4.3c0-3.1,1-5.5,3-7.2c2-1.7,5.1-2.6,9.2-2.6c0.4,0,1.1,0,1.9,0c0.8,0,1.7,0.1,2.7,0.2
			c0.9,0.1,1.9,0.2,2.8,0.4c0.9,0.1,1.7,0.3,2.2,0.5c0.6,0.2,0.9,0.7,0.9,1.4v1.9c-1.5-0.2-3.1-0.5-4.8-0.6c-1.7-0.2-3.4-0.3-5-0.3
			c-1.7,0-3.2,0.1-4.3,0.4c-1.2,0.3-2.1,0.6-2.8,1.2c-0.7,0.5-1.2,1.1-1.4,1.9c-0.3,0.7-0.4,1.6-0.4,2.6c0,1.1,0.2,2,0.5,2.7
			c0.3,0.7,0.8,1.3,1.5,1.8c0.7,0.5,1.6,0.9,2.8,1.3c1.1,0.4,2.5,0.7,4.1,1.1c1.6,0.4,3.2,0.8,4.6,1.3c1.4,0.5,2.7,1.1,3.7,1.8
			c1.1,0.7,1.9,1.7,2.5,3c0.6,1.2,0.9,2.8,0.9,4.7c0,3.7-1.1,6.4-3.4,8c-2.3,1.6-5.5,2.4-9.5,2.4c-0.6,0-1.3,0-2.3-0.1
			c-1,0-1.9-0.1-3-0.2c-1-0.1-2-0.2-2.9-0.4S287.7,178.4,287.3,178.1z"/>
		<path class="st11" d="M332.3,175.6c0.6,0,1,0.1,1.2,0.3c0.2,0.2,0.3,0.5,0.3,0.8v1.9c-1.8,0.4-3.5,0.6-5.1,0.6s-2.9-0.2-4-0.5
			c-1.1-0.4-1.9-0.9-2.5-1.5c-0.6-0.6-1.1-1.4-1.3-2.3c-0.3-0.9-0.4-1.9-0.4-2.9v-26h-3.2c-0.7,0-1.1-0.4-1.1-1.1v-2.4h4.3v-9.7h3
			c0.7,0,1.1,0.4,1.1,1.1v8.6h8.2c0.7,0,1.1,0.4,1.1,1.1v2.4h-9.3v25.5c0,0.7,0,1.3,0.1,1.8c0.1,0.5,0.3,0.9,0.7,1.3
			c0.4,0.4,0.9,0.7,1.6,0.9c0.7,0.2,1.6,0.3,2.8,0.3c0.5,0,1,0,1.5,0C331.7,175.6,332,175.6,332.3,175.6z"/>
		<path class="st11" d="M345.5,145c1.3-0.9,2.8-1.7,4.5-2.4c1.7-0.7,3.8-1,6.2-1c4.4,0,7.6,1.6,9.8,4.7c2.2,3.1,3.3,7.7,3.3,13.8
			c0,3.6-0.3,6.6-0.9,9c-0.6,2.4-1.5,4.4-2.7,5.9c-1.2,1.5-2.8,2.6-4.6,3.3c-1.9,0.7-4.1,1-6.7,1c-1.1,0-2.2-0.1-3.3-0.2
			c-1.2-0.1-2.3-0.3-3.4-0.5c-1.1-0.2-2.1-0.4-2.9-0.6c-0.9-0.2-1.5-0.4-1.9-0.6c-0.6-0.2-1-0.5-1.1-0.8c-0.1-0.3-0.2-0.6-0.2-1.1
			V127h2.2c0.7,0,1.1,0.1,1.4,0.4c0.3,0.2,0.4,0.7,0.4,1.4V145z M345.5,174.8c1.2,0.3,2.5,0.6,3.9,0.8c1.4,0.2,2.9,0.4,4.5,0.4
			c1.9,0,3.6-0.2,5-0.7c1.4-0.5,2.6-1.3,3.5-2.4c0.9-1.2,1.6-2.7,2.1-4.8s0.7-4.6,0.7-7.8c0-5.4-0.8-9.3-2.4-11.7
			c-1.6-2.4-4.1-3.5-7.3-3.5c-2.3,0-4.2,0.4-5.8,1.1c-1.6,0.7-3,1.5-4.2,2.4V174.8z"/>
		<path class="st11" d="M392,141.6c5.2,0,8.9,1.5,11.2,4.6s3.5,7.9,3.5,14.3c0,6.5-1.2,11.3-3.5,14.4c-2.3,3.1-6,4.6-11.2,4.6
			c-5.2,0-8.9-1.5-11.2-4.6c-2.3-3.1-3.5-7.9-3.5-14.4c0-6.4,1.2-11.2,3.5-14.3S386.8,141.6,392,141.6z M392,176
			c1.8,0,3.3-0.3,4.6-0.8c1.3-0.6,2.4-1.4,3.3-2.7c0.9-1.2,1.5-2.8,2-4.8c0.4-2,0.6-4.4,0.6-7.2c0-2.8-0.2-5.2-0.6-7.2
			c-0.4-1.9-1.1-3.5-2-4.8c-0.9-1.2-2-2.1-3.3-2.7c-1.3-0.6-2.9-0.8-4.6-0.8c-1.8,0-3.3,0.3-4.6,0.8c-1.3,0.6-2.4,1.4-3.3,2.7
			c-0.9,1.2-1.5,2.8-2,4.8c-0.4,1.9-0.6,4.3-0.6,7.2c0,2.8,0.2,5.2,0.6,7.2c0.4,2,1.1,3.6,2,4.8c0.9,1.2,2,2.1,3.3,2.7
			C388.6,175.7,390.2,176,392,176z"/>
		<path class="st11" d="M436.6,174.7c-0.6,0.6-1.3,1.1-2.1,1.7c-0.8,0.6-1.7,1-2.7,1.5c-1,0.4-2,0.8-3.2,1.1
			c-1.1,0.3-2.3,0.4-3.6,0.4c-4,0-6.9-1-8.8-3c-1.9-2-2.8-4.8-2.8-8.4c0-4.1,1.2-7,3.5-8.8c2.3-1.8,5.7-2.7,10-2.7h9.4v-2.8
			c0-1.6-0.2-2.9-0.5-4c-0.3-1.1-0.9-2-1.7-2.6c-0.8-0.6-1.8-1.1-3.1-1.4c-1.3-0.3-2.8-0.4-4.7-0.4c-2.2,0-4.2,0.1-5.9,0.4
			c-1.8,0.3-2.9,0.4-3.6,0.4c-0.8,0-1.2-0.4-1.2-1.2v-1.7c1.9-0.5,3.8-0.9,5.8-1.1c2-0.2,3.9-0.3,5.6-0.3c2.6,0,4.8,0.3,6.6,0.9
			c1.7,0.6,3.1,1.4,4.1,2.5c1,1.1,1.7,2.4,2.1,3.8c0.4,1.5,0.6,3.1,0.6,4.9v24.8h-2.7c-0.7,0-1.1-0.4-1.1-1.1L436.6,174.7z
			 M436.5,159.9h-9.6c-1.9,0-3.4,0.2-4.7,0.6c-1.2,0.4-2.2,1-3,1.8c-0.7,0.7-1.2,1.6-1.5,2.6c-0.3,1-0.4,2-0.4,3.1
			c0,2.9,0.7,5,2.2,6.2c1.5,1.2,3.5,1.8,6,1.8c2.4,0,4.6-0.5,6.4-1.5c1.8-1,3.3-2.2,4.6-3.4V159.9z"/>
		<path class="st11" d="M464.7,142.3c1,0,1.6,0.1,1.8,0.3c0.2,0.2,0.4,0.5,0.4,0.9v2.6c-0.3,0-0.7-0.1-1-0.1c-0.4,0-0.7,0-0.9,0
			c-2.2,0-4.2,0.4-5.9,1.3c-1.7,0.9-3.4,2.3-5.1,4.2v27.1h-3c-0.7,0-1.1-0.4-1.1-1.1v-35.1h2.7c0.7,0,1.1,0.4,1.1,1.1l0.1,4
			c0.5-0.6,1.2-1.2,1.9-1.8c0.8-0.6,1.6-1.2,2.6-1.7c0.9-0.5,1.9-0.9,3-1.3C462.5,142.5,463.6,142.3,464.7,142.3z"/>
		<path class="st11" d="M498.1,178.7c-0.7,0-1.1-0.4-1.1-1.1l-0.1-2.9c-1.2,1.2-2.6,2.2-4.4,3.2c-1.8,1-4.1,1.5-6.9,1.5
			c-2.4,0-4.5-0.5-6.1-1.4s-2.9-2.2-3.9-3.9c-1-1.7-1.7-3.6-2.1-5.9c-0.4-2.3-0.6-4.8-0.6-7.6c0-6.8,1.2-11.6,3.7-14.5
			c2.5-2.9,6.1-4.4,10.9-4.4c2.4,0,4.3,0.3,5.8,0.8c1.5,0.5,2.6,1,3.4,1.4V127h3c0.7,0,1.1,0.4,1.1,1.1v50.6H498.1z M496.7,147.2
			c-1.2-0.6-2.6-1.1-3.9-1.4c-1.4-0.4-3-0.6-4.8-0.6c-2,0-3.6,0.3-5,0.8c-1.4,0.6-2.5,1.4-3.4,2.7c-0.9,1.2-1.5,2.8-1.9,4.8
			c-0.4,1.9-0.6,4.3-0.6,7.1c0,5.1,0.6,9,1.9,11.6c1.3,2.6,3.7,3.9,7.3,3.9c1.3,0,2.5-0.2,3.5-0.5c1.1-0.3,2-0.7,2.9-1.2
			c0.9-0.5,1.6-1,2.3-1.6c0.7-0.6,1.2-1.1,1.7-1.7V147.2z"/>
	</g>
	<rect x="591.4" y="52.3" class="st7" width="18" height="1023.6"/>
	<rect x="586.9" y="52.3" class="st6" width="18" height="1035.5"/>
	<g>
		<g>
			<path class="st5" d="M590.6,90.2c-4.3-1.7-4,7.6,1.1,4.4c0.9-0.5,1.5-1.5,1.8-2.4c1.1-2.9,1.4-5.3,3.5-7.8
				c3.2-3.7,7.5-6,12.3-6.8c1.9-0.3,1.1-3.2-0.8-2.9c-4.3,0.7-8.2,2.6-11.5,5.5c-1.5,1.4-2.9,3-4,4.7c-0.6,0.9-3.7,8-3.2,8.2
				C591.6,93.8,592.3,90.9,590.6,90.2L590.6,90.2z"/>
		</g>
	</g>
	<g>
		<g>
			<path class="st5" d="M589.4,77.5c1.6-3.1,5.1-2.8,7.9-1.4c3,1.5,4.5,4,5.8,7c2,4.7,3.2,9.4,6.7,13.2c1.3,1.4,3.4-0.7,2.1-2.1
				c-5.4-5.8-4.9-15.4-11.7-19.9c-4.3-2.8-10.7-3.5-13.4,1.7C585.9,77.7,588.5,79.2,589.4,77.5L589.4,77.5z"/>
		</g>
	</g>
	<g>
		<g>
			<path class="st5" d="M592.7,962c10,2.2,20.4-4.5,22.2-14.6c0.3-1.9-2.5-2.7-2.9-0.8c-1.5,8.5-10,14.4-18.5,12.5
				C591.6,958.7,590.8,961.6,592.7,962L592.7,962z"/>
		</g>
	</g>
	<g>
		<g>
			<path class="st5" d="M591.1,941.5c9-0.5,17.3,6.3,18.1,15.4c0.2,1.9,3.2,1.9,3,0c-1-10.6-10.4-19-21.1-18.4
				C589.2,938.6,589.2,941.6,591.1,941.5L591.1,941.5z"/>
		</g>
	</g>
	<path class="st12" d="M28.2,1204.4 M577.5,0.7 M104.3,1121.7c1.4,0.2,1.9,0.4,2.5,0.4c43.1-0.4,86.2-0.6,129.3-1.4
		c8.6-0.2,17.2-2.5,25.8-3.9c6.5-1,12.9-2.6,19.4-3.1c16.4-1.4,32.9-2.7,49.4-3.3c22.5-0.8,45.1-1.3,67.6-1.2
		c10.2,0,20.5,1.3,30.7,2.5c7.5,0.9,15,2.3,22.5,3.7c12.1,2.2,24.1,5.3,36.3,6.6c10.7,1.1,21.6,0.3,32.5,0.2c1.4,0,2.9,0,4-0.6
		c7.9-4.3,15.6-9.1,23.7-12.9c5.1-2.4,23.3-11.5,22.9-16.7c-0.5-6.7-16.7-7.5-16.7-14.2c-0.4,0-0.7-0.1-1.1-0.1
		c-0.7,2-1.5,4-2.5,6.9c-1-2.6-2.1-4.3-2.2-6c-0.7-7.7-1.7-15.5-1.4-23.2c0.4-9.2,2.1-18.3,3.3-27.6c-4.5-0.6-8.9-1.3-13.2-1.9
		c0-0.1,0-0.3,0-0.4c4.1,0,8.1,0,11.6,0c0-8.6-0.8-16.8,0.2-24.9c0.9-7.2-0.2-13.7-2-20.5c-1.9-7.5-2.7-15.3-3.9-22.3
		c-8,0.7-16.4,1.5-24.8,2.2c-0.1-0.6-0.1-1.1-0.2-1.7c5-0.8,9.9-1.9,14.9-2.5c3.7-0.4,5.7-1.3,5.6-5.5c-0.3-9-0.2-18-0.1-27
		c0-1.8,0.4-3.7,0.9-5.5c1.5-5.4,4.1-10.8,4.5-16.3c0.7-11.5-0.1-23.2,3.4-33.8c-11.7,0-23.3,0-34.9,0c13.3-3.9,27.1-4.3,41.1-4.2
		c-1.6-2.8-3.1-4.8-3.9-7c-3.2-8.4-4.8-17.1-4.6-26.1c0.2-13.4-1.5-27.1,0.7-40.1c2.3-13.1,3.2-26.3,3.8-39.4
		c0.4-7.9-1.6-15.9-2.3-23.8c-0.1-1.4,0.5-3.7,1.5-4.2c4.7-2.2,5.7-6,4.5-9.9c-4.1-13.9-4.1-28.2-5.3-42.3c-1.1-12-2.1-24-2.8-36.1
		c-0.6-10.2-1.2-20.5-0.8-30.7c0.3-7-0.8-12.5-7.9-15.7c-0.1,0,0-0.5,0-0.8c0.8-0.1,1.5,0,2.3-0.2c7.4-1.3,8.3-2.3,8.3-9.3
		c0-11.3,0-22.6,0-33.9c0-1.6-0.3-3.2-0.6-4.7c-2-11.7-4.3-23.4-5.8-35.2c-0.7-5.8,0.6-11.5,2.2-17.3c1.4-5.4-0.4-11.5-0.5-17.4
		c-0.1-7.2-0.4-14.5,0.4-21.7c1.1-9.6,2.8-19-0.2-28.5c-1.7-5.5-1.8-10.8,1.1-16.2c1.1-2,1.5-4.5,1.3-6.7c-1-11-3.5-21.9-3.3-32.8
		c0.3-15,2.7-29.9,4.2-45c-5.8-2.2-12.5-4.7-19.6-7.4c2.4-0.7,4.2-1.3,6.1-1.9c10-2.9,10-2.9,10-12.9c0-0.6,0-1.2,0-1.8
		c0-20.9,0-41.7,0-62.6c0-1.7,0.2-3.5,0.7-5.2c2-8,4-16,6.4-24c1-3.6,0-5.2-3.9-5.6c-3.4-0.3-6.9-0.8-10.3-1.3c0-0.2,0-0.4,0-0.6
		c4.2-0.9,8.4-1.7,12.6-2.6c-5.3-12-5.3-24.3-4.1-36.4c0.6-6.1-0.7-11.5-1.8-17.1c-0.2-0.9-2.3-1.8-3.7-2.1
		c-2.1-0.4-4.2-0.3-6.4-0.5c0-0.4,0-0.8,0-1.2c1.1-0.1,2.3-0.2,3.4-0.5c6.5-1.2,7.1-1.9,7.1-8.2c0-6-0.1-12,0-18.1
		c0-1.4,0.4-2.8,1-4.1c2.4-5.2,1.3-7-4.6-7c-111.8,0-223.5,0-335.3,0c-2.1,0-4.3,0.3-6.3,0.9c-7.9,2.5-15.9,5-23.6,8
		c-8,3.2-15.8,6.1-24.7,6c-15.3-0.3-30.4-2.4-45.2-6.3c-1.6,7,2.3,17.6,9.6,23c3.5,2.6,8.7,3.3,13.1,4.9c0.2-0.5,0.3-0.9,0.5-1.4
		c-2.1-1-4.2-2-6.3-3.1c0.1-0.2,0.3-0.5,0.4-0.7c4,1.4,8,2.9,12.9,4.7c-2,0.7-2.8,1-3.7,1.4c1.7,5.5-0.5,7.3-6.5,5.9
		c-3.5-0.8-7.1-1.6-10.6-2.3c-0.1,0.4-0.3,0.8-0.4,1.1c3,2.4,6.1,4.7,9.4,7.3c-1.7,1.1-2.7,1.7-3.7,2.3
		c-12.6,7.9-12.7,7.9-12.3,20.9c0.1,2.1,1.5,4.8,3.3,6c3,2.1,6.7,3.1,10.5,4.8c-3.8,1.2-7.5,2.6-11.3,3.4c-3.3,0.8-5.2,2.1-4.6,5.6
		c0.4,2.7,1,5.5,0.8,8.2c-0.4,7.5-1.4,15.1-1.6,22.6c-0.3,9.6-0.1,19.3-0.1,29.1c9.3,1.4,18.1,2.7,26.9,4c0,0.4-0.1,0.9-0.1,1.3
		c-8.8,0-17.6,0-27.6,0c7.9,7,18.3,5.6,26.5,10.7c-1.3,0.4-2,0.7-2.7,0.9c-6.7,2.2-13.4,4.4-20.1,6.4c-2.5,0.8-3,2.2-3,4.5
		c0.2,7.5,0.3,15,0,22.5c-0.2,5.3-0.4,10,7.1,10.4c0.4,0,0.8,0.7,1.6,1.4c-3.1,0.2-5.6,0.4-8.6,0.6c0,1.8,0,3.4,0,5
		c0,66.5,0,133.1,0,199.6c0,0.7-0.3,1.6,0.1,2.2c1,1.4,2,3.5,3.3,3.8c3.7,0.8,7.6,0.8,11.4,1.2c4,0.4,8.1,0.8,12.1,1.2
		c0,0.4,0,0.9-0.1,1.3c-8.8,0-17.6,0-26.8,0c0,27.9,0,54.9,0.2,81.9c0,1.2,2.3,3.2,3.6,3.3c6.4,0.7,12.9,0.8,19.3,1.2
		c7.2,0.6,14.3,1.2,21.5,2.1c1,0.1,1.8,1.5,2.7,2.4c-1,0.8-1.9,2.3-3,2.4c-2.9,0.4-5.9,0.2-8.8,0.4c-9.6,0.6-19.3,1.2-28.9,2.1
		c-5.4,0.5-7.1,2.7-6.6,7.3c0.5,4.6,1,9.3,0.8,13.9c-0.3,7.7,1.3,14.9,3.1,22.3c1.6,6.4,2.7,13.3,2.3,19.8
		c-1.2,17.3-0.9,34.4,1.3,51.6c1.5,12.3,1.7,24.7-0.8,37c-2.5,12.2-8.5,23.7-6.8,36.6c0.8,6.2,0.1,6.3,7,6.5c0.9,0,1.8,0.3,2.8,0.4
		c0,0.4,0,0.7,0,1.1c-1.2,0.2-2.7,0-3.6,0.6c-1.9,1.1-4.9,2.5-5,3.9c40.3-830.1,13.4-813.6-0.8,36.8c5.1,6.9,6.9,14.8,7.7,22.9
		c0.8,8.7,2.3,17.6,1,26.2c-1.3,9.1-2.6,18.1-2.4,27.3c0.1,7.8,0.1,15.6,0,23.4c0,3-0.7,6.1-0.6,9.1c0,1,1.3,2.4,2.4,2.8
		c4,1.8,8.2,3.2,12.4,4.8c0,0.3-0.1,0.7-0.1,1.1c-5.7,0-11.5,0-16.4,0c-0.8,18-3,35.2-1.8,52.3c1.2,17-5.4,33.8,0.4,50.8
		c1.6,0.5,3.8,1.2,6.3,2.1c-2.4,1.2-4.3,1.8-5.8,2.9c-1.3,1-3.1,2.6-3.1,3.9c-0.1,3,1.2,6,1.2,9C104.3,1106.8,109,1114,104.3,1121.7
		z"/>
	<g>
		<path class="st13" d="M112.2,1113.1c1.3,0.2,1.9,0.4,2.4,0.4c41.3-0.4,82.6-0.6,124-1.4c8.3-0.2,16.5-2.5,24.7-3.9
			c6.2-1,12.4-2.6,18.6-3.1c15.7-1.4,31.5-2.7,47.3-3.3c21.6-0.8,43.2-1.3,64.8-1.2c9.8,0,19.6,1.3,29.4,2.5
			c7.2,0.9,14.4,2.3,21.5,3.7c11.6,2.2,23.1,5.3,34.7,6.6c10.3,1.1,20.7,0.3,31.1,0.2c1.3,0,2.8,0,3.9-0.6c7.6-4.2,14.9-9,22.8-12.9
			c4.9-2.4,6.4-5.4,6-10.6c-0.5-6.7-0.1-13.5-0.1-20.3c-0.3,0-0.7-0.1-1-0.1c-0.7,2-1.4,4-2.4,6.9c-1-2.6-2-4.2-2.2-6
			c-0.6-7.7-1.6-15.5-1.3-23.2c0.4-9.1,2-18.2,3.2-27.5c-4.3-0.6-8.5-1.3-12.7-1.9c0-0.1,0-0.3,0-0.4c3.9,0,7.8,0,11.1,0
			c0-8.6-0.8-16.8,0.2-24.8c0.9-7.2-0.2-13.7-1.9-20.5c-1.8-7.5-2.6-15.3-3.7-22.3c-7.6,0.7-15.7,1.5-23.8,2.2
			c-0.1-0.6-0.1-1.1-0.2-1.7c4.8-0.8,9.5-1.9,14.3-2.4c3.5-0.4,5.5-1.3,5.4-5.5c-0.3-9-0.1-18-0.1-27c0-1.8,0.4-3.7,0.8-5.5
			c1.4-5.4,4-10.8,4.3-16.3c0.6-11.5-0.1-23.1,3.2-33.7c-11.2,0-22.3,0-33.5,0c12.8-3.9,26-4.3,39.4-4.2c-1.5-2.8-2.9-4.8-3.7-7
			c-3.1-8.4-4.6-17-4.5-26c0.2-13.4-1.5-27,0.7-40.1c2.2-13.1,3-26.2,3.6-39.4c0.4-7.9-1.6-15.8-2.2-23.8c-0.1-1.4,0.5-3.7,1.5-4.2
			c4.5-2.2,5.4-6,4.3-9.9c-3.9-13.9-3.9-28.1-5.1-42.3c-1-12-2-24-2.6-36c-0.6-10.2-1.2-20.4-0.8-30.6c0.3-6.9-0.8-12.5-7.6-15.7
			c-0.1,0,0-0.5,0-0.8c0.7-0.1,1.5,0,2.2-0.2c7-1.3,7.9-2.3,7.9-9.3c0-11.3,0-22.6,0-33.9c0-1.6-0.3-3.2-0.5-4.7
			c-1.9-11.7-4.1-23.4-5.5-35.1c-0.7-5.8,0.6-11.5,2.1-17.3c1.4-5.4-0.4-11.5-0.5-17.3c-0.1-7.2-0.4-14.5,0.4-21.6
			c1.1-9.5,2.6-19-0.2-28.5c-1.7-5.5-1.7-10.8,1.1-16.1c1-2,1.5-4.5,1.3-6.7c-1-10.9-3.4-21.9-3.1-32.8c0.3-15,2.6-29.9,4-44.9
			c-5.6-2.2-12-4.7-18.8-7.4c2.3-0.7,4-1.3,5.8-1.9c9.6-2.9,9.6-2.9,9.6-12.9c0-0.6,0-1.2,0-1.8c0-20.8,0-41.6,0-62.5
			c0-1.7,0.2-3.5,0.6-5.2c2-8,3.9-16,6.1-23.9c1-3.6,0-5.2-3.7-5.6c-3.3-0.3-6.6-0.8-9.8-1.3c0-0.2,0-0.4,0-0.6
			c4-0.9,8-1.7,12.1-2.6c-5.1-11.9-5.1-24.3-4-36.4c0.6-6.1-0.7-11.4-1.7-17.1c-0.2-0.9-2.2-1.8-3.5-2.1c-2-0.4-4.1-0.3-6.1-0.5
			c0-0.4,0-0.8,0-1.2c1.1-0.1,2.2-0.2,3.3-0.5c6.2-1.2,6.8-1.9,6.8-8.2c0-6-0.1-12,0-18c0-1.4,0.4-2.8,1-4.1c2.3-5.2,1.2-7-4.4-7
			c-107.1,0-214.2,0-321.3,0c-2,0-4.1,0.3-6,0.9c-7.6,2.5-15.3,4.9-22.6,8c-7.6,3.2-15.2,6.1-23.7,5.9c-14.7-0.3-29.1-2.4-43.3-6.3
			c-1.5,7,2.2,17.6,9.2,23c3.4,2.6,8.3,3.3,12.5,4.9c0.2-0.5,0.3-0.9,0.5-1.4c-2-1-4-2-6-3.1c0.1-0.2,0.3-0.5,0.4-0.7
			c3.8,1.4,7.6,2.9,12.3,4.7c-1.9,0.7-2.7,1-3.5,1.4c1.6,5.5-0.4,7.3-6.3,5.9c-3.4-0.8-6.8-1.6-10.2-2.3c-0.1,0.4-0.3,0.8-0.4,1.1
			c2.9,2.4,5.8,4.7,9,7.3c-1.6,1.1-2.6,1.7-3.5,2.3c-12.1,7.8-12.2,7.8-11.8,20.9c0.1,2.1,1.4,4.8,3.1,6c2.9,2,6.4,3.1,10.1,4.7
			c-3.6,1.2-7.1,2.6-10.8,3.4c-3.2,0.8-5,2.1-4.4,5.6c0.4,2.7,0.9,5.5,0.8,8.2c-0.4,7.5-1.3,15-1.5,22.6c-0.3,9.6-0.1,19.3-0.1,29.1
			c8.9,1.4,17.3,2.7,25.7,4c0,0.4-0.1,0.9-0.1,1.3c-8.4,0-16.9,0-26.4,0c7.6,6.9,17.6,5.6,25.4,10.7c-1.3,0.4-1.9,0.7-2.6,0.9
			c-6.4,2.2-12.8,4.4-19.3,6.4c-2.4,0.8-2.9,2.2-2.9,4.5c0.2,7.5,0.3,15,0,22.4c-0.2,5.3-0.4,10,6.8,10.3c0.4,0,0.8,0.7,1.5,1.4
			c-2.9,0.2-5.4,0.4-8.2,0.6c0,1.8,0,3.4,0,5c0,66.4,0,132.9,0,199.3c0,0.7-0.3,1.6,0.1,2.2c0.9,1.4,1.9,3.5,3.2,3.8
			c3.5,0.8,7.2,0.8,10.9,1.2c3.9,0.4,7.7,0.8,11.6,1.2c0,0.4,0,0.9-0.1,1.3c-8.4,0-16.9,0-25.7,0c0,27.8,0,54.8,0.2,81.8
			c0,1.2,2.2,3.2,3.5,3.3c6.1,0.7,12.3,0.8,18.5,1.2c6.9,0.5,13.7,1.2,20.6,2.1c1,0.1,1.7,1.5,2.6,2.4c-1,0.8-1.8,2.3-2.9,2.4
			c-2.8,0.4-5.6,0.2-8.4,0.4c-9.2,0.6-18.5,1.2-27.7,2.1c-5.2,0.5-6.8,2.7-6.4,7.2c0.4,4.6,1,9.3,0.8,13.9c-0.3,7.7,1.2,14.9,3,22.3
			c1.6,6.4,2.6,13.2,2.2,19.8c-1.2,17.2-0.8,34.3,1.2,51.5c1.5,12.3,1.6,24.7-0.8,37c-2.4,12.1-8.2,23.6-6.5,36.6
			c0.8,6.2,0.1,6.3,6.7,6.5c0.9,0,1.8,0.3,2.7,0.4c0,0.4,0,0.7,0,1.1c-1.2,0.2-2.5,0-3.5,0.6c-1.8,1.1-4.7,2.5-4.8,3.9
			c-0.6,12.2-0.6,24.5-0.8,36.8c4.9,6.9,6.6,14.8,7.4,22.8c0.8,8.7,2.2,17.6,1,26.1c-1.3,9.1-2.4,18.1-2.3,27.3
			c0.1,7.8,0.1,15.5,0,23.3c0,3-0.6,6.1-0.5,9.1c0,1,1.3,2.4,2.3,2.8c3.9,1.8,7.9,3.2,11.9,4.8c0,0.3-0.1,0.7-0.1,1
			c-5.5,0-11,0-15.7,0c-0.7,18-2.9,35.2-1.7,52.2c1.1,17-5.1,33.8,0.4,50.8c1.5,0.5,3.6,1.2,6.1,2.1c-2.3,1.1-4.1,1.8-5.6,2.9
			c-1.3,1-3,2.5-3,3.9c-0.1,3,1.1,6,1.2,8.9C112.2,1098.3,116.7,1105.4,112.2,1113.1z"/>
		<path class="st13" d="M34.2,1195.7"/>
		<path class="st14" d="M384.5,692c4.5-1.8,5.3-5,5.4-9.3C388,686,386.4,688.7,384.5,692z"/>
		<path class="st15" d="M384.5,692c1.9-3.3,3.5-6,5.4-9.3C389.8,687,389,690.2,384.5,692z"/>
	</g>
	<g>
		<path class="st16" d="M223.3,186.8c-0.4,0-0.6-0.1-0.8-0.3c-0.2-0.2-0.3-0.4-0.5-0.6c-0.4-0.6-0.8-1.2-1.2-1.8
			c-0.5-0.6-0.9-1.3-1.4-1.9c-0.5-0.6-1-1.2-1.5-1.8s-0.9-1-1.3-1.4c-1.6,0.4-3.4,0.7-5.2,0.7c-2.2,0-4.1-0.3-5.9-0.9
			c-1.8-0.6-3.3-1.7-4.6-3.3c-1.3-1.6-2.3-3.8-3-6.5c-0.7-2.8-1-6.3-1-10.6c0-4.3,0.3-7.8,1-10.6c0.7-2.8,1.7-4.9,3-6.5
			c1.3-1.6,2.8-2.7,4.6-3.3c1.8-0.6,3.8-0.9,5.9-0.9c2.2,0,4.2,0.3,6,0.9c1.8,0.6,3.3,1.7,4.6,3.3c1.3,1.6,2.3,3.8,3,6.5
			c0.7,2.8,1,6.3,1,10.6c0,2.7-0.1,5.1-0.4,7.2c-0.3,2.1-0.7,3.9-1.3,5.5s-1.2,2.9-2,3.9c-0.8,1.1-1.7,1.9-2.7,2.6
			c1.1,1.3,2.3,2.8,3.6,4.4c1.3,1.7,2.4,3.3,3.2,4.8H223.3z M200.6,158.3c0,3.2,0.2,6,0.5,8.3c0.3,2.3,0.9,4.2,1.8,5.6
			c0.8,1.5,2,2.5,3.4,3.2c1.4,0.7,3.2,1,5.3,1c2.1,0,3.8-0.3,5.2-1c1.4-0.7,2.5-1.7,3.4-3.2c0.9-1.5,1.5-3.3,1.8-5.6
			c0.4-2.3,0.5-5,0.5-8.3c0-3.2-0.2-6-0.5-8.3c-0.4-2.3-1-4.2-1.8-5.6c-0.8-1.4-2-2.5-3.4-3.2c-1.4-0.7-3.2-1-5.3-1
			c-2.1,0-3.9,0.3-5.3,1c-1.4,0.7-2.5,1.7-3.4,3.2c-0.8,1.4-1.4,3.3-1.8,5.6C200.8,152.3,200.6,155.1,200.6,158.3z"/>
		<path class="st16" d="M253.2,175.8c-0.4,0.4-1,0.9-1.6,1.4c-0.6,0.5-1.4,0.9-2.2,1.3c-0.8,0.4-1.8,0.7-2.8,1
			c-1,0.2-2.2,0.4-3.4,0.4c-2.9,0-5.2-0.8-7-2.5c-1.7-1.7-2.6-4.3-2.6-8v-20.4h2.5c0.6,0,0.9,0.3,0.9,0.9v19.4
			c0,2.8,0.6,4.7,1.9,5.9c1.3,1.2,2.9,1.8,5,1.8c1.1,0,2.1-0.1,3-0.4c0.9-0.3,1.8-0.6,2.6-1c0.8-0.4,1.5-0.9,2.1-1.4
			c0.6-0.5,1.1-1,1.5-1.4v-23.8h2.5c0.6,0,0.9,0.3,0.9,0.9v29.3h-2.2c-0.6,0-0.9-0.3-0.9-0.9L253.2,175.8z"/>
		<path class="st16" d="M276.9,179.6c-2.2,0-4.2-0.3-5.8-0.8c-1.6-0.5-3-1.4-4-2.6c-1.1-1.2-1.9-2.8-2.4-4.8c-0.5-2-0.8-4.4-0.8-7.2
			c0-2.9,0.3-5.4,0.8-7.4c0.5-2,1.3-3.7,2.3-4.9c1-1.3,2.3-2.2,3.8-2.8c1.5-0.6,3.2-0.9,5.2-0.9c2.2,0,4,0.3,5.4,1
			c1.4,0.7,2.5,1.6,3.3,2.7c0.8,1.1,1.3,2.5,1.6,4s0.5,3.2,0.5,5c0,0.8,0,1.6-0.1,2.4c-0.1,0.8-0.2,1.4-0.3,1.9h-19.1
			c0.1,2,0.3,3.8,0.7,5.2c0.3,1.4,0.8,2.6,1.6,3.5c0.7,0.9,1.7,1.6,3,2c1.3,0.4,2.9,0.6,4.9,0.6c2,0,3.5-0.1,4.7-0.3
			c1.2-0.2,2-0.3,2.5-0.3c0.4,0,0.6,0.1,0.8,0.3c0.1,0.2,0.2,0.4,0.2,0.6v1.6c-0.9,0.3-2.1,0.6-3.7,0.8
			C280.3,179.5,278.6,179.6,276.9,179.6z M275.9,151.1c-1.7,0-3.1,0.3-4.2,0.8c-1.1,0.6-2,1.4-2.6,2.4c-0.7,1-1.1,2.2-1.4,3.6
			c-0.3,1.4-0.4,2.9-0.5,4.5h16.1c0-0.3,0.1-0.5,0.1-0.8c0-0.3,0-0.5,0-0.8c0-1.6-0.1-3-0.3-4.3c-0.2-1.2-0.6-2.3-1.1-3.1
			c-0.6-0.8-1.3-1.4-2.3-1.8S277.5,151.1,275.9,151.1z"/>
		<path class="st16" d="M293.4,178.6c-0.5-0.2-0.8-0.6-0.8-1.1v-1.7c1,0.2,2.3,0.4,3.8,0.6c1.5,0.2,3.1,0.3,4.8,0.3
			c1.7,0,3-0.1,4.1-0.4c1.1-0.2,1.9-0.6,2.5-1.1c0.6-0.5,1-1.1,1.2-1.7c0.2-0.7,0.3-1.5,0.3-2.4c0-1.1-0.2-1.9-0.5-2.6
			c-0.3-0.6-0.9-1.2-1.5-1.6c-0.7-0.4-1.5-0.8-2.6-1.1c-1-0.3-2.3-0.6-3.7-1c-1.2-0.3-2.3-0.7-3.4-1c-1.1-0.4-2-0.8-2.8-1.4
			c-0.8-0.6-1.4-1.4-1.9-2.3c-0.5-0.9-0.7-2.1-0.7-3.6c0-2.6,0.8-4.5,2.5-6c1.7-1.4,4.2-2.1,7.6-2.1c0.4,0,0.9,0,1.6,0
			c0.7,0,1.4,0.1,2.2,0.1c0.8,0.1,1.5,0.2,2.3,0.3c0.8,0.1,1.4,0.3,1.9,0.4c0.5,0.2,0.8,0.6,0.8,1.1v1.6c-1.2-0.2-2.6-0.4-4-0.5
			c-1.4-0.2-2.8-0.2-4.2-0.2c-1.4,0-2.6,0.1-3.6,0.3c-1,0.2-1.7,0.5-2.3,1c-0.6,0.4-1,0.9-1.2,1.6c-0.2,0.6-0.3,1.4-0.3,2.2
			c0,0.9,0.1,1.7,0.4,2.3c0.3,0.6,0.7,1.1,1.3,1.5c0.6,0.4,1.4,0.8,2.3,1.1c0.9,0.3,2.1,0.6,3.5,0.9c1.4,0.3,2.6,0.7,3.8,1
			c1.2,0.4,2.2,0.9,3.1,1.5c0.9,0.6,1.6,1.4,2.1,2.5c0.5,1,0.8,2.3,0.8,3.9c0,3.1-1,5.3-2.9,6.7c-1.9,1.3-4.6,2-8,2
			c-0.5,0-1.1,0-1.9-0.1c-0.8,0-1.6-0.1-2.5-0.2c-0.8-0.1-1.6-0.2-2.4-0.3C294.4,179,293.8,178.8,293.4,178.6z"/>
		<path class="st16" d="M330.9,176.5c0.5,0,0.8,0.1,1,0.3c0.2,0.2,0.2,0.4,0.2,0.6v1.6c-1.5,0.3-2.9,0.5-4.3,0.5
			c-1.3,0-2.4-0.1-3.3-0.4c-0.9-0.3-1.6-0.7-2.1-1.3c-0.5-0.5-0.9-1.2-1.1-1.9c-0.2-0.7-0.3-1.5-0.3-2.4v-21.7h-2.7
			c-0.6,0-0.9-0.3-0.9-0.9v-2h3.6v-8.1h2.5c0.6,0,0.9,0.3,0.9,0.9v7.2h6.8c0.6,0,0.9,0.3,0.9,0.9v2h-7.7V173c0,0.6,0,1.1,0.1,1.5
			c0.1,0.4,0.3,0.8,0.6,1.1c0.3,0.3,0.7,0.6,1.3,0.7c0.6,0.2,1.4,0.2,2.4,0.2c0.4,0,0.9,0,1.3,0
			C330.4,176.5,330.7,176.5,330.9,176.5z"/>
		<path class="st16" d="M342,151c1.1-0.8,2.3-1.4,3.8-2c1.4-0.6,3.1-0.8,5.2-0.8c3.6,0,6.4,1.3,8.2,3.9c1.8,2.6,2.7,6.4,2.7,11.5
			c0,3-0.3,5.5-0.8,7.5s-1.3,3.7-2.3,5c-1,1.3-2.3,2.2-3.9,2.8c-1.6,0.6-3.4,0.9-5.6,0.9c-0.9,0-1.8-0.1-2.8-0.1
			c-1-0.1-1.9-0.2-2.8-0.4c-0.9-0.2-1.7-0.3-2.4-0.5c-0.7-0.2-1.3-0.3-1.6-0.5c-0.5-0.2-0.8-0.4-0.9-0.7c-0.1-0.2-0.2-0.5-0.2-0.9
			V136h1.9c0.6,0,0.9,0.1,1.2,0.3c0.2,0.2,0.3,0.6,0.3,1.2V151z M342,175.8c1,0.2,2.1,0.5,3.3,0.7c1.2,0.2,2.4,0.3,3.8,0.3
			c1.6,0,3-0.2,4.2-0.6c1.2-0.4,2.2-1,2.9-2s1.3-2.3,1.7-4c0.4-1.7,0.6-3.8,0.6-6.5c0-4.5-0.7-7.8-2-9.7c-1.4-2-3.4-2.9-6.1-2.9
			c-1.9,0-3.5,0.3-4.8,0.9c-1.3,0.6-2.5,1.3-3.5,2V175.8z"/>
		<path class="st16" d="M380.7,148.2c4.3,0,7.4,1.3,9.4,3.9c1.9,2.6,2.9,6.6,2.9,11.9c0,5.4-1,9.4-2.9,12s-5,3.9-9.4,3.9
			s-7.4-1.3-9.4-3.9s-2.9-6.6-2.9-12c0-5.4,1-9.3,2.9-11.9C373.2,149.5,376.3,148.2,380.7,148.2z M380.7,176.9
			c1.5,0,2.8-0.2,3.9-0.7c1.1-0.5,2-1.2,2.8-2.2s1.3-2.3,1.7-4c0.4-1.6,0.5-3.6,0.5-6c0-2.4-0.2-4.4-0.5-6c-0.4-1.6-0.9-2.9-1.7-4
			s-1.7-1.8-2.8-2.2c-1.1-0.5-2.4-0.7-3.9-0.7c-1.5,0-2.8,0.2-3.9,0.7c-1.1,0.5-2,1.2-2.8,2.2c-0.7,1-1.3,2.3-1.7,4
			c-0.4,1.6-0.5,3.6-0.5,6c0,2.4,0.2,4.4,0.5,6c0.4,1.6,0.9,3,1.7,4c0.7,1,1.7,1.8,2.8,2.2C377.9,176.6,379.2,176.9,380.7,176.9z"/>
		<path class="st16" d="M417.9,175.8c-0.5,0.5-1.1,1-1.7,1.4c-0.7,0.5-1.4,0.9-2.3,1.2c-0.8,0.4-1.7,0.7-2.6,0.9
			c-0.9,0.2-1.9,0.4-3,0.4c-3.3,0-5.8-0.8-7.3-2.5c-1.6-1.7-2.3-4-2.3-7c0-3.4,1-5.8,2.9-7.3c1.9-1.5,4.7-2.2,8.4-2.2h7.9v-2.3
			c0-1.3-0.1-2.4-0.4-3.4c-0.3-0.9-0.8-1.6-1.4-2.2s-1.5-0.9-2.6-1.2c-1.1-0.2-2.4-0.4-3.9-0.4c-1.8,0-3.5,0.1-5,0.4
			c-1.5,0.2-2.5,0.4-3,0.4c-0.6,0-1-0.3-1-1v-1.4c1.6-0.4,3.2-0.7,4.9-0.9c1.7-0.2,3.2-0.2,4.7-0.2c2.2,0,4,0.3,5.5,0.8
			c1.4,0.5,2.6,1.2,3.4,2.1c0.8,0.9,1.4,2,1.7,3.2c0.3,1.2,0.5,2.6,0.5,4v20.6h-2.2c-0.6,0-0.9-0.3-0.9-0.9L417.9,175.8z
			 M417.7,163.4h-8c-1.6,0-2.9,0.2-3.9,0.5c-1,0.4-1.9,0.9-2.5,1.5c-0.6,0.6-1,1.3-1.3,2.2c-0.2,0.8-0.4,1.7-0.4,2.6
			c0,2.4,0.6,4.2,1.9,5.2c1.2,1,2.9,1.5,5,1.5c2,0,3.8-0.4,5.3-1.3c1.5-0.9,2.8-1.8,3.8-2.9V163.4z"/>
		<path class="st16" d="M441.3,148.8c0.8,0,1.3,0.1,1.5,0.2c0.2,0.2,0.3,0.4,0.3,0.7v2.2c-0.3,0-0.6-0.1-0.9-0.1c-0.3,0-0.5,0-0.8,0
			c-1.8,0-3.5,0.4-4.9,1.1c-1.4,0.7-2.8,1.9-4.2,3.5v22.6h-2.5c-0.6,0-0.9-0.3-0.9-0.9v-29.3h2.2c0.6,0,0.9,0.3,0.9,0.9l0.1,3.4
			c0.4-0.5,1-1,1.6-1.5c0.6-0.5,1.3-1,2.1-1.4c0.8-0.4,1.6-0.8,2.5-1C439.4,148.9,440.4,148.8,441.3,148.8z"/>
		<path class="st16" d="M469.1,179.1c-0.6,0-0.9-0.3-0.9-0.9l-0.1-2.4c-1,1-2.2,1.9-3.7,2.7s-3.4,1.2-5.7,1.2c-2,0-3.7-0.4-5.1-1.2
			c-1.4-0.8-2.5-1.9-3.3-3.2c-0.8-1.4-1.4-3-1.7-4.9c-0.3-1.9-0.5-4-0.5-6.4c0-5.6,1-9.7,3.1-12.1c2.1-2.4,5.1-3.7,9.1-3.7
			c2,0,3.6,0.2,4.8,0.7c1.2,0.4,2.2,0.8,2.9,1.1v-14h2.5c0.6,0,0.9,0.3,0.9,0.9v42.2H469.1z M468,152.8c-1-0.5-2.1-0.9-3.3-1.2
			c-1.1-0.3-2.5-0.5-4-0.5c-1.6,0-3,0.2-4.2,0.7c-1.2,0.5-2.1,1.2-2.9,2.2s-1.3,2.3-1.6,4c-0.3,1.6-0.5,3.6-0.5,5.9
			c0,4.3,0.5,7.5,1.6,9.6c1.1,2.1,3.1,3.2,6.1,3.2c1.1,0,2.1-0.1,2.9-0.4c0.9-0.3,1.7-0.6,2.4-1c0.7-0.4,1.4-0.8,1.9-1.3
			c0.6-0.5,1-0.9,1.4-1.4V152.8z"/>
	</g>
	<g>
		<ellipse class="st17" cx="335.4" cy="109.3" rx="7.2" ry="8.2"/>
		<g>
			<path class="st18" d="M340,104.1c0.4,0.8,0.6,1.6,0.6,2.6c0,3-2.4,5.4-5.4,5.4c-0.4,0-0.7,0-1-0.1l4.9-8.8l0.1-0.1l-0.3,0
				c0,0,0,0,0,0c-0.2,0-0.3,0-0.5-0.1c-0.1-0.1-0.3-0.1-0.4-0.2c0,0,0,0,0,0c0,0-0.3-0.3-0.4-0.3c-0.1-0.1-0.1-0.2-0.1-0.2
				c0,0-0.1-0.1-0.1-0.2c0,0-0.1-0.1-0.1-0.2c-0.1-0.1-0.1-0.2-0.1-0.3c0,0-0.1,0-0.1,0l0,0l-5.2,9.2c-0.4-0.3-0.7-0.6-0.9-1
				c0.2,0.4,0.5,0.8,0.9,1.2l0,0c0.1,0.1,0.2,0.2,0.3,0.3c0.1,0,0.1,0.1,0.2,0.2c0.1,0.1,0.2,0.1,0.3,0.2c0.1,0.1,0.2,0.1,0.3,0.2
				c0.4,0.2,0.9,0.3,1.3,0.5c0.1,0,0.1,0.1,0.2,0.1c0.5,0.1,0.9,0.2,1.4,0.2c2.8-0.1,5.2-2.4,5.2-5.2C341,106.2,340.6,105,340,104.1
				z"/>
			<path class="st19" d="M339.2,103.1L339.2,103.1l-0.1,0.1l-4.9,8.8c0.3,0.1,0.7,0.1,1,0.1c3,0,5.4-2.4,5.4-5.4
				c0-0.9-0.2-1.8-0.6-2.6C339.8,103.7,339.5,103.4,339.2,103.1z"/>
			<path class="st19" d="M331.8,110.8l5.2-9.2c-0.5-0.2-1.1-0.3-1.7-0.3c-3,0-5.4,2.4-5.4,5.4c0,1.2,0.4,2.2,1,3.1
				C331.1,110.2,331.4,110.5,331.8,110.8z"/>
		</g>
	</g>
</g>
</svg>
