<?xml version="1.0" encoding="utf-8"?>
<!-- Generator: Adobe Illustrator 19.1.0, SVG Export Plug-In . SVG Version: 6.00 Build 0)  -->
<svg version="1.1" id="Ebene_1" xmlns="http://www.w3.org/2000/svg" xmlns:xlink="http://www.w3.org/1999/xlink" x="0px" y="0px"
	 viewBox="0 0 640 1136" style="enable-background:new 0 0 640 1136;" xml:space="preserve">
<style type="text/css">
	.st0{fill:#A67C52;}
	.st1{fill:#996948;}
	.st2{fill:#EDC57E;}
	.st3{fill:#FFEFD9;}
	.st4{fill:#EDC57E;stroke:#EDC57E;stroke-width:2;stroke-miterlimit:10;}
</style>
<g id="Ebene_2">
</g>
<g id="Ebene_1_1_">
	<path class="st0" d="M-402.6,10.6h2.6c0.4,0,0.6-0.3,0.6-0.6l0,0c0-0.4-0.3-0.6-0.6-0.6h-2.6c-0.4,0-0.6,0.3-0.6,0.6l0,0
		C-403.3,10.3-403,10.6-402.6,10.6z"/>
	<g>
		<g>
			<path class="st1" d="M588.3,556.9c0.3-8.3,0.6-16.6,0.9-24.9c-1.8-5.8-4.7-10.9-9.8-14.4c-0.3-0.2-0.5-0.4-0.8-0.7l0,0H578
				c-1.5,0-2.7-0.6-3.5-1.5l0,0l-0.1-0.1c-0.9-0.9-1.3-2.1-1.3-3.4c0-0.6,0.1-1.2,0.3-1.8c-2.4-0.5-4.8-1-7.3-1.5l9.2-0.9
				c0.7-0.5,1.6-0.8,2.7-0.8h0.7c0.5,0,1.1,0.1,1.6,0.3c2.8-0.3,5.7-0.6,8.5-0.9c-0.7-16.2-0.2-32.4,1.7-48.5
				c-16.3-1.6-32.5-3.2-48.8-4.8c16-0.5,32-0.5,48,0.2c-4.1-11.3-4.5-23.9-1.1-35.5c-9.8-0.6-19.6-1.1-29.3-1.7
				c8.9-0.1,17.7-0.2,26.6-0.3c2.3-12.9,3.2-26,2.6-39.1c-20.7-1.7-41.5-3.4-62.2-5.1c16.3-0.3,32.5-1.5,48.6-3.7
				c13.7-1.9-2-61.7,28.1-64.7c-189.2,19.1-380,15.2-570,5.1c9.7,12.8,10.6,51.9,22.7,57.2c11.2,4.9,23.4,7.7,35.6,8.4l-38.8,0.9
				c-2.4,0.1-5,0.2-7.1,1.2c0.8,4.2,1.4,8.6,0.8,12.8c1.6,0.6,3.5,0.5,5.1-0.1c-4.8,2.9-5.9,9.8-6.3,15.7c-1,15.5-2,31-3,46.4
				c23-0.7,45.9,0.3,68.8,3c-17.3-0.4-34.6-0.9-51.9-1.3c-4.8-0.1-10.6,0.2-13.1,4.3c-1.5,2.4-1.4,5.3-1.3,8.1
				c0.5,11.3,0.9,22.5,1.4,33.8c0.2,4.4,0.3,9-1.4,13c-0.9,2.2-2.3,4.2-2.9,6.5c-1.7,7.4,6.5,13.5,14,14.6s15.6-0.4,22.6,2.6
				c-11.8,1.1-23.5,2.1-35.3,3.2c0.9,13.2,1.1,26.5,0.9,39.7c1.4-0.2,2.9-0.3,4.5-0.3c2.3,0.1,3.8,1.5,4.4,3.2c1,0,1.9,0,2.9,0
				c15.1-0.2,30.1-0.5,45.2-0.7c-15.9,1-31.8,2.1-47.7,3.1c-0.1,2.4-1.7,4.6-4.8,4.4c-2.5-0.1-4.1,0.6-5.2,2
				c-0.4,3.1-0.1,7-0.1,11.7v5.8c0.3,1.1,0.4,2.2,0.6,3.3c7.6-0.8,15.2-2.1,22.5-4.1c-10.6,5.4-14.7,5.9-20.2,15.5
				c-6.2,10.8-8.5,22.6-16.4,33c110-31.4,227-6.4,341.3-0.6c23.1,1.2,46.2,1.5,69.3,1.9c52.8,0.8,106.4,1.5,157.4-12.3
				c-9.3-5.9-13.3-14.9-13.5-25.3c-0.1-5.1,7.9-23.1,5.1-26.7c-4.6-6-14.3-7.3-23.4-7.8c6.4,0.3,12.9,0.2,19.3-0.5
				c0.8-0.1,1.8-0.2,2.3-0.9c0.4-0.5,0.4-1.2,0.5-1.9c0-1,0.1-2.1,0.1-3.1c-2.4-1.7-3.9-5.4-1.1-7.7c0.4-0.4,0.9-0.7,1.4-1.1
				l0.2-6.7c-0.4-1.1-0.5-2.3-0.3-3.3C588,558.4,588.1,557.6,588.3,556.9z"/>
			<path class="st2" d="M582.3,550.3c0.3-8.3,0.6-16.6,0.9-24.9c-1.8-5.8-4.7-10.9-9.8-14.4c-0.3-0.2-0.5-0.4-0.8-0.7l0,0H572
				c-1.5,0-2.7-0.6-3.5-1.5l0,0l-0.1-0.1c-0.9-0.9-1.3-2.1-1.3-3.4c0-0.6,0.1-1.2,0.3-1.8c-2.4-0.5-4.8-1-7.3-1.5l9.2-0.9
				c0.7-0.5,1.6-0.8,2.7-0.8h0.7c0.5,0,1.1,0.1,1.6,0.3c2.8-0.3,5.7-0.6,8.5-0.9c-0.7-16.2-0.2-32.4,1.7-48.5
				c-16.3-1.6-32.5-3.2-48.8-4.8c16-0.5,32-0.5,48,0.2c-4.1-11.3-4.5-23.9-1.1-35.5c-9.8-0.6-19.6-1.1-29.3-1.7
				c8.9-0.1,17.7-0.2,26.6-0.3c2.3-12.9,3.2-26,2.6-39.1c-20.7-1.7-41.5-3.4-62.2-5.1c16.3-0.3,32.5-1.5,48.6-3.7
				c13.7-1.9-2-61.7,28.1-64.7c-189.2,19.1-380,15.2-570,5.1c9.7,12.8,10.6,51.9,22.7,57.2c11.2,4.9,23.4,7.7,35.6,8.4l-38.8,0.9
				c-2.4,0.1-5,0.2-7.1,1.2c0.8,4.2,1.4,8.6,0.8,12.8c1.6,0.6,3.5,0.5,5.1-0.1c-4.8,2.9-5.9,9.8-6.3,15.7c-1,15.5-2,31-3,46.4
				c23-0.7,45.9,0.3,68.8,3c-17.3-0.4-34.6-0.9-51.9-1.3c-4.8-0.1-10.6,0.2-13.1,4.3c-1.5,2.4-1.4,5.3-1.3,8.1
				c0.5,11.3,0.9,22.5,1.4,33.8c0.2,4.4,0.3,9-1.4,13c-0.9,2.2-2.3,4.2-2.9,6.5c-1.7,7.4,6.5,13.5,14,14.6s15.6-0.4,22.6,2.6
				c-11.8,1.1-23.5,2.1-35.3,3.2c0.9,13.2,1.1,26.5,0.9,39.7c1.4-0.2,2.9-0.3,4.5-0.3c2.3,0.1,3.8,1.5,4.4,3.2c1,0,1.9,0,2.9,0
				c15.1-0.2,30.1-0.5,45.2-0.7c-15.9,1-31.8,2.1-47.7,3.1c-0.1,2.4-1.7,4.6-4.8,4.4c-2.5-0.1-4.1,0.6-5.2,2
				c-0.4,3.1-0.1,7-0.1,11.7v5.8c0.3,1.1,0.4,2.2,0.6,3.3c7.6-0.8,15.2-2.1,22.5-4.1c-10.6,5.4-14.7,5.9-20.2,15.5
				c-6.2,10.8-8.5,22.6-16.4,33c110-31.4,227-6.4,341.3-0.6c23.1,1.2,46.2,1.5,69.3,1.9c52.8,0.8,106.4,1.5,157.4-12.3
				c-9.3-5.9-13.3-14.9-13.5-25.3c-0.1-5.1,7.9-23.1,5.1-26.7c-4.6-6-14.3-7.3-23.4-7.8c6.4,0.3,12.9,0.2,19.3-0.5
				c0.8-0.1,1.8-0.2,2.3-0.9c0.4-0.5,0.4-1.2,0.5-1.9c0-1,0.1-2.1,0.1-3.1c-2.4-1.7-3.9-5.4-1.1-7.7c0.4-0.4,0.9-0.7,1.4-1.1
				l0.2-6.7c-0.4-1.1-0.5-2.3-0.3-3.3C582,551.9,582.1,551.1,582.3,550.3z"/>
			<path class="st3" d="M488.6,561.1H133.1c-6.6,0-12-5.4-12-12V406.6c0-6.6,5.4-12,12-12h355.5c6.6,0,12,5.4,12,12v142.5
				C500.6,555.7,495.2,561.1,488.6,561.1z"/>
		</g>
		<rect x="105.6" y="473" class="st4" width="402" height="7.7"/>
	</g>
</g>
</svg>
