<?xml version="1.0" encoding="utf-8"?>
<!-- Generator: Adobe Illustrator 19.1.0, SVG Export Plug-In . SVG Version: 6.00 Build 0)  -->
<svg version="1.1" id="Ebene_1" xmlns="http://www.w3.org/2000/svg" xmlns:xlink="http://www.w3.org/1999/xlink" x="0px" y="0px"
	 viewBox="1 31.1 642.5 1075.9" style="enable-background:new 1 31.1 642.5 1075.9;" xml:space="preserve">
<style type="text/css">
	.st0{fill:#62B6F4;}
	.st1{fill:#95D3F9;}
	.st2{fill:#D2D860;}
	.st3{fill:#6FB533;}
	.st4{fill:#568E21;}
	.st5{fill:#C6884F;}
	.st6{fill:#965B32;}
	.st7{fill:#893F0E;}
	.st8{fill:none;}
	.st9{fill:#893F0E;stroke:#965B32;stroke-width:16;stroke-miterlimit:10;}
	.st10{fill:#C6884F;stroke:#965B32;stroke-width:16;stroke-miterlimit:10;}
	.st11{fill:#B77446;}
	.st12{fill:#8C6239;}
	.st13{fill:#E2BD86;}
	.st14{opacity:0.3;enable-background:new    ;}
	.st15{fill:#808080;}
	.st16{fill:#AFAFAF;}
	.st17{opacity:0.3;}
	.st18{fill:#FBB03B;}
	.st19{fill:#FBB03B;stroke:#FBB03B;stroke-miterlimit:10;}
	.st20{fill:#FFF7CA;}
	.st21{font-family:'HPSimplified-Bold';}
	.st22{font-size:32.3034px;}
	.st23{fill:none;stroke:#F7931E;stroke-miterlimit:10;}
	.st24{fill:#FBAE17;}
	.st25{fill:#FFD58A;}
</style>
<g id="Ebene_2">
	<rect x="1" y="31.1" class="st0" width="642.5" height="1075.9"/>
	<path class="st1" d="M325.7,551.9c-140,0-262.1,76.4-327.2,189.8v369.1H644v-384C576.9,621.7,459.4,551.9,325.7,551.9z"/>
</g>
<g id="Ebene_3">
	<path class="st2" d="M625.4,1017.1c-162.4-0.5-169.4,32.2-309.4,25.3c-152.8-7.5-186.3-48.5-274.3-36.2
		c-14.9,2.1-29.3,5.4-43.2,9.8v86.3H644v-85C637.9,1017.2,631.8,1017.1,625.4,1017.1z"/>
	<path class="st3" d="M643.9,1027.5c-86,13.2-105.2,45.3-206.3,41.1c-51.7-2.1-87.8-12.2-117.2-22.5l2.6,64.7h320.9V1027.5z"/>
	<path class="st3" d="M182.1,1019.1c-98.9-0.5-130.5,22.7-183.6,32.7v59.1H452v-55.5C346.8,1064.3,318.4,1019.8,182.1,1019.1z"/>
	<path class="st3" d="M-228.5,685.4"/>
	<path class="st4" d="M587.5,1066.9c-97.2,15.5-115.9-31.3-231.3-32c-111.3-0.7-116,42.7-212,33.6c-77-7.3-109.8-38.6-145.8-48.2
		v86.7h645.5v-54.9C628.3,1057.8,609.9,1063.3,587.5,1066.9z"/>
	<path class="st5" d="M322.7,1099.4c-125.8,0-240.2,0.9-325.9,2.4c0.6,3.7,0.8,7.5,0.8,11.3h647.2c0.2-3.8,0.4-7.5,0.8-11.3
		C560.3,1100.3,447,1099.4,322.7,1099.4z"/>
</g>
<g id="Ebene_4">
	<rect x="184" y="971" class="st6" width="422.5" height="18"/>
	<rect x="186" y="105" class="st6" width="422.5" height="18"/>
	<rect x="46" y="89.5" class="st7" width="18" height="1023.6"/>
	<line class="st8" x1="-405.6" y1="116" x2="-828" y2="116"/>
	<path class="st9" d="M-537.5,22.5"/>
	<path class="st9" d="M-537.5,928.4"/>
	<rect x="51.5" y="89.5" class="st6" width="18" height="1017.5"/>
	<rect x="42" y="108" class="st6" width="422.5" height="18"/>
	<rect x="41" y="968.5" class="st6" width="422.5" height="18"/>
	<path class="st10" d="M540.3,1000.4H115.6c-19.4,0-35.1-15.7-35.1-35.1V129.6c0-19.4,15.7-35.1,35.1-35.1h424.7
		c19.4,0,35.1,15.7,35.1,35.1v835.7C575.4,984.7,559.7,1000.4,540.3,1000.4z"/>
	<g>
		<g>
			<path class="st6" d="M67.7,969.5c-1.2-5.1-5.4-9.2-10.7-9.9c-2.1-0.3-5-0.3-6.5,1.5c-1.3,1.5-1.2,3.8,0.4,5
				c1.5,1.2,3.6-0.9,2.1-2.1c0.5-1.2,1.3-1.7,2.4-1.6c0.7,0,1.3,0.1,2,0.3c1.2,0.3,2.3,0.8,3.3,1.5c2.2,1.5,3.5,3.6,4.1,6.1
				C65.2,972.2,68.1,971.4,67.7,969.5L67.7,969.5z"/>
		</g>
	</g>
	<g>
		<g>
			<path class="st11" d="M72.2,127.4c-1.4-6.3-4.5-12-9.2-16.3c-3.4-3.2-9.2-7.6-13.9-4.5c-1.6,1.1-0.1,3.7,1.5,2.6
				c4.2-2.7,10.9,4.3,13.1,7.1c2.8,3.5,4.6,7.5,5.6,11.9C69.7,130.1,72.6,129.3,72.2,127.4L72.2,127.4z"/>
		</g>
	</g>
	<g>
		<g>
			<path class="st11" d="M51.5,129.6c-3.5-9.7,3.2-19.4,13.5-19.2c1.9,0,1.9-3,0-3c-12.2-0.1-20.6,11.5-16.4,23
				C49.2,132.2,52.1,131.4,51.5,129.6L51.5,129.6z"/>
		</g>
	</g>
	<g>
		<g>
			<path class="st11" d="M65.4,987c5.4-1.8,5.8-8.3,2.6-12.3c-4.7-6.1-12.7-5.5-19.5-4.4c-1.9,0.3-1.1,3.2,0.8,2.9
				c4.1-0.7,8.7-1.4,12.7,0.5c3.2,1.5,8.6,8.5,2.6,10.4C62.8,984.7,63.5,987.6,65.4,987L65.4,987z"/>
		</g>
	</g>
	<g>
		<g>
			<path class="st11" d="M50.6,986.4c2.1-8.7,9.5-15.3,18.4-16.2c1.9-0.2,1.9-3.2,0-3c-10.3,1.1-18.8,8.3-21.3,18.4
				C47.2,987.5,50.1,988.3,50.6,986.4L50.6,986.4z"/>
		</g>
	</g>
	<rect x="592.4" y="83.4" class="st7" width="18" height="1023.6"/>
	<rect x="587.9" y="83.4" class="st6" width="18" height="1035.5"/>
	<g>
		<g>
			<path class="st5" d="M591.6,121.3c-4.3-1.7-4,7.6,1.1,4.4c0.9-0.5,1.5-1.5,1.8-2.4c1.1-2.9,1.4-5.3,3.5-7.8
				c3.2-3.7,7.5-6,12.3-6.8c1.9-0.3,1.1-3.2-0.8-2.9c-4.3,0.7-8.2,2.6-11.5,5.5c-1.5,1.4-2.9,3-4,4.7c-0.6,0.9-3.7,8-3.2,8.2
				C592.6,124.9,593.3,122,591.6,121.3L591.6,121.3z"/>
		</g>
	</g>
	<g>
		<g>
			<path class="st5" d="M590.4,108.6c1.6-3.1,5.1-2.8,7.9-1.4c3,1.5,4.5,4,5.8,7c2,4.7,3.2,9.4,6.7,13.2c1.3,1.4,3.4-0.7,2.1-2.1
				c-5.4-5.8-4.9-15.4-11.7-19.9c-4.3-2.8-10.7-3.5-13.4,1.7C586.9,108.8,589.5,110.3,590.4,108.6L590.4,108.6z"/>
		</g>
	</g>
	<g>
		<g>
			<path class="st5" d="M593.7,993.1c10,2.2,20.4-4.5,22.2-14.6c0.3-1.9-2.5-2.7-2.9-0.8c-1.5,8.5-10,14.4-18.5,12.5
				C592.6,989.8,591.8,992.7,593.7,993.1L593.7,993.1z"/>
		</g>
	</g>
	<g>
		<g>
			<path class="st5" d="M592.1,972.6c9-0.5,17.3,6.3,18.1,15.4c0.2,1.9,3.2,1.9,3,0c-1-10.6-10.4-19-21.1-18.4
				C590.2,969.7,590.2,972.7,592.1,972.6L592.1,972.6z"/>
		</g>
	</g>
	<path class="st12" d="M102.3,1259.8c1.4,0.2,1.9,0.4,2.5,0.4c43.1-0.4,86.2-0.6,129.3-1.4c8.6-0.2,17.2-2.5,25.8-3.9
		c6.5-1,12.9-2.6,19.4-3.1c16.4-1.4,32.9-2.7,49.4-3.3c22.5-0.8,45.1-1.3,67.6-1.2c10.2,0,20.5,1.3,30.7,2.5
		c7.5,0.9,15,2.3,22.5,3.7c12.1,2.2,24.1,5.3,36.3,6.6c10.7,1.1,21.6,0.3,32.5,0.2c1.4,0,2.9,0,4-0.6c7.9-4.3,15.6-9.1,23.7-12.9
		c5.1-2.4,23.3-11.5,22.9-16.7c-0.5-6.7-16.7-7.5-16.7-14.2c-0.4,0-0.7-0.1-1.1-0.1c-0.7,2-1.5,4-2.5,6.9c-1-2.6-2.1-4.3-2.2-6
		c-0.7-7.7-1.7-15.5-1.4-23.2c0.4-9.2,2.1-18.3,3.3-27.6c-4.5-0.6-8.9-1.3-13.2-1.9c0-0.1,0-0.3,0-0.4c4.1,0,8.1,0,11.6,0
		c0-8.6-0.8-16.8,0.2-24.9c0.9-7.2-0.2-13.7-2-20.5c-1.9-7.5-2.7-15.3-3.9-22.3c-8,0.7-16.4,1.5-24.8,2.2c-0.1-0.6-0.1-1.1-0.2-1.7
		c5-0.8,9.9-1.9,14.9-2.5c3.7-0.4,5.7-1.3,5.6-5.5c-0.3-9-0.2-18-0.1-27c0-1.8,0.4-3.7,0.9-5.5c1.5-5.4,4.1-10.8,4.5-16.3
		c0.7-11.5-0.1-23.2,3.4-33.8c-11.7,0-23.3,0-34.9,0c13.3-3.9,27.1-4.3,41.1-4.2c-1.6-2.8-3.1-4.8-3.9-7c-3.2-8.4-4.8-17.1-4.6-26.1
		c0.2-13.4-1.5-27.1,0.7-40.1c2.3-13.1,3.2-26.3,3.8-39.4c0.4-7.9-1.6-15.9-2.3-23.8c-0.1-1.4,0.5-3.7,1.5-4.2
		c4.7-2.2,5.7-6,4.5-9.9c-4.1-13.9-4.1-28.2-5.3-42.3c-1.1-12-2.1-24-2.8-36.1c-0.6-10.2-1.2-20.5-0.8-30.7c0.3-7-0.8-12.5-7.9-15.7
		c-0.1,0,0-0.5,0-0.8c0.8-0.1,1.5,0,2.3-0.2c7.4-1.3,8.3-2.3,8.3-9.3c0-11.3,0-22.6,0-33.9c0-1.6-0.3-3.2-0.6-4.7
		c-2-11.7-4.3-23.4-5.8-35.2c-0.7-5.8,0.6-11.5,2.2-17.3c1.4-5.4-0.4-11.5-0.5-17.4c-0.1-7.2-0.4-14.5,0.4-21.7
		c1.1-9.6,2.8-19-0.2-28.5c-1.7-5.5-1.8-10.8,1.1-16.2c1.1-2,1.5-4.5,1.3-6.7c-1-11-3.5-21.9-3.3-32.8c0.3-15,2.7-29.9,4.2-45
		c-5.8-2.2-12.5-4.7-19.6-7.4c2.4-0.7,4.2-1.3,6.1-1.9c10-2.9,10-2.9,10-12.9c0-0.6,0-1.2,0-1.8c0-20.9,0-41.7,0-62.6
		c0-1.7,0.2-3.5,0.7-5.2c2-8,4-16,6.4-24c1-3.6,0-5.2-3.9-5.6c-3.4-0.3-6.9-0.8-10.3-1.3c0-0.2,0-0.4,0-0.6
		c4.2-0.9,8.4-1.7,12.6-2.6c-5.3-12-5.3-24.3-4.1-36.4c0.6-6.1-0.7-11.5-1.8-17.1c-0.2-0.9-2.3-1.8-3.7-2.1
		c-2.1-0.4-4.2-0.3-6.4-0.5c0-0.4,0-0.8,0-1.2c1.1-0.1,2.3-0.2,3.4-0.5c6.5-1.2,7.1-1.9,7.1-8.2c0-6-0.1-12,0-18.1
		c0-1.4,0.4-2.8,1-4.1c2.4-5.2,1.3-7-4.6-7c-111.8,0-223.5,0-335.3,0c-2.1,0-4.3,0.3-6.3,0.9c-7.9,2.5-15.9,5-23.6,8
		c-8,3.2-15.8,6.1-24.7,6c-15.3-0.3-30.4-2.4-45.2-6.3c-1.6,7,2.3,17.6,9.6,23c3.5,2.6,8.7,3.3,13.1,4.9c0.2-0.5,0.3-0.9,0.5-1.4
		c-2.1-1-4.2-2-6.3-3.1c0.1-0.2,0.3-0.5,0.4-0.7c4,1.4,8,2.9,12.9,4.7c-2,0.7-2.8,1-3.7,1.4c1.7,5.5-0.5,7.3-6.5,5.9
		c-3.5-0.8-7.1-1.6-10.6-2.3c-0.1,0.4-0.3,0.8-0.4,1.1c3,2.4,6.1,4.7,9.4,7.3c-1.7,1.1-2.7,1.7-3.7,2.3
		c-12.6,7.9-12.7,7.9-12.3,20.9c0.1,2.1,1.5,4.8,3.3,6c3,2.1,6.7,3.1,10.5,4.8c-3.8,1.2-7.5,2.6-11.3,3.4c-3.3,0.8-5.2,2.1-4.6,5.6
		c0.4,2.7,1,5.5,0.8,8.2c-0.4,7.5-1.4,15.1-1.6,22.6c-0.3,9.6-0.1,19.3-0.1,29.1c9.3,1.4,18.1,2.7,26.9,4c0,0.4-0.1,0.9-0.1,1.3
		c-8.8,0-17.6,0-27.6,0c7.9,7,18.3,5.6,26.5,10.7c-1.3,0.4-2,0.7-2.7,0.9c-6.7,2.2-13.4,4.4-20.1,6.4c-2.5,0.8-3,2.2-3,4.5
		c0.2,7.5,0.3,15,0,22.5c-0.2,5.3-0.4,10,7.1,10.4c0.4,0,0.8,0.7,1.6,1.4c-3.1,0.2-5.6,0.4-8.6,0.6c0,1.8,0,3.4,0,5
		c0,66.5,0,133.1,0,199.6c0,0.7-0.3,1.6,0.1,2.2c1,1.4,2,3.5,3.3,3.8c3.7,0.8,7.6,0.8,11.4,1.2c4,0.4,8.1,0.8,12.1,1.2
		c0,0.4,0,0.9-0.1,1.3c-8.8,0-17.6,0-26.8,0c0,27.9,0,54.9,0.2,81.9c0,1.2,2.3,3.2,3.6,3.3c6.4,0.7,12.9,0.8,19.3,1.2
		c7.2,0.6,14.3,1.2,21.5,2.1c1,0.1,1.8,1.5,2.7,2.4c-1,0.8-1.9,2.3-3,2.4c-2.9,0.4-5.9,0.2-8.8,0.4c-9.6,0.6-19.3,1.2-28.9,2.1
		c-5.4,0.5-7.1,2.7-6.6,7.3s1,9.3,0.8,13.9c-0.3,7.7,1.3,14.9,3.1,22.3c1.6,6.4,2.7,13.3,2.3,19.8c-1.2,17.3-0.9,34.4,1.3,51.6
		c1.5,12.3,1.7,24.7-0.8,37c-2.5,12.2-8.5,23.7-6.8,36.6c0.8,6.2,0.1,6.3,7,6.5c0.9,0,1.8,0.3,2.8,0.4c0,0.4,0,0.7,0,1.1
		c-1.2,0.2-2.7,0-3.6,0.6c-1.9,1.1-4.9,2.5-5,3.9c40.3-830.1,13.4-813.6-0.8,36.8c5.1,6.9,6.9,14.8,7.7,22.9
		c0.8,8.7,2.3,17.6,1,26.2c-1.3,9.1-2.6,18.1-2.4,27.3c0.1,7.8,0.1,15.6,0,23.4c0,3-0.7,6.1-0.6,9.1c0,1,1.3,2.4,2.4,2.8
		c4,1.8,8.2,3.2,12.4,4.8c0,0.3-0.1,0.7-0.1,1.1c-5.7,0-11.5,0-16.4,0c-0.8,18-3,35.2-1.8,52.3c1.2,17-5.4,33.8,0.4,50.8
		c1.6,0.5,3.8,1.2,6.3,2.1c-2.4,1.2-4.3,1.8-5.8,2.9c-1.3,1-3.1,2.6-3.1,3.9c-0.1,3,1.2,6,1.2,9
		C102.3,1244.9,107,1252.1,102.3,1259.8z"/>
	<g>
		<path class="st13" d="M110.2,1242.2c1.3,0.2,1.9,0.4,2.4,0.4c41.3-0.4,82.6-0.6,124-1.4c8.3-0.2,16.5-2.5,24.7-3.9
			c6.2-1,12.4-2.6,18.6-3.1c15.7-1.4,31.5-2.7,47.3-3.3c21.6-0.8,43.2-1.3,64.8-1.2c9.8,0,19.6,1.3,29.4,2.5
			c7.2,0.9,14.4,2.3,21.5,3.7c11.6,2.2,23.1,5.3,34.7,6.6c10.3,1.1,20.7,0.3,31.1,0.2c1.3,0,2.8,0,3.9-0.6c7.6-4.2,14.9-9,22.8-12.9
			c4.9-2.4,6.4-5.4,6-10.6c-0.5-6.7-0.1-13.5-0.1-20.3c-0.3,0-0.7-0.1-1-0.1c-0.7,2-1.4,4-2.4,6.9c-1-2.6-2-4.2-2.2-6
			c-0.6-7.7-1.6-15.5-1.3-23.2c0.4-9.1,2-18.2,3.2-27.5c-4.3-0.6-8.5-1.3-12.7-1.9c0-0.1,0-0.3,0-0.4c3.9,0,7.8,0,11.1,0
			c0-8.6-0.8-16.8,0.2-24.8c0.9-7.2-0.2-13.7-1.9-20.5c-1.8-7.5-2.6-15.3-3.7-22.3c-7.6,0.7-15.7,1.5-23.8,2.2
			c-0.1-0.6-0.1-1.1-0.2-1.7c4.8-0.8,9.5-1.9,14.3-2.4c3.5-0.4,5.5-1.3,5.4-5.5c-0.3-9-0.1-18-0.1-27c0-1.8,0.4-3.7,0.8-5.5
			c1.4-5.4,4-10.8,4.3-16.3c0.6-11.5-0.1-23.1,3.2-33.7c-11.2,0-22.3,0-33.5,0c12.8-3.9,26-4.3,39.4-4.2c-1.5-2.8-2.9-4.8-3.7-7
			c-3.1-8.4-4.6-17-4.5-26c0.2-13.4-1.5-27,0.7-40.1s3-26.2,3.6-39.4c0.4-7.9-1.6-15.8-2.2-23.8c-0.1-1.4,0.5-3.7,1.5-4.2
			c4.5-2.2,5.4-6,4.3-9.9c-3.9-13.9-3.9-28.1-5.1-42.3c-1-12-2-24-2.6-36c-0.6-10.2-1.2-20.4-0.8-30.6c0.3-6.9-0.8-12.5-7.6-15.7
			c-0.1,0,0-0.5,0-0.8c0.7-0.1,1.5,0,2.2-0.2c7-1.3,7.9-2.3,7.9-9.3c0-11.3,0-22.6,0-33.9c0-1.6-0.3-3.2-0.5-4.7
			c-1.9-11.7-4.1-23.4-5.5-35.1c-0.7-5.8,0.6-11.5,2.1-17.3c1.4-5.4-0.4-11.5-0.5-17.3c-0.1-7.2-0.4-14.5,0.4-21.6
			c1.1-9.5,2.6-19-0.2-28.5c-1.7-5.5-1.7-10.8,1.1-16.1c1-2,1.5-4.5,1.3-6.7c-1-10.9-3.4-21.9-3.1-32.8c0.3-15,2.6-29.9,4-44.9
			c-5.6-2.2-12-4.7-18.8-7.4c2.3-0.7,4-1.3,5.8-1.9c9.6-2.9,9.6-2.9,9.6-12.9c0-0.6,0-1.2,0-1.8c0-20.8,0-41.6,0-62.5
			c0-1.7,0.2-3.5,0.6-5.2c2-8,3.9-16,6.1-23.9c1-3.6,0-5.2-3.7-5.6c-3.3-0.3-6.6-0.8-9.8-1.3c0-0.2,0-0.4,0-0.6
			c4-0.9,8-1.7,12.1-2.6c-5.1-11.9-5.1-24.3-4-36.4c0.6-6.1-0.7-11.4-1.7-17.1c-0.2-0.9-2.2-1.8-3.5-2.1c-2-0.4-4.1-0.3-6.1-0.5
			c0-0.4,0-0.8,0-1.2c1.1-0.1,2.2-0.2,3.3-0.5c6.2-1.2,6.8-1.9,6.8-8.2c0-6-0.1-12,0-18c0-1.4,0.4-2.8,1-4.1c2.3-5.2,1.2-7-4.4-7
			c-107.1,0-214.2,0-321.3,0c-2,0-4.1,0.3-6,0.9c-7.6,2.5-15.3,4.9-22.6,8c-7.6,3.2-15.2,6.1-23.7,5.9c-14.7-0.3-29.1-2.4-43.3-6.3
			c-1.5,7,2.2,17.6,9.2,23c3.4,2.6,8.3,3.3,12.5,4.9c0.2-0.5,0.3-0.9,0.5-1.4c-2-1-4-2-6-3.1c0.1-0.2,0.3-0.5,0.4-0.7
			c3.8,1.4,7.6,2.9,12.3,4.7c-1.9,0.7-2.7,1-3.5,1.4c1.6,5.5-0.4,7.3-6.3,5.9c-3.4-0.8-6.8-1.6-10.2-2.3c-0.1,0.4-0.3,0.8-0.4,1.1
			c2.9,2.4,5.8,4.7,9,7.3c-1.6,1.1-2.6,1.7-3.5,2.3c-12.1,7.8-12.2,7.8-11.8,20.9c0.1,2.1,1.4,4.8,3.1,6c2.9,2,6.4,3.1,10.1,4.7
			c-3.6,1.2-7.1,2.6-10.8,3.4c-3.2,0.8-5,2.1-4.4,5.6c0.4,2.7,0.9,5.5,0.8,8.2c-0.4,7.5-1.3,15-1.5,22.6c-0.3,9.6-0.1,19.3-0.1,29.1
			c8.9,1.4,17.3,2.7,25.7,4c0,0.4-0.1,0.9-0.1,1.3c-8.4,0-16.9,0-26.4,0c7.6,6.9,17.6,5.6,25.4,10.7c-1.3,0.4-1.9,0.7-2.6,0.9
			c-6.4,2.2-12.8,4.4-19.3,6.4c-2.4,0.8-2.9,2.2-2.9,4.5c0.2,7.5,0.3,15,0,22.4c-0.2,5.3-0.4,10,6.8,10.3c0.4,0,0.8,0.7,1.5,1.4
			c-2.9,0.2-5.4,0.4-8.2,0.6c0,1.8,0,3.4,0,5c0,66.4,0,132.9,0,199.3c0,0.7-0.3,1.6,0.1,2.2c0.9,1.4,1.9,3.5,3.2,3.8
			c3.5,0.8,7.2,0.8,10.9,1.2c3.9,0.4,7.7,0.8,11.6,1.2c0,0.4,0,0.9-0.1,1.3c-8.4,0-16.9,0-25.7,0c0,27.8,0,54.8,0.2,81.8
			c0,1.2,2.2,3.2,3.5,3.3c6.1,0.7,12.3,0.8,18.5,1.2c6.9,0.5,13.7,1.2,20.6,2.1c1,0.1,1.7,1.5,2.6,2.4c-1,0.8-1.8,2.3-2.9,2.4
			c-2.8,0.4-5.6,0.2-8.4,0.4c-9.2,0.6-18.5,1.2-27.7,2.1c-5.2,0.5-6.8,2.7-6.4,7.2c0.4,4.6,1,9.3,0.8,13.9c-0.3,7.7,1.2,14.9,3,22.3
			c1.6,6.4,2.6,13.2,2.2,19.8c-1.2,17.2-0.8,34.3,1.2,51.5c1.5,12.3,1.6,24.7-0.8,37c-2.4,12.1-8.2,23.6-6.5,36.6
			c0.8,6.2,0.1,6.3,6.7,6.5c0.9,0,1.8,0.3,2.7,0.4c0,0.4,0,0.7,0,1.1c-1.2,0.2-2.5,0-3.5,0.6c-1.8,1.1-4.7,2.5-4.8,3.9
			c-0.6,12.2-0.6,24.5-0.8,36.8c4.9,6.9,6.6,14.8,7.4,22.8c0.8,8.7,2.2,17.6,1,26.1c-1.3,9.1-2.4,18.1-2.3,27.3
			c0.1,7.8,0.1,15.5,0,23.3c0,3-0.6,6.1-0.5,9.1c0,1,1.3,2.4,2.3,2.8c3.9,1.8,7.9,3.2,11.9,4.8c0,0.3-0.1,0.7-0.1,1
			c-5.5,0-11,0-15.7,0c-0.7,18-2.9,35.2-1.7,52.2c1.1,17-5.1,33.8,0.4,50.8c1.5,0.5,3.6,1.2,6.1,2.1c-2.3,1.1-4.1,1.8-5.6,2.9
			c-1.3,1-3,2.5-3,3.9c-0.1,3,1.1,6,1.2,8.9C110.2,1227.4,114.7,1234.5,110.2,1242.2z"/>
		<path class="st13" d="M32.2,1324.8"/>
		<path class="st8" d="M382.5,821.1c4.5-1.8,5.3-5,5.4-9.3C386,815.1,384.4,817.8,382.5,821.1z"/>
	</g>
	<g>
		<ellipse class="st14" cx="333.4" cy="247.4" rx="7.2" ry="8.2"/>
		<g>
			<path class="st15" d="M338,242.2c0.4,0.8,0.6,1.6,0.6,2.6c0,3-2.4,5.4-5.4,5.4c-0.4,0-0.7,0-1-0.1l4.9-8.8l0.1-0.1h-0.3l0,0
				c-0.2,0-0.3,0-0.5-0.1c-0.1-0.1-0.3-0.1-0.4-0.2l0,0c0,0-0.3-0.3-0.4-0.3c-0.1-0.1-0.1-0.2-0.1-0.2s-0.1-0.1-0.1-0.2
				c0,0-0.1-0.1-0.1-0.2c-0.1-0.1-0.1-0.2-0.1-0.3h-0.1l0,0l-5.2,9.2c-0.4-0.3-0.7-0.6-0.9-1c0.2,0.4,0.5,0.8,0.9,1.2l0,0
				c0.1,0.1,0.2,0.2,0.3,0.3c0.1,0,0.1,0.1,0.2,0.2c0.1,0.1,0.2,0.1,0.3,0.2c0.1,0.1,0.2,0.1,0.3,0.2c0.4,0.2,0.9,0.3,1.3,0.5
				c0.1,0,0.1,0.1,0.2,0.1c0.5,0.1,0.9,0.2,1.4,0.2c2.8-0.1,5.2-2.4,5.2-5.2C339,244.3,338.6,243.1,338,242.2z"/>
			<path class="st16" d="M337.2,241.2L337.2,241.2l-0.1,0.1l-4.9,8.8c0.3,0.1,0.7,0.1,1,0.1c3,0,5.4-2.4,5.4-5.4
				c0-0.9-0.2-1.8-0.6-2.6C337.8,241.8,337.5,241.5,337.2,241.2z"/>
			<path class="st16" d="M329.8,248.9l5.2-9.2c-0.5-0.2-1.1-0.3-1.7-0.3c-3,0-5.4,2.4-5.4,5.4c0,1.2,0.4,2.2,1,3.1
				C329.1,248.3,329.4,248.6,329.8,248.9z"/>
		</g>
	</g>
	<g>
		<g class="st17">
			<g>
				<path d="M263.3,203.4v-5.2c-7.8-2.7-12.6-8.1-11-14c3.1-11.5,7.3-27,10.5-37.7c-0.1-0.3-0.1-0.6-0.1-0.9v-12.8
					c-0.2,0-0.3,0-0.2,0c2,3.6-27.5,8.5-33.6,9.4s-12.5,0.8-18.7,1c-6.3,0.2-12.7,0.7-18.2,2.6c-5.5,1.9-9.9,5.4-9.9,9.3
					c0,3.9,5.7,7.7,11.9,7.2c-1.6-0.9-1.5-2.6-0.2-3.7s3.6-1.6,5.7-1.8c8.1-0.7,15.9,3.4,17.8,8.3c1.9,4.9-1.4,10.2-7,13.8
					s-13.3,5.8-21.2,7.1c-7.8,1.3-16,1.9-23.9,2.9c-8.6,1.1-17,2.6-25.1,4.6c-8.5,2.1-17.3,5-20.9,10.2l0.9,2.1h202.4
					c0.7-2.8,1.5-3.6,2.4-2.4L263.3,203.4L263.3,203.4z"/>
				<path d="M351.5,151.1h-33.3C326.9,152.3,339.1,152.3,351.5,151.1z"/>
				<path d="M262.8,146.5c-3.2,10.7-7.4,26.2-10.5,37.7c-1.6,5.9,3.2,11.4,11,14v-50.6C263.1,147.3,262.9,146.9,262.8,146.5z"/>
				<path d="M518.1,193.5c-8.1-2-16.6-3.5-25.1-4.6c-8-1-16.1-1.6-23.9-2.9c-7.8-1.3-15.5-3.5-21.2-7.1c-5.6-3.6-8.9-8.9-7-13.8
					c1.9-4.9,9.8-8.9,17.8-8.3c2.2,0.2,4.4,0.7,5.7,1.8c1.3,1.1,1.4,2.8-0.2,3.7c6.2,0.5,11.9-3.3,11.9-7.2c0-3.9-4.4-7.4-9.9-9.3
					s-11.9-2.4-18.2-2.6c-6.3-0.2-12.6-0.2-18.7-1c-5.2-0.7-28-4.5-32.8-7.8v11.3c0,0.4-0.1,0.9-0.2,1.3
					c19,18.9,15.1,54.5,15.1,54.5h-86.6c-0.9,0.8-1.7,1.7-2.4,2.4l13.3,2h202.4l0.9-2.1C535.4,198.5,526.6,195.6,518.1,193.5z"/>
				<path d="M387.7,151.1h-36.3c-12.4,1.2-24.6,1.3-33.3,0h-46.7c-3.7,0-6.9-1.4-8.2-3.4v50.6v3.2h61.6h86.6c0,0,3.8-35.7-15.1-54.5
					C395.4,149.3,391.9,151.1,387.7,151.1z"/>
				<path d="M271.5,151.1h46.7h33.3h36.3C391.9,151.1,267.8,151.1,271.5,151.1z"/>
			</g>
			<path d="M410.9,203.9H242.4c-3.2,0-5.8-2.6-5.8-5.8v-41.2c0-3.2,2.6-5.8,5.8-5.8h168.5c3.2,0,5.8,2.6,5.8,5.8v41.2
				C416.7,201.2,414.1,203.9,410.9,203.9z"/>
		</g>
		<g>
			<g>
				<path class="st18" d="M267.1,197.6v-2.9c-7.4-2.4-12-7.4-10.5-12.7c3-10.5,7-24.5,10-34.2c-0.1-0.3-0.1-0.5-0.1-0.8v-11.6
					c-0.2,0-0.2,0-0.2,0c1.9,3.3-26.4,7.7-32.1,8.5c-5.9,0.8-11.9,0.7-17.9,0.9c-6,0.2-12.1,0.7-17.4,2.4c-5.3,1.7-9.5,4.9-9.4,8.4
					c0,3.5,5.5,7,11.4,6.5c-1.6-0.8-1.5-2.4-0.2-3.4c1.3-1,3.4-1.5,5.5-1.6c7.7-0.6,15.2,3.1,17.1,7.5c1.8,4.4-1.3,9.2-6.7,12.5
					s-12.8,5.2-20.3,6.5c-7.5,1.2-15.3,1.8-22.9,2.7c-8.2,1-16.3,2.4-24.1,4.2c-8.1,1.9-16.5,4.6-20,9.3l0.8,0.1h193.7
					c0.7-0.7,1.5-1.4,2.3-2.2h-59V197.6z"/>
				<path class="st18" d="M351.5,151.9h-31.9C327.9,153,339.6,153,351.5,151.9z"/>
				<path class="st19" d="M266.6,147.8c-3,9.7-7.1,23.7-10,34.2c-1.5,5.3,3.1,10.3,10.5,12.7v-45.9
					C266.9,148.4,266.7,148.1,266.6,147.8z"/>
				<path class="st19" d="M510.9,190.4c-7.8-1.8-15.9-3.2-24.1-4.2c-7.6-0.9-15.4-1.5-22.9-2.7s-14.9-3.2-20.3-6.5
					s-8.5-8.1-6.7-12.5s9.3-8.1,17.1-7.5c2.1,0.2,4.2,0.7,5.5,1.6c1.3,1,1.4,2.6-0.2,3.4c6,0.4,11.4-3,11.4-6.5s-4.2-6.7-9.4-8.4
					c-5.3-1.7-11.4-2.2-17.4-2.4c-6-0.2-12.1-0.1-17.9-0.9c-5-0.7-26.8-4.1-31.4-7.1v10.2c0,0.4-0.1,0.8-0.2,1.1
					c18.2,17.1,14.5,49.5,14.5,49.5H326c-0.8,0.8-1.6,1.5-2.3,2.2h12.7h193.7l0.8-0.1C527.5,194.9,519.1,192.2,510.9,190.4z"/>
				<path class="st18" d="M386.2,151.9h-34.7c-11.8,1.1-23.5,1.2-31.9,0h-44.7c-3.5,0-6.6-1.3-7.8-3.1v45.9v4.9H326l82.8-2
					c0,0,3.7-32.4-14.5-49.5C393.4,150.3,390.1,151.9,386.2,151.9z"/>
				<path class="st18" d="M274.9,151.9h44.7h31.9h34.7C390.1,151.9,271.4,151.9,274.9,151.9z"/>
			</g>
			<path class="st8" d="M416.3,211.8H254.7c-3,0-5.4-2.4-5.4-5.4v-37.1c0-3,2.4-5.4,5.4-5.4h161.6c3,0,5.4,2.4,5.4,5.4v37.1
				C421.7,209.3,419.3,211.8,416.3,211.8z"/>
			<text transform="matrix(1 0 0 1 274.4853 187.0663)" class="st20 st21 st22">Trophies</text>
			<text transform="matrix(1 0 0 1 274.4853 187.0663)" class="st23 st21 st22">Trophies</text>
		</g>
	</g>
	<g>
		<g>
			<path class="st24" d="M237.3,188.2c7.5-9.6,14-19.8,19.6-30.7c0.9-1.7-1.7-3.2-2.6-1.5c-5.5,10.6-11.8,20.7-19.2,30.1
				C234,187.6,236.1,189.8,237.3,188.2L237.3,188.2z"/>
		</g>
	</g>
	<g>
		<g>
			<path class="st25" d="M237.8,193.4c7.5-10.5,15-21.1,22.6-31.6c1.1-1.6-1.5-3.1-2.6-1.5c-7.5,10.5-15,21.1-22.6,31.6
				C234.1,193.5,236.7,195,237.8,193.4L237.8,193.4z"/>
		</g>
	</g>
	<g>
		<g>
			<path class="st25" d="M239.4,174.8c4.6-7,9.2-14.1,13.8-21.1c1.1-1.6-1.5-3.1-2.6-1.5c-4.6,7-9.2,14.1-13.8,21.1
				C235.7,174.9,238.3,176.4,239.4,174.8L239.4,174.8z"/>
		</g>
	</g>
	<g>
		<g>
			<path class="st25" d="M413.6,149.2c-4.8,6.5-8.5,13.7-11.1,21.4c-0.6,1.8,2.3,2.6,2.9,0.8c2.5-7.4,6.2-14.3,10.8-20.6
				C417.3,149.2,414.7,147.7,413.6,149.2L413.6,149.2z"/>
		</g>
	</g>
	<g>
		<g>
			<path class="st25" d="M421.5,185.6c-0.6,1.8-1.7,3.1-3.4,3.9c0.7,0.7,1.4,1.4,2.1,2.1c3.8-7.7,8.5-14.8,14.2-21.2
				c1.3-1.4-0.8-3.6-2.1-2.1c-5.8,6.7-10.7,13.9-14.6,21.9c-0.6,1.3,0.7,2.8,2.1,2.1c2.4-1.4,3.8-3.1,4.7-5.7
				C425.1,184.6,422.2,183.8,421.5,185.6L421.5,185.6z"/>
		</g>
	</g>
	<g>
		<g>
			<path class="st25" d="M184.2,194.7c1-1.7,2-3.3,3-5s-1.6-3.2-2.6-1.5s-2,3.3-3,5C180.6,194.8,183.2,196.4,184.2,194.7
				L184.2,194.7z"/>
		</g>
	</g>
	<g>
		<g>
			<path class="st25" d="M444.4,190.5c-0.1-0.7,0.4-1.5,1-1.2c0.3,0.1,0.3,0.7,0.3,0.7c0.1,0,0.6-0.4,0.6-0.5
				c0.2-0.1,0.5-0.3,0.7-0.4c1.3-0.8,2.1-2,1.9-3.6c-0.1-0.8-1.1-1.2-1.8-1c-0.9,0.2-1.2,1-1,1.8c0-0.3-0.2,0-0.3,0.1
				c-0.2,0.1-0.3,0.2-0.5,0.3c-0.5,0.3-1.1,0.6-1.5,1c-0.9,0.8-1.4,2.2-0.7,3.3c1.2,2.1,4.7,1.3,4.3-1.3c-0.1-0.8-1.1-1.2-1.8-1
				C444.6,188.9,444.3,189.7,444.4,190.5L444.4,190.5z"/>
		</g>
	</g>
	<g>
		<g>
			<path class="st25" d="M219.1,192.1c7.9-8.2,15.4-16.7,22.4-25.7c1.2-1.5-0.9-3.6-2.1-2.1c-7,9-14.4,17.6-22.4,25.7
				C215.6,191.3,217.7,193.5,219.1,192.1L219.1,192.1z"/>
		</g>
	</g>
</g>
</svg>
