<?xml version="1.0" encoding="utf-8"?>
<!-- Generator: Adobe Illustrator 19.1.0, SVG Export Plug-In . SVG Version: 6.00 Build 0)  -->
<svg version="1.1" xmlns="http://www.w3.org/2000/svg" xmlns:xlink="http://www.w3.org/1999/xlink" x="0px" y="0px"
	 viewBox="0 0 404.1 183" style="enable-background:new 0 0 404.1 183;" xml:space="preserve">
<style type="text/css">
	.st0{fill:#D2D860;}
	.st1{fill:#7F4817;}
	.st2{fill:#6FB533;}
	.st3{fill:none;stroke:#875815;stroke-width:7;stroke-miterlimit:10;}
	.st4{fill:none;stroke:#2F6D07;stroke-miterlimit:10;}
	.st5{fill:none;stroke:#2F6D07;stroke-width:2;stroke-miterlimit:10;}
	.st6{fill:#C6884F;}
	.st7{fill:#EDC57E;}
	.st8{fill:#845A3D;}
</style>
<g id="Ebene_2">
</g>
<g id="Ebene_1">
	<g>
		<g>
			<path class="st0" d="M383.4,77H20.7C9.3,77,0,67.7,0,56.3V20.7C0,9.3,9.3,0,22.7,0h362.6c9.4,0,18.7,9.3,18.7,20.7v35.5
				C404.1,67.7,394.8,77,383.4,77z"/>
			<path class="st1" d="M380.7,176.5H24.3c-6.2,0-11.3-5.1-11.3-11.3V35.8c0-6.2,5.1-11.3,11.3-11.3h356.3c6.2,0,11.3,5.1,11.3,11.3
				v129.4C392,171.4,386.9,176.5,380.7,176.5z"/>
			<path class="st2" d="M383.1,84.5H21.5c-11.5,0-21-9.4-21-21v-37c0-11.5,9.4-21,21-21h361.6c11.5,0,21,9.4,21,21v37
				C404.1,75.1,394.7,84.5,383.1,84.5z"/>
			<path class="st3" d="M7.9,33.1"/>
			<path class="st4" d="M19.8,29.8"/>
			<line class="st5" x1="14" y1="28.5" x2="394" y2="29"/>
			<path class="st6" d="M377.3,167.6H28.5c-10.8,0-19.6-8.8-19.6-19.6V39.5c0-10.8,8.8-19.6,19.6-19.6h348.7
				c10.8,0,19.6,8.8,19.6,19.6v108.5C396.9,158.7,388.1,167.6,377.3,167.6z"/>
			<path class="st7" d="M355.2,145.3H51c-4.8,0-8.8-4-8.8-8.8V46.1c0-4.8,4-8.8,8.8-8.8h304.2c4.8,0,8.8,4,8.8,8.8v90.5
				C364,141.4,360.1,145.3,355.2,145.3z"/>
		</g>
	</g>
	<g>
		<path class="st8" d="M129.8,77.6c-0.2-1.3-0.4-2.6-0.6-3.8c-0.2-1.2-0.4-2.4-0.7-3.7h-9.8c-0.3,1.4-0.6,2.8-0.8,4.3
			c-0.2,1.4-0.5,2.8-0.7,4.2h-3.4c-0.6,0-1-0.4-0.9-1.1c0.1-0.9,0.2-1.7,0.4-2.6c0.5-2.8,1.1-5.6,1.8-8.2c0.6-2.6,1.3-5,2-7.3
			c0.7-2.3,1.4-4.4,2.1-6.3c0.7-1.9,1.3-3.6,2-5.1h4.4c0.4,0,0.6,0.1,0.8,0.2c0.2,0.1,0.3,0.4,0.4,0.7c0.6,1.5,1.3,3.3,2,5.4
			c0.7,2.1,1.5,4.4,2.2,7c0.7,2.6,1.4,5.3,2.1,8.2c0.6,2.9,1.2,5.9,1.7,9h-3.7C130.2,78.6,129.9,78.3,129.8,77.6z M123.5,51.9
			c-0.7,2.1-1.4,4.3-2.2,6.8c-0.7,2.4-1.5,5-2.1,7.9h8.7c-0.7-2.8-1.4-5.4-2.1-7.9S124.3,54,123.5,51.9z"/>
		<path class="st8" d="M145.2,79c-2.6,0-4.6-1-5.7-2.9s-1.8-4.8-1.8-8.5c0-4.2,0.7-7.3,2.2-9.1c1.5-1.8,3.6-2.8,6.6-2.8
			c1.2,0,2.3,0.1,3.1,0.4c0.8,0.2,1.4,0.5,1.8,0.7V47h3.4c0.3,0,0.6,0.1,0.8,0.3c0.2,0.2,0.3,0.4,0.3,0.7v30.6h-2.7
			c-0.3,0-0.6-0.1-0.8-0.2c-0.2-0.1-0.4-0.4-0.4-0.9l-0.2-1.4c-0.7,0.7-1.5,1.4-2.6,2C148.1,78.7,146.8,79,145.2,79z M151.4,59.9
			c-0.6-0.2-1.2-0.4-1.8-0.6c-0.6-0.1-1.3-0.2-2.1-0.2c-1,0-1.9,0.1-2.6,0.4c-0.7,0.3-1.2,0.8-1.6,1.4s-0.7,1.5-0.8,2.6
			c-0.2,1-0.2,2.3-0.2,3.8c0,2.8,0.3,4.8,0.9,6.1c0.6,1.3,1.8,1.9,3.4,1.9c1.2,0,2.1-0.2,2.9-0.7c0.8-0.5,1.4-0.9,1.9-1.4V59.9z"/>
		<path class="st8" d="M167.5,78.6c-0.4,0-0.7-0.1-0.9-0.2c-0.2-0.2-0.3-0.4-0.5-0.7c-1.6-3.5-3-7-4.2-10.6c-1.2-3.6-2-7.2-2.4-10.8
			h3.6c0.6,0,1,0.3,1.1,1c0.2,1.4,0.4,2.9,0.8,4.4c0.3,1.5,0.7,3.1,1.1,4.6c0.4,1.5,0.8,3,1.3,4.5c0.5,1.5,1,2.8,1.5,4
			c0.6-1.3,1.1-2.7,1.6-4.2s1-3.2,1.4-4.8c0.4-1.7,0.8-3.3,1.1-4.9c0.3-1.6,0.6-3.2,0.8-4.6h3.3c0.6,0,0.9,0.3,0.9,1
			c0,0.3-0.1,0.7-0.1,1.1s-0.1,0.8-0.2,1.3c-0.6,3.1-1.4,6.3-2.5,9.5c-1.1,3.2-2.4,6.4-3.9,9.5H167.5z"/>
		<path class="st8" d="M185.3,69c0.1,1.2,0.2,2.2,0.4,3c0.2,0.8,0.5,1.5,1,2c0.5,0.5,1.1,0.9,2,1.1c0.8,0.2,1.9,0.4,3.2,0.4
			c1.1,0,2.2-0.1,3.1-0.2c0.9-0.1,1.6-0.2,1.9-0.2c0.7,0,1,0.3,1,1V78c-0.7,0.3-1.7,0.6-2.9,0.8c-1.2,0.2-2.6,0.3-4.2,0.3
			c-1.7,0-3.1-0.2-4.4-0.6s-2.3-1.1-3.1-2s-1.4-2.1-1.8-3.6c-0.4-1.5-0.6-3.3-0.6-5.4c0-2.1,0.2-3.9,0.6-5.4s1-2.7,1.7-3.7
			c0.8-1,1.7-1.6,2.9-2.1c1.1-0.4,2.5-0.6,4-0.6c1.7,0,3.1,0.2,4.2,0.7c1.1,0.5,1.9,1.1,2.6,2c0.6,0.8,1,1.8,1.3,2.9
			c0.2,1.1,0.4,2.3,0.4,3.5c0,0.9,0,1.7-0.1,2.5s-0.2,1.4-0.4,1.8H185.3z M194.6,65.9c0-0.3,0-0.5,0-0.7s0-0.3,0-0.6
			c0-1.9-0.3-3.3-0.9-4.2c-0.6-1-1.7-1.4-3.4-1.4c-1,0-1.8,0.2-2.5,0.5c-0.6,0.3-1.2,0.8-1.5,1.4c-0.4,0.6-0.7,1.3-0.8,2.2
			s-0.3,1.8-0.3,2.9H194.6z"/>
		<path class="st8" d="M204.5,78.6c-0.7,0-1.1-0.3-1.1-1V56.2h2.7c0.3,0,0.6,0.1,0.8,0.2c0.2,0.1,0.4,0.4,0.4,0.9l0.2,1.4
			c1.8-2,4.2-2.9,7-2.9c2.4,0,4.1,0.7,5.1,2.1c1,1.4,1.5,3.3,1.5,5.6v15.2h-3.4c-0.3,0-0.6-0.1-0.8-0.3c-0.2-0.2-0.3-0.4-0.3-0.7
			V63.7c0-1.5-0.3-2.6-1-3.3s-1.6-1-2.8-1c-1.2,0-2.2,0.2-3.1,0.7c-0.9,0.5-1.5,1-2,1.5v16.9H204.5z"/>
		<path class="st8" d="M237.3,78.5c-0.7,0.2-1.3,0.3-1.9,0.4c-0.6,0.1-1.2,0.1-1.9,0.1c-2.1,0-3.6-0.5-4.6-1.4
			c-1-0.9-1.4-2.4-1.4-4.4V59.7H226c-0.7,0-1.1-0.3-1.1-1v-2.5h2.7l0.2-5.8h3.1c0.7,0,1.1,0.3,1.1,1v4.8h4.3c0.3,0,0.6,0.1,0.8,0.3
			c0.2,0.2,0.3,0.4,0.3,0.7v2.5H232v13.2c0,0.8,0.1,1.4,0.4,1.8c0.3,0.4,0.8,0.7,1.6,0.7c0.5,0,0.9,0,1.3,0s0.7,0,0.9,0
			c0.8,0,1.2,0.3,1.2,1V78.5z"/>
		<path class="st8" d="M258.2,56.2c0.7,0,1.1,0.3,1.1,1v21.4h-2.7c-0.3,0-0.6-0.1-0.8-0.2c-0.2-0.1-0.4-0.4-0.4-0.9l-0.2-1.4
			c-1.8,2-4.2,2.9-7,2.9c-1.2,0-2.2-0.2-3.1-0.5c-0.9-0.4-1.5-0.9-2.1-1.5c-0.5-0.7-0.9-1.5-1.2-2.4c-0.2-1-0.4-2-0.4-3.1V56.2h3.4
			c0.3,0,0.6,0.1,0.8,0.3c0.2,0.2,0.3,0.4,0.3,0.7v13.9c0,1.5,0.3,2.6,1,3.3s1.6,1,2.8,1c1.2,0,2.2-0.2,3.1-0.7c0.9-0.5,1.5-1,2-1.5
			V56.2H258.2z"/>
		<path class="st8" d="M274.8,56.1c0.6,0,1,0.1,1.2,0.3c0.2,0.2,0.3,0.4,0.3,0.8v2.9c-0.2,0-0.4,0-0.6,0s-0.4,0-0.6,0
			c-1.2,0-2.3,0.2-3.3,0.6c-1,0.4-1.9,1-2.8,1.9v16.1h-3.4c-0.7,0-1.1-0.3-1.1-1V56.2h2.7c0.4,0,0.7,0.1,0.8,0.2s0.3,0.4,0.4,0.9
			l0.2,1.9c0.7-0.8,1.5-1.6,2.6-2.2C272.4,56.4,273.6,56.1,274.8,56.1z"/>
		<path class="st8" d="M283.1,69c0.1,1.2,0.2,2.2,0.4,3c0.2,0.8,0.5,1.5,1,2c0.5,0.5,1.1,0.9,2,1.1c0.8,0.2,1.9,0.4,3.2,0.4
			c1.1,0,2.2-0.1,3.1-0.2s1.6-0.2,1.9-0.2c0.7,0,1,0.3,1,1V78c-0.7,0.3-1.7,0.6-2.9,0.8c-1.2,0.2-2.6,0.3-4.2,0.3
			c-1.7,0-3.1-0.2-4.4-0.6c-1.2-0.4-2.3-1.1-3.1-2s-1.4-2.1-1.8-3.6c-0.4-1.5-0.6-3.3-0.6-5.4c0-2.1,0.2-3.9,0.6-5.4s1-2.7,1.7-3.7
			s1.7-1.6,2.9-2.1c1.1-0.4,2.5-0.6,4-0.6c1.7,0,3.1,0.2,4.2,0.7c1.1,0.5,1.9,1.1,2.6,2s1,1.8,1.3,2.9c0.2,1.1,0.4,2.3,0.4,3.5
			c0,0.9,0,1.7-0.1,2.5s-0.2,1.4-0.4,1.8H283.1z M292.4,65.9c0-0.3,0-0.5,0-0.7s0-0.3,0-0.6c0-1.9-0.3-3.3-0.9-4.2
			c-0.6-1-1.7-1.4-3.4-1.4c-1,0-1.8,0.2-2.5,0.5c-0.6,0.3-1.2,0.8-1.5,1.4c-0.4,0.6-0.7,1.3-0.8,2.2s-0.3,1.8-0.3,2.9H292.4z"/>
		<path class="st8" d="M163.3,104.8h-7c-0.7,0-1.1-0.3-1.1-1v-2.9h19.7c0.3,0,0.6,0.1,0.8,0.3c0.2,0.2,0.3,0.4,0.3,0.7v2.9h-8.1
			v26.6h-3.6c-0.7,0-1.1-0.3-1.1-1V104.8z"/>
		<path class="st8" d="M182.2,105.5c-1,0-1.7-0.2-2.1-0.5c-0.4-0.4-0.6-1-0.6-1.9c0-0.9,0.2-1.5,0.6-1.8c0.4-0.4,1.1-0.6,2.1-0.6
			c0.9,0,1.6,0.2,2.1,0.6c0.4,0.4,0.7,1,0.7,1.8c0,0.9-0.2,1.5-0.7,1.9C183.8,105.3,183.1,105.5,182.2,105.5z M184.4,131.4H181
			c-0.7,0-1.1-0.3-1.1-1V109h3.4c0.7,0,1.1,0.3,1.1,1V131.4z"/>
		<path class="st8" d="M203.7,131.4c-0.3,0-0.6-0.1-0.8-0.3c-0.2-0.2-0.3-0.4-0.3-0.7v-13.9c0-1.5-0.3-2.6-0.9-3.3
			c-0.6-0.7-1.5-1-2.6-1c-1.1,0-2.1,0.2-2.9,0.7c-0.8,0.5-1.5,1-2,1.5v17h-3.4c-0.7,0-1.1-0.3-1.1-1V109h2.7c0.3,0,0.6,0.1,0.8,0.2
			c0.2,0.1,0.4,0.4,0.4,0.9l0.2,1.4c0.8-0.9,1.8-1.6,2.8-2.2c1.1-0.5,2.4-0.8,3.9-0.8c1.2,0,2.4,0.2,3.4,0.7s1.8,1.3,2.3,2.5
			c0.7-0.8,1.6-1.5,2.8-2.2c1.2-0.7,2.6-1,4.4-1c2.1,0,3.6,0.6,4.8,1.8c1.1,1.2,1.7,3.2,1.7,5.8v15.2h-3.4c-0.7,0-1-0.3-1-1v-13.9
			c0-1.5-0.3-2.6-0.9-3.3c-0.6-0.7-1.5-1-2.6-1c-1.2,0-2.2,0.3-3,0.8c-0.8,0.5-1.5,1-2,1.5c0.1,0.8,0.1,1.5,0.1,2.3v14.6H203.7z"/>
		<path class="st8" d="M228.9,121.8c0.1,1.2,0.2,2.2,0.4,3c0.2,0.8,0.5,1.5,1,2c0.5,0.5,1.1,0.9,2,1.1c0.8,0.2,1.9,0.4,3.2,0.4
			c1.1,0,2.2-0.1,3.1-0.2s1.6-0.2,1.9-0.2c0.7,0,1,0.3,1,1v1.8c-0.7,0.3-1.7,0.6-2.9,0.8c-1.2,0.2-2.6,0.3-4.2,0.3
			c-1.7,0-3.1-0.2-4.4-0.6c-1.2-0.4-2.3-1.1-3.1-2s-1.4-2.1-1.8-3.6c-0.4-1.5-0.6-3.3-0.6-5.4c0-2.1,0.2-3.9,0.6-5.4s1-2.7,1.7-3.7
			s1.7-1.6,2.9-2.1c1.1-0.4,2.5-0.6,4-0.6c1.7,0,3.1,0.2,4.2,0.7c1.1,0.5,1.9,1.1,2.6,2s1,1.8,1.3,2.9c0.2,1.1,0.4,2.3,0.4,3.5
			c0,0.9,0,1.7-0.1,2.5c-0.1,0.8-0.2,1.4-0.4,1.8H228.9z M238.2,118.7c0-0.3,0-0.5,0-0.7c0-0.1,0-0.3,0-0.6c0-1.9-0.3-3.3-0.9-4.2
			c-0.6-1-1.7-1.4-3.4-1.4c-1,0-1.8,0.2-2.5,0.5c-0.6,0.3-1.2,0.8-1.5,1.4c-0.4,0.6-0.7,1.3-0.8,2.2s-0.3,1.8-0.3,2.9H238.2z"/>
		<path class="st8" d="M253.1,128.8c0,1-0.2,1.8-0.7,2.2c-0.5,0.4-1.2,0.6-2.2,0.6c-1.1,0-1.8-0.2-2.3-0.6c-0.5-0.4-0.7-1.2-0.7-2.2
			c0-1,0.2-1.7,0.7-2.1c0.5-0.4,1.2-0.6,2.2-0.6s1.8,0.2,2.2,0.6C252.9,127.1,253.1,127.8,253.1,128.8z M248.5,121.1
			c-0.1-1.1-0.2-2.2-0.3-3.4s-0.1-2.4-0.2-3.5c0-1.2-0.1-2.3-0.1-3.4s0-2.2,0-3.1v-6.8h3.5c0.5,0,0.8,0.2,0.9,0.7
			c0.1,0.4,0.2,0.9,0.2,1.3v4.8c0,2.3-0.1,4.7-0.2,7.2c-0.1,2.5-0.3,4.9-0.5,7.3h-2.3C248.9,122.2,248.6,121.8,248.5,121.1z"/>
	</g>
</g>
</svg>
